{"glyphs":{"0":{"ha":806,"x_min":35,"x_max":771,"o":"m 771 502 q 743 731 771 634 q 665 890 715 827 q 548 984 615 953 q 401 1015 480 1015 q 256 984 323 1015 q 140 890 189 953 q 63 731 90 827 q 35 502 35 634 q 63 274 35 371 q 140 114 90 177 q 256 20 189 51 q 401 -11 323 -11 q 548 20 480 -11 q 665 114 615 51 q 743 274 715 177 q 771 502 771 371 m 594 502 q 578 322 594 393 q 535 208 562 250 q 474 148 508 165 q 401 131 439 131 q 330 148 365 131 q 269 208 296 165 q 227 322 243 250 q 212 502 212 393 q 227 683 212 611 q 269 797 243 754 q 330 856 296 839 q 401 873 365 873 q 474 856 439 873 q 535 797 508 839 q 578 683 562 754 q 594 502 594 611 "},"1":{"ha":806,"x_min":115,"x_max":742,"o":"m 187 128 l 187 0 l 742 0 l 742 128 l 562 128 l 562 1006 l 421 1006 l 115 745 l 169 671 q 186 657 174 663 q 211 651 197 651 q 230 654 220 651 q 248 665 239 657 l 392 785 q 390 714 390 748 l 390 128 l 187 128 "},"2":{"ha":806,"x_min":58,"x_max":747,"o":"m 418 1015 q 293 997 351 1015 q 191 942 235 978 q 116 851 146 906 q 76 724 86 797 l 166 708 q 189 706 178 706 q 228 718 213 706 q 251 756 243 729 q 307 840 267 808 q 408 871 347 871 q 468 861 442 871 q 515 833 495 852 q 544 787 534 815 q 555 724 555 760 q 544 648 555 684 q 513 578 533 613 q 462 508 492 543 q 394 433 432 472 l 89 128 q 66 93 73 112 q 58 57 58 74 l 58 0 l 747 0 l 747 103 q 731 144 747 128 q 687 160 715 160 l 429 160 q 368 155 400 160 q 303 140 336 149 l 529 371 q 606 453 569 413 q 670 536 643 493 q 714 626 698 579 q 731 729 731 674 q 708 847 731 794 q 644 937 685 899 q 545 995 603 974 q 418 1015 488 1015 "},"3":{"ha":806,"x_min":63,"x_max":757,"o":"m 434 1015 q 309 997 367 1015 q 207 942 251 978 q 132 851 162 906 q 92 724 102 797 l 182 708 q 206 706 194 706 q 244 718 229 706 q 267 756 258 729 q 323 839 283 806 q 424 871 363 871 q 531 834 492 871 q 569 726 569 798 q 560 665 569 693 q 525 618 550 638 q 459 587 501 598 q 354 575 417 576 l 354 453 q 476 441 431 453 q 546 408 522 429 q 578 358 570 388 q 585 292 585 328 q 575 236 585 264 q 542 185 564 208 q 488 148 520 162 q 411 133 455 133 q 344 145 372 133 q 295 175 316 156 q 259 217 274 193 q 232 265 244 240 q 210 287 224 279 q 178 294 196 294 q 138 286 158 294 l 63 255 q 113 141 83 190 q 183 58 142 92 q 281 6 225 24 q 413 -11 338 -11 q 545 9 483 -11 q 654 68 607 29 q 729 165 701 108 q 757 298 757 223 q 713 444 757 386 q 578 531 668 503 q 645 563 615 544 q 695 608 674 581 q 726 672 715 635 q 737 756 737 708 q 716 858 737 811 q 655 941 694 906 q 559 995 615 976 q 434 1015 503 1015 "},"4":{"ha":806,"x_min":16,"x_max":781,"o":"m 654 378 l 654 1005 l 492 1005 l 16 369 l 33 283 q 50 256 37 267 q 81 245 63 245 l 504 245 l 504 0 l 654 0 l 654 245 l 745 245 q 772 255 763 245 q 781 279 781 265 l 781 378 l 654 378 m 504 707 l 504 378 l 199 378 l 510 808 q 506 755 507 781 q 504 707 504 729 "},"5":{"ha":806,"x_min":53,"x_max":721,"o":"m 687 931 l 687 1004 l 191 1004 l 108 517 l 215 486 q 361 513 288 513 q 501 466 453 513 q 549 338 549 420 q 536 256 549 294 q 500 191 524 218 q 440 148 476 163 q 357 133 404 133 q 281 144 313 133 q 226 168 250 155 q 185 192 203 181 q 150 203 167 203 q 106 180 122 203 l 53 107 q 109 62 78 83 q 178 25 141 41 q 258 -1 215 8 q 347 -11 300 -11 q 496 15 428 -11 q 615 87 565 40 q 693 200 665 134 q 721 346 721 266 q 700 466 721 410 q 638 564 679 522 q 537 629 597 606 q 398 653 477 653 q 274 639 342 653 l 310 849 l 586 849 q 664 872 640 849 q 687 931 687 894 "},"6":{"ha":806,"x_min":60,"x_max":762,"o":"m 465 627 q 392 619 426 627 q 329 596 358 610 q 346 617 338 607 q 365 640 355 628 l 663 1004 l 510 1004 q 455 992 478 1004 q 418 964 431 981 l 178 642 q 89 487 118 562 q 60 342 60 413 q 84 198 60 263 q 153 86 108 133 q 263 15 199 40 q 407 -11 326 -11 q 552 15 486 -11 q 664 88 617 42 q 736 195 710 133 q 762 326 762 256 q 737 458 762 401 q 671 552 712 514 q 576 608 630 590 q 465 627 522 627 m 225 315 q 238 388 225 354 q 275 446 251 422 q 332 485 299 471 q 406 499 365 499 q 481 486 447 499 q 540 450 515 474 q 577 391 564 426 q 590 314 590 357 q 576 241 590 274 q 538 182 563 207 q 479 143 513 157 q 403 129 444 129 q 326 143 360 129 q 270 181 293 156 q 236 239 248 205 q 225 315 225 274 "},"7":{"ha":806,"x_min":67,"x_max":761,"o":"m 761 1004 l 67 1004 l 67 888 q 78 860 67 872 q 106 849 90 849 l 587 849 q 533 767 557 815 l 144 0 l 268 0 q 326 17 305 0 q 360 58 348 34 l 740 842 q 754 876 747 856 q 761 930 761 897 l 761 1004 "},"8":{"ha":806,"x_min":54,"x_max":751,"o":"m 403 -11 q 545 10 481 -11 q 655 69 609 31 q 726 161 701 107 q 751 282 751 215 q 708 432 751 371 q 572 524 664 494 q 681 610 644 554 q 718 746 718 667 q 695 852 718 803 q 630 938 672 901 q 530 995 588 974 q 403 1015 472 1015 q 275 995 333 1015 q 176 938 217 974 q 111 852 134 901 q 88 746 88 803 q 124 610 88 667 q 234 524 160 554 q 98 432 142 494 q 54 282 54 371 q 80 161 54 215 q 151 69 105 107 q 261 10 197 31 q 403 -11 325 -11 m 403 123 q 328 135 360 123 q 275 169 297 147 q 242 220 253 190 q 231 285 231 250 q 276 410 231 367 q 403 452 322 452 q 529 410 483 452 q 575 285 575 367 q 564 220 575 250 q 531 169 553 190 q 477 135 509 147 q 403 123 445 123 m 403 587 q 333 600 361 587 q 287 635 304 613 q 262 685 269 657 q 255 743 255 713 q 264 797 255 772 q 291 843 272 823 q 337 874 309 863 q 403 886 365 886 q 469 874 441 886 q 515 843 497 863 q 542 797 533 823 q 551 743 551 772 q 543 685 551 713 q 519 635 536 657 q 473 600 501 613 q 403 587 444 587 "},"9":{"ha":806,"x_min":90,"x_max":767,"o":"m 368 401 q 456 412 414 401 q 532 446 497 424 q 512 418 522 432 q 490 390 501 404 l 178 0 l 335 0 q 389 11 365 0 q 424 40 412 23 l 653 367 q 700 441 679 404 q 736 516 721 477 q 759 596 751 554 q 767 684 767 638 q 743 818 767 757 q 677 923 720 879 q 572 991 633 967 q 433 1015 510 1015 q 294 990 357 1015 q 185 919 231 964 q 115 816 140 875 q 90 690 90 757 q 114 564 90 617 q 177 473 138 510 q 266 419 216 437 q 368 401 316 401 m 602 701 q 591 634 602 665 q 557 580 579 603 q 502 544 535 557 q 428 531 470 531 q 305 575 349 531 q 262 703 262 619 q 274 772 262 740 q 307 826 285 803 q 360 862 329 849 q 431 875 392 875 q 500 863 468 875 q 554 829 531 851 q 590 775 577 807 q 602 701 602 742 "},"\u0000":{"ha":0,"x_min":0,"x_max":0,"o":""},"\r":{"ha":0,"x_min":0,"x_max":0,"o":""}," ":{"ha":268,"x_min":0,"x_max":0,"o":""},"!":{"ha":501,"x_min":145,"x_max":356,"o":"m 333 1004 l 172 1004 l 172 607 q 178 483 172 544 q 194 354 184 422 l 310 354 q 327 483 321 422 q 333 607 333 544 l 333 1004 m 145 94 q 153 53 145 72 q 175 20 161 34 q 209 -2 190 6 q 251 -10 228 -10 q 292 -2 272 -10 q 325 20 311 6 q 347 53 339 34 q 356 94 356 72 q 347 135 356 116 q 325 169 339 155 q 292 191 311 183 q 251 199 272 199 q 209 191 228 199 q 175 169 190 183 q 153 135 161 155 q 145 94 145 116 "},"\"":{"ha":586,"x_min":91,"x_max":496,"o":"m 240 1004 l 91 1004 l 91 804 l 106 696 q 125 649 110 665 q 165 633 140 633 q 207 649 194 633 q 224 696 219 665 l 240 804 l 240 1004 m 496 1004 l 347 1004 l 347 804 l 362 696 q 381 649 366 665 q 420 633 395 633 q 462 649 449 633 q 480 696 475 665 l 496 804 l 496 1004 "},"#":{"ha":806,"x_min":27,"x_max":788,"o":"m 577 283 l 728 283 l 736 338 q 738 360 738 350 q 727 396 738 385 q 693 407 715 407 l 594 407 l 630 599 l 699 599 q 753 611 736 599 q 775 651 770 624 l 788 722 l 647 722 l 690 944 q 691 955 691 948 q 676 990 691 976 q 636 1004 660 1004 l 560 1004 l 506 722 l 365 722 l 417 1004 l 340 1004 q 292 989 313 1004 q 267 946 272 974 l 224 722 l 147 722 q 92 709 109 722 q 71 670 76 697 l 58 599 l 206 599 l 170 407 l 38 407 l 29 352 q 27 330 27 340 q 39 294 27 305 q 73 283 51 283 l 153 283 l 100 0 l 176 0 q 225 15 203 0 q 253 63 247 29 l 294 283 l 436 283 l 395 71 q 394 64 394 67 q 394 58 394 61 q 409 17 394 33 q 445 0 424 0 l 524 0 l 577 283 m 311 407 l 347 599 l 489 599 l 453 407 l 311 407 "},"$":{"ha":806,"x_min":48,"x_max":751,"o":"m 322 -6 l 309 -155 l 372 -155 q 405 -141 392 -155 q 419 -112 417 -128 l 427 -10 q 565 23 505 -4 q 667 93 626 50 q 730 193 708 137 q 751 315 751 250 q 727 423 751 380 q 664 496 703 467 q 575 543 624 525 q 476 577 526 562 l 501 865 q 550 849 528 858 q 591 830 572 839 q 623 814 609 820 q 648 807 638 807 q 672 814 662 807 q 691 835 681 821 l 733 898 q 640 965 693 935 q 513 1007 586 995 l 524 1144 l 461 1144 q 428 1131 441 1144 q 415 1101 416 1117 l 407 1013 q 272 984 331 1010 q 172 919 213 958 q 111 829 132 879 q 90 726 90 778 q 113 608 90 655 q 175 530 137 560 q 262 480 214 499 q 360 447 310 461 l 333 136 q 266 158 294 143 q 215 187 238 172 q 176 212 193 201 q 143 223 158 223 q 119 216 131 223 q 101 199 108 210 l 48 121 q 169 38 98 72 q 322 -6 240 5 m 589 288 q 551 184 589 224 q 440 134 513 144 l 463 416 q 513 396 490 407 q 553 369 536 385 q 580 334 570 354 q 589 288 589 315 m 251 742 q 259 786 251 765 q 285 823 267 806 q 329 851 302 840 q 394 867 356 863 l 373 610 q 324 632 347 620 q 286 660 302 644 q 260 696 269 676 q 251 742 251 716 "},"%":{"ha":1115,"x_min":42,"x_max":1073,"o":"m 506 761 q 489 867 506 819 q 440 947 472 914 q 366 997 409 979 q 274 1015 324 1015 q 181 997 224 1015 q 108 947 139 979 q 60 867 77 914 q 42 761 42 819 q 60 658 42 704 q 108 580 77 613 q 181 531 139 548 q 274 513 224 513 q 362 531 319 513 q 436 580 404 548 q 487 658 468 613 q 506 761 506 704 m 374 761 q 366 696 374 722 q 345 654 358 670 q 313 631 331 638 q 274 624 294 624 q 235 631 253 624 q 203 654 217 638 q 183 696 190 670 q 176 761 176 722 q 183 828 176 801 q 203 872 190 856 q 235 896 217 889 q 274 903 253 903 q 313 896 294 903 q 345 872 331 889 q 366 828 358 856 q 374 761 374 801 m 840 977 l 94 0 l 222 0 q 253 7 240 0 q 274 26 266 15 l 1020 1004 l 896 1004 q 861 996 874 1004 q 840 977 849 988 m 1073 236 q 1056 342 1073 294 q 1007 422 1038 389 q 933 472 976 454 q 840 490 890 490 q 748 472 790 490 q 675 422 706 454 q 626 342 644 389 q 609 236 609 294 q 626 133 609 179 q 675 55 644 88 q 748 5 706 23 q 840 -12 790 -12 q 928 5 886 -12 q 1003 55 971 23 q 1054 133 1035 88 q 1073 236 1073 179 m 941 236 q 933 171 941 197 q 911 128 925 144 q 880 106 898 113 q 840 99 861 99 q 801 106 819 99 q 770 128 783 113 q 750 171 758 144 q 742 236 742 197 q 750 303 742 276 q 770 347 758 331 q 801 371 783 364 q 840 378 819 378 q 880 371 861 378 q 911 347 898 364 q 933 303 925 331 q 941 236 941 276 "},"&":{"ha":992,"x_min":44,"x_max":994,"o":"m 460 1015 q 341 995 394 1015 q 252 940 288 974 q 196 858 215 905 q 177 759 177 811 q 194 660 177 710 q 248 558 211 610 q 166 508 203 538 q 102 443 129 479 q 60 365 75 407 q 44 276 44 323 q 71 157 44 210 q 142 66 98 103 q 241 9 185 28 q 355 -11 297 -11 q 532 19 450 -11 q 680 104 613 50 l 749 33 q 767 17 758 23 q 784 7 775 10 q 803 1 793 3 q 826 0 813 0 l 994 0 l 784 218 q 858 372 832 288 q 884 547 883 455 l 776 547 q 751 537 760 547 q 741 511 742 527 q 723 413 737 461 q 686 320 709 364 l 419 597 q 381 641 397 621 q 356 681 365 662 q 341 720 346 701 q 337 760 337 740 q 345 808 337 785 q 369 848 353 831 q 408 875 385 865 q 460 885 431 885 q 503 877 485 885 q 536 858 522 870 q 560 830 550 846 q 576 795 569 813 q 591 775 581 781 q 612 768 600 768 q 616 768 614 768 q 621 769 619 768 l 730 792 q 707 875 726 835 q 652 947 687 915 q 570 997 618 978 q 460 1015 522 1015 m 219 290 q 244 388 219 342 q 325 469 269 433 l 589 198 q 497 145 547 164 q 385 126 447 126 q 321 137 351 126 q 268 170 291 149 q 232 222 245 191 q 219 290 219 252 "},"'":{"ha":331,"x_min":91,"x_max":240,"o":"m 240 1004 l 91 1004 l 91 804 l 106 696 q 125 649 110 665 q 165 633 140 633 q 207 649 194 633 q 224 696 219 665 l 240 804 l 240 1004 "},"(":{"ha":417,"x_min":74,"x_max":365,"o":"m 222 435 q 257 717 222 578 q 356 977 292 856 q 365 1008 365 995 q 358 1030 365 1022 q 341 1044 351 1039 l 265 1090 q 177 932 213 1011 q 118 771 141 852 q 84 606 95 690 q 74 435 74 522 q 84 265 74 349 q 118 101 95 182 q 177 -60 141 19 q 265 -219 213 -140 l 341 -173 q 358 -159 351 -167 q 365 -136 365 -150 q 363 -122 365 -130 q 356 -106 361 -115 q 257 154 292 16 q 222 435 222 292 "},")":{"ha":417,"x_min":52,"x_max":343,"o":"m 194 435 q 160 154 194 292 q 60 -106 125 16 q 54 -122 56 -115 q 52 -136 52 -130 q 59 -159 52 -150 q 76 -173 66 -167 l 152 -219 q 240 -60 203 -140 q 299 101 276 19 q 332 265 322 182 q 343 435 343 349 q 332 606 343 522 q 299 771 322 690 q 240 932 276 852 q 152 1090 203 1011 l 76 1044 q 59 1030 66 1039 q 52 1008 52 1022 q 61 977 52 995 q 160 717 125 856 q 194 435 194 578 "},"*":{"ha":556,"x_min":53,"x_max":501,"o":"m 236 581 l 318 581 l 318 709 q 309 760 318 738 q 328 743 317 751 q 351 728 338 735 l 461 663 l 501 733 l 391 797 q 341 817 365 813 q 366 824 354 819 q 391 837 378 829 l 501 900 l 460 969 l 351 906 q 328 890 338 898 q 310 872 317 882 q 316 898 315 884 q 318 926 318 911 l 318 1053 l 236 1053 l 236 924 q 238 897 236 910 q 244 872 240 884 q 226 890 237 882 q 203 906 215 898 l 93 971 l 53 901 l 163 837 q 188 824 176 829 q 213 817 200 818 q 188 810 200 815 q 163 797 176 805 l 53 733 l 94 664 l 203 728 q 226 743 215 735 q 244 760 236 751 q 238 735 240 749 q 236 708 236 722 l 236 581 "},"+":{"ha":806,"x_min":63,"x_max":741,"o":"m 471 815 l 332 815 l 332 530 l 63 530 l 63 403 l 332 403 l 332 117 l 471 117 l 471 403 l 741 403 l 741 530 l 471 530 l 471 815 "},",":{"ha":313,"x_min":56,"x_max":260,"o":"m 56 106 q 63 65 56 83 q 83 32 70 46 q 114 10 96 18 q 153 2 132 2 q 140 -37 149 -19 q 119 -71 131 -56 q 97 -99 108 -87 q 78 -119 86 -111 q 69 -132 73 -125 q 65 -144 65 -139 q 78 -170 65 -160 l 108 -197 q 173 -133 144 -168 q 221 -62 201 -99 q 250 12 240 -25 q 260 82 260 49 q 254 127 260 106 q 235 164 248 148 q 202 190 222 181 q 156 199 183 199 q 115 192 134 199 q 83 172 97 185 q 63 142 70 159 q 56 106 56 125 "},"-":{"ha":499,"x_min":69,"x_max":429,"o":"m 69 491 l 69 348 l 429 348 l 429 491 l 69 491 "},".":{"ha":313,"x_min":51,"x_max":261,"o":"m 51 94 q 59 53 51 72 q 81 20 67 34 q 115 -2 95 6 q 156 -10 134 -10 q 197 -2 178 -10 q 231 20 217 6 q 253 53 244 34 q 261 94 261 72 q 253 135 261 116 q 231 169 244 155 q 197 191 217 183 q 156 199 178 199 q 115 191 134 199 q 81 169 95 183 q 59 135 67 155 q 51 94 51 116 "},"/":{"ha":538,"x_min":-12,"x_max":553,"o":"m 151 -2 l 553 1032 l 481 1032 q 427 1016 449 1032 q 393 972 405 1001 l -12 -66 l 60 -66 q 87 -62 73 -66 q 113 -50 101 -58 q 135 -30 126 -42 q 151 -2 145 -18 "},":":{"ha":368,"x_min":78,"x_max":289,"o":"m 78 94 q 86 53 78 72 q 109 20 94 34 q 142 -2 123 6 q 184 -10 162 -10 q 225 -2 206 -10 q 258 20 244 6 q 281 53 272 34 q 289 94 289 72 q 281 135 289 116 q 258 169 272 155 q 225 191 244 183 q 184 199 206 199 q 142 191 162 199 q 109 169 123 183 q 86 135 94 155 q 78 94 78 116 m 78 590 q 86 548 78 567 q 109 515 94 529 q 142 493 123 501 q 184 485 162 485 q 225 493 206 485 q 258 515 244 501 q 281 548 272 529 q 289 590 289 567 q 281 631 289 611 q 258 664 272 650 q 225 686 244 678 q 184 694 206 694 q 142 686 162 694 q 109 664 123 678 q 86 631 94 650 q 78 590 78 611 "},";":{"ha":368,"x_min":78,"x_max":289,"o":"m 83 106 q 91 65 83 83 q 111 32 98 46 q 142 10 124 18 q 181 2 160 2 q 168 -37 177 -19 q 147 -71 158 -56 q 125 -99 136 -87 q 106 -119 114 -111 q 97 -132 101 -125 q 93 -144 93 -139 q 106 -170 93 -160 l 135 -197 q 201 -133 172 -168 q 249 -62 229 -99 q 278 12 268 -25 q 288 82 288 49 q 282 127 288 106 q 263 164 276 148 q 230 190 249 181 q 184 199 210 199 q 143 192 162 199 q 111 172 124 185 q 91 142 98 159 q 83 106 83 125 m 78 590 q 86 548 78 567 q 109 515 94 529 q 142 493 123 501 q 184 485 162 485 q 225 493 206 485 q 258 515 244 501 q 281 548 272 529 q 289 590 289 567 q 281 631 289 611 q 258 664 272 650 q 225 686 244 678 q 184 694 206 694 q 142 686 162 694 q 109 664 123 678 q 86 631 94 650 q 78 590 78 611 "},"<":{"ha":806,"x_min":97,"x_max":647,"o":"m 97 503 l 97 433 l 647 146 l 647 268 q 640 293 647 282 q 617 313 633 305 l 365 443 q 331 457 349 451 q 293 468 313 463 q 331 479 313 473 q 365 493 349 485 l 617 622 q 640 642 633 631 q 647 667 647 653 l 647 790 l 97 503 "},"=":{"ha":806,"x_min":94,"x_max":710,"o":"m 94 408 l 94 281 l 710 281 l 710 408 l 94 408 m 94 653 l 94 526 l 710 526 l 710 653 l 94 653 "},">":{"ha":806,"x_min":159,"x_max":709,"o":"m 159 146 l 709 433 l 709 503 l 159 790 l 159 667 q 166 642 159 653 q 189 622 173 631 l 441 493 q 475 479 457 485 q 513 468 492 473 q 441 443 472 458 l 189 313 q 166 293 173 305 q 159 268 159 282 l 159 146 "},"?":{"ha":584,"x_min":26,"x_max":561,"o":"m 26 913 l 71 842 q 107 821 82 821 q 131 830 117 821 q 163 849 144 838 q 209 868 182 860 q 276 877 237 877 q 327 869 303 877 q 367 848 350 862 q 393 814 383 833 q 402 769 402 794 q 387 703 402 731 q 349 654 372 676 q 299 613 326 632 q 250 575 273 594 q 212 532 227 555 q 197 479 197 510 q 197 473 197 476 q 197 467 197 471 l 209 354 l 326 354 l 342 456 q 364 495 346 478 q 406 532 381 513 q 457 571 430 550 q 507 620 484 592 q 546 687 531 649 q 561 778 561 726 q 542 876 561 833 q 487 951 522 920 q 402 999 451 982 q 292 1015 352 1015 q 209 1007 247 1015 q 138 985 171 999 q 77 953 106 972 q 26 913 49 934 m 157 94 q 165 53 157 72 q 187 20 173 34 q 221 -2 201 6 q 263 -10 240 -10 q 303 -2 284 -10 q 337 20 323 6 q 359 53 351 34 q 367 94 367 72 q 359 135 367 116 q 337 169 351 155 q 303 191 323 183 q 263 199 284 199 q 221 191 240 199 q 187 169 201 183 q 165 135 173 155 q 157 94 157 116 "},"@":{"ha":1142,"x_min":47,"x_max":1101,"o":"m 810 128 q 925 155 872 128 q 1018 231 978 183 q 1079 343 1057 278 q 1101 483 1101 408 q 1059 682 1101 594 q 948 832 1017 771 q 787 927 878 894 q 598 960 697 960 q 449 939 520 960 q 317 882 378 919 q 206 794 256 845 q 120 681 156 742 q 66 549 85 619 q 47 405 47 479 q 91 166 47 272 q 213 -14 135 60 q 398 -128 291 -88 q 631 -167 505 -167 q 851 -137 754 -167 q 1019 -60 947 -108 l 996 1 q 967 24 988 24 q 944 16 958 24 q 887 -11 919 1 q 816 -34 855 -24 q 731 -50 777 -44 q 631 -56 684 -56 q 450 -27 533 -56 q 304 60 366 2 q 207 205 242 118 q 172 405 172 291 q 204 580 172 499 q 293 721 236 661 q 429 815 351 781 q 598 849 507 849 q 751 826 681 849 q 872 757 822 803 q 950 642 922 710 q 978 483 978 573 q 967 383 978 428 q 936 303 956 337 q 891 252 917 270 q 835 233 865 233 q 808 236 821 233 q 787 248 796 240 q 773 270 778 256 q 768 305 768 284 q 779 379 768 335 l 846 637 q 772 660 810 652 q 681 669 734 669 q 568 655 619 669 q 476 616 517 640 q 405 558 435 591 q 355 487 375 525 q 325 409 335 449 q 315 328 315 368 q 325 249 315 285 q 358 186 336 213 q 412 144 380 159 q 488 128 444 128 q 587 150 541 128 q 674 222 633 172 q 725 150 688 172 q 810 128 763 128 m 522 239 q 466 264 485 239 q 447 333 447 288 q 463 418 447 377 q 507 492 479 460 q 572 542 534 524 q 652 561 609 561 q 698 557 676 561 l 647 361 q 624 302 638 326 q 594 264 610 278 q 559 244 577 250 q 522 239 540 239 "},"A":{"ha":986,"x_min":4,"x_max":984,"o":"m 984 0 l 590 1004 l 399 1004 l 4 0 l 149 0 q 189 13 173 0 q 211 42 206 26 l 286 247 l 702 247 l 777 42 q 800 12 784 24 q 840 0 815 0 l 984 0 m 334 379 l 456 712 q 475 765 465 735 q 494 831 484 796 q 514 766 503 796 q 532 713 524 735 l 654 379 l 334 379 "},"B":{"ha":905,"x_min":101,"x_max":846,"o":"m 101 0 l 481 0 q 636 22 568 0 q 751 84 704 44 q 822 177 797 123 q 846 295 846 231 q 639 519 846 472 q 719 558 685 535 q 775 609 753 581 q 807 669 797 637 q 817 737 817 701 q 797 848 817 799 q 731 932 776 897 q 616 985 686 967 q 448 1004 547 1004 l 101 1004 l 101 0 m 288 440 l 477 440 q 561 431 526 440 q 618 402 596 421 q 651 358 640 384 q 661 299 661 332 q 652 240 661 268 q 621 192 642 213 q 565 158 600 171 q 478 146 530 146 l 288 146 l 288 440 m 288 569 l 288 860 l 448 860 q 587 826 542 860 q 631 715 631 793 q 582 604 631 639 q 438 569 533 569 l 288 569 "},"C":{"ha":931,"x_min":43,"x_max":897,"o":"m 792 237 q 775 233 783 237 q 760 223 767 229 q 714 188 738 202 q 665 165 691 174 q 608 151 639 156 q 539 147 577 147 q 419 171 475 147 q 323 240 364 195 q 258 351 282 285 q 234 502 234 417 q 258 650 234 584 q 325 761 282 715 q 427 832 367 807 q 557 856 486 856 q 657 844 617 856 q 722 817 696 831 q 764 790 747 802 q 797 777 781 777 q 820 783 812 777 q 835 798 829 790 l 897 885 q 754 980 838 944 q 558 1015 670 1015 q 349 977 444 1015 q 186 872 254 940 q 81 709 118 803 q 43 502 43 615 q 77 296 43 390 q 174 133 110 201 q 326 27 237 65 q 527 -11 415 -11 q 741 29 652 -11 q 892 145 831 69 l 818 225 q 792 237 807 237 "},"D":{"ha":1038,"x_min":101,"x_max":993,"o":"m 993 502 q 956 705 993 613 q 853 864 919 797 q 692 967 786 930 q 485 1004 599 1004 l 101 1004 l 101 0 l 485 0 q 692 37 599 0 q 853 140 786 74 q 956 299 919 207 q 993 502 993 392 m 802 502 q 780 354 802 419 q 717 243 758 288 q 617 173 676 197 q 485 149 558 149 l 290 149 l 290 856 l 485 856 q 617 831 558 856 q 717 761 676 807 q 780 650 758 716 q 802 502 802 585 "},"E":{"ha":795,"x_min":101,"x_max":735,"o":"m 735 1004 l 101 1004 l 101 0 l 735 0 l 735 149 l 290 149 l 290 433 l 640 433 l 640 577 l 290 577 l 290 856 l 735 856 l 735 1004 "},"F":{"ha":780,"x_min":101,"x_max":735,"o":"m 735 1004 l 101 1004 l 101 0 l 290 0 l 290 409 l 665 409 l 665 558 l 290 558 l 290 856 l 735 856 l 735 1004 "},"G":{"ha":1004,"x_min":43,"x_max":931,"o":"m 563 138 q 431 162 491 138 q 326 233 370 187 q 258 348 283 280 q 234 502 234 415 q 257 648 234 583 q 322 760 280 713 q 425 831 365 806 q 559 856 485 856 q 640 850 605 856 q 703 834 675 844 q 755 811 731 824 q 800 785 778 798 q 834 774 817 774 q 876 799 860 774 l 931 884 q 778 979 868 942 q 565 1015 688 1015 q 349 978 445 1015 q 184 872 252 940 q 80 710 117 804 q 43 502 43 615 q 81 296 43 390 q 186 133 119 201 q 346 27 253 65 q 548 -11 438 -11 q 663 -5 610 -11 q 764 15 717 2 q 852 49 810 28 q 931 97 893 69 l 931 503 l 597 503 l 597 398 q 608 373 597 383 q 636 363 618 363 l 762 363 l 762 181 q 673 149 719 160 q 563 138 626 138 "},"H":{"ha":1050,"x_min":101,"x_max":949,"o":"m 949 0 l 949 1004 l 760 1004 l 760 572 l 290 572 l 290 1004 l 101 1004 l 101 0 l 290 0 l 290 439 l 760 439 l 760 0 l 949 0 "},"I":{"ha":436,"x_min":124,"x_max":312,"o":"m 312 0 l 312 1004 l 124 1004 l 124 0 l 312 0 "},"J":{"ha":607,"x_min":26,"x_max":506,"o":"m 506 357 l 506 1004 l 319 1004 l 319 353 q 308 256 319 296 q 277 191 298 216 q 226 155 257 166 q 156 143 196 143 q 108 148 127 143 q 77 153 89 153 q 48 143 58 153 q 36 119 38 134 l 26 8 q 102 -7 66 -2 q 176 -11 138 -11 q 319 15 258 -11 q 423 88 381 40 q 485 204 464 136 q 506 357 506 272 "},"K":{"ha":969,"x_min":108,"x_max":960,"o":"m 294 583 l 294 1005 l 108 1005 l 108 0 l 294 0 l 294 442 l 353 442 q 403 434 385 442 q 434 408 420 426 l 718 37 q 745 9 729 19 q 795 0 762 0 l 960 0 l 612 470 q 576 509 594 494 q 535 533 558 524 q 566 554 551 541 q 597 587 581 567 l 935 1004 l 774 1004 q 725 995 744 1004 q 689 965 706 987 l 412 614 q 382 591 399 598 q 338 583 365 583 l 294 583 "},"L":{"ha":718,"x_min":101,"x_max":690,"o":"m 288 154 l 288 1004 l 101 1004 l 101 0 l 690 0 l 690 154 l 288 154 "},"M":{"ha":1292,"x_min":101,"x_max":1190,"o":"m 606 417 l 606 417 l 306 974 q 294 991 300 985 q 280 1000 288 997 q 264 1003 273 1003 q 242 1004 255 1004 l 101 1004 l 101 0 l 266 0 l 266 649 q 265 689 266 667 q 261 734 264 711 l 569 163 q 596 132 579 143 q 635 122 613 122 l 660 122 q 699 132 683 122 q 726 163 716 143 l 1030 732 q 1027 688 1028 710 q 1026 649 1026 667 l 1026 0 l 1190 0 l 1190 1004 l 1049 1004 q 1028 1003 1037 1004 q 1011 1000 1019 1003 q 998 991 1004 997 q 987 974 992 985 l 690 418 q 667 372 678 396 q 647 322 657 347 q 627 370 638 347 q 606 417 617 394 "},"N":{"ha":1050,"x_min":101,"x_max":949,"o":"m 199 1004 l 199 1004 l 101 1004 l 101 0 l 266 0 l 266 617 q 265 657 266 635 q 262 701 264 678 l 787 32 q 815 7 801 14 q 852 0 830 0 l 949 0 l 949 1004 l 784 1004 l 784 394 q 785 350 784 374 q 789 303 786 327 l 262 974 q 248 990 254 984 q 235 999 242 996 q 220 1003 228 1002 q 199 1004 212 1004 "},"O":{"ha":1110,"x_min":47,"x_max":1065,"o":"m 1065 502 q 1028 707 1065 613 q 924 869 991 801 q 764 976 858 938 q 556 1015 670 1015 q 348 977 442 1015 q 187 869 254 938 q 83 707 120 801 q 47 502 47 613 q 83 298 47 392 q 187 135 120 203 q 348 27 254 66 q 556 -11 442 -11 q 764 27 670 -11 q 924 135 858 66 q 1028 298 991 203 q 1065 502 1065 392 m 873 502 q 851 354 873 419 q 788 243 829 288 q 689 173 747 197 q 556 149 630 149 q 424 173 483 149 q 323 243 365 197 q 260 354 282 288 q 238 502 238 419 q 260 650 238 585 q 323 762 282 716 q 424 832 365 808 q 556 856 483 856 q 689 832 630 856 q 788 762 747 808 q 851 650 829 716 q 873 502 873 585 "},"P":{"ha":868,"x_min":108,"x_max":824,"o":"m 294 353 l 435 353 q 606 378 533 353 q 727 446 678 402 q 800 550 776 490 q 824 684 824 611 q 801 813 824 754 q 731 915 778 872 q 609 981 683 957 q 435 1004 535 1004 l 108 1004 l 108 0 l 294 0 l 294 353 m 294 499 l 294 860 l 435 860 q 524 848 486 860 q 588 813 563 835 q 625 757 613 790 q 638 684 638 724 q 625 607 638 642 q 588 549 613 573 q 524 512 563 525 q 435 499 486 499 l 294 499 "},"Q":{"ha":1110,"x_min":47,"x_max":1117,"o":"m 1065 502 q 1028 707 1065 613 q 924 869 991 801 q 764 976 858 938 q 556 1015 670 1015 q 348 977 442 1015 q 187 869 254 938 q 83 707 120 801 q 47 502 47 613 q 83 298 47 392 q 187 135 120 203 q 348 27 254 66 q 556 -11 442 -11 q 634 -6 597 -11 q 706 8 671 -1 l 853 -154 q 902 -187 876 -178 q 963 -197 929 -197 l 1117 -197 l 862 81 q 947 160 910 115 q 1011 258 985 205 q 1051 373 1037 312 q 1065 502 1065 435 m 873 502 q 851 354 873 419 q 788 243 829 288 q 689 173 747 197 q 556 149 630 149 q 424 173 483 149 q 323 243 365 197 q 260 354 282 288 q 238 502 238 419 q 260 650 238 585 q 323 762 282 716 q 424 832 365 808 q 556 856 483 856 q 689 832 630 856 q 788 762 747 808 q 851 650 829 716 q 873 502 873 585 "},"R":{"ha":910,"x_min":108,"x_max":892,"o":"m 294 392 l 374 392 q 416 385 402 392 q 442 359 431 377 l 653 38 q 682 10 665 19 q 724 0 699 0 l 892 0 l 640 371 q 579 428 615 408 q 673 473 632 445 q 743 538 715 501 q 786 619 771 574 q 801 715 801 665 q 779 832 801 779 q 710 924 757 885 q 590 983 663 962 q 414 1004 517 1004 l 108 1004 l 108 0 l 294 0 l 294 392 m 294 526 l 294 860 l 414 860 q 568 819 517 860 q 618 701 618 778 q 606 631 618 663 q 568 576 593 599 q 503 540 542 553 q 411 526 464 526 l 294 526 "},"S":{"ha":745,"x_min":25,"x_max":703,"o":"m 640 822 l 685 910 q 558 988 633 960 q 394 1015 483 1015 q 254 991 315 1015 q 151 926 193 967 q 87 834 109 886 q 65 727 65 782 q 85 611 65 658 q 138 533 105 565 q 212 483 170 502 q 297 449 253 463 q 381 424 340 435 q 456 395 423 412 q 508 353 488 378 q 528 288 528 328 q 484 180 528 217 q 360 142 440 142 q 271 156 308 142 q 207 188 234 170 q 159 219 179 205 q 122 233 139 233 q 98 227 108 233 q 79 210 87 220 l 25 121 q 91 67 54 91 q 171 25 128 42 q 260 -2 214 8 q 355 -11 307 -11 q 503 14 438 -11 q 612 84 567 40 q 680 187 657 128 q 703 315 703 247 q 684 421 703 377 q 631 495 664 465 q 557 545 599 525 q 472 580 515 565 q 387 608 428 594 q 313 638 345 621 q 260 678 280 654 q 240 737 240 701 q 250 788 240 765 q 280 828 260 811 q 328 854 299 844 q 396 863 357 863 q 470 852 439 863 q 526 828 502 842 q 567 805 549 815 q 598 794 584 794 q 622 800 612 794 q 640 822 632 806 "},"T":{"ha":826,"x_min":17,"x_max":809,"o":"m 809 1004 l 17 1004 l 17 851 l 320 851 l 320 0 l 507 0 l 507 851 l 809 851 l 809 1004 "},"U":{"ha":1011,"x_min":90,"x_max":922,"o":"m 506 151 q 409 169 451 151 q 337 220 366 187 q 292 299 308 253 q 276 403 276 346 l 276 1004 l 90 1004 l 90 403 q 118 237 90 313 q 201 106 147 161 q 332 20 255 51 q 506 -11 409 -11 q 679 20 602 -11 q 810 106 756 51 q 893 237 865 161 q 922 403 922 313 l 922 1004 l 735 1004 l 735 403 q 720 299 735 345 q 675 219 704 252 q 602 169 645 187 q 506 151 560 151 "},"V":{"ha":986,"x_min":3,"x_max":983,"o":"m 3 1004 l 408 0 l 577 0 l 983 1004 l 832 1004 q 792 991 808 1004 q 770 962 776 978 l 535 349 q 495 208 511 288 q 475 284 485 248 q 452 349 464 319 l 216 962 q 193 992 208 981 q 153 1004 178 1004 l 3 1004 "},"W":{"ha":1453,"x_min":8,"x_max":1445,"o":"m 8 1004 l 320 0 l 489 0 l 710 686 q 719 715 715 699 q 728 747 724 730 q 736 715 732 730 q 745 686 741 699 l 965 0 l 1133 0 l 1445 1004 l 1299 1004 q 1258 992 1275 1004 q 1237 962 1242 979 l 1066 361 q 1055 315 1060 340 q 1045 263 1050 290 q 1019 361 1034 317 l 823 962 q 801 993 817 981 q 760 1004 785 1004 l 706 1004 q 666 991 682 1004 q 644 962 649 978 l 447 361 q 432 313 439 339 q 420 258 426 287 q 410 313 415 287 q 399 361 405 339 l 228 962 q 206 993 222 981 q 165 1004 190 1004 l 8 1004 "},"X":{"ha":943,"x_min":8,"x_max":935,"o":"m 342 517 l 8 0 l 183 0 q 211 10 200 0 q 230 32 222 20 l 453 388 q 460 401 456 394 q 466 417 463 408 l 699 32 q 718 10 706 19 q 748 0 729 0 l 935 0 l 602 524 l 926 1004 l 747 1004 q 707 978 722 1004 l 498 649 q 488 631 492 640 q 481 613 484 622 l 252 982 q 236 999 245 994 q 208 1004 228 1004 l 22 1004 l 342 517 "},"Y":{"ha":909,"x_min":-5,"x_max":913,"o":"m 548 390 l 913 1004 l 748 1004 q 709 991 724 1004 q 686 963 694 978 l 503 627 q 476 571 488 598 q 456 518 465 544 q 434 570 446 544 q 406 627 422 597 l 222 963 q 198 992 213 981 q 160 1004 184 1004 l -5 1004 l 361 390 l 361 0 l 548 0 l 548 390 "},"Z":{"ha":857,"x_min":43,"x_max":819,"o":"m 819 1004 l 76 1004 l 76 856 l 577 856 l 60 124 q 48 100 53 113 q 43 74 43 88 l 43 0 l 806 0 l 806 149 l 285 149 l 801 877 q 819 935 819 903 l 819 1004 "},"[":{"ha":417,"x_min":80,"x_max":365,"o":"m 80 -214 l 365 -214 l 365 -147 q 352 -116 365 -128 q 319 -103 339 -103 l 223 -103 l 223 963 l 319 963 q 352 976 339 963 q 365 1007 365 989 l 365 1074 l 80 1074 l 80 -214 "},"\\":{"ha":542,"x_min":-19,"x_max":547,"o":"m -19 1032 l 383 -2 q 421 -50 395 -34 q 474 -66 447 -66 l 547 -66 l 142 972 q 107 1016 130 1001 q 54 1032 85 1032 l -19 1032 "},"]":{"ha":417,"x_min":52,"x_max":337,"o":"m 52 -214 l 337 -214 l 337 1074 l 52 1074 l 52 1007 q 65 976 52 989 q 98 963 78 963 l 194 963 l 194 -103 l 98 -103 q 65 -116 78 -103 q 52 -147 52 -128 l 52 -214 "},"^":{"ha":806,"x_min":85,"x_max":714,"o":"m 714 540 l 455 1004 l 344 1004 l 85 540 l 217 540 q 245 548 235 540 q 262 568 256 556 l 370 769 q 388 805 381 788 q 401 841 396 823 q 416 806 407 823 q 435 769 424 788 l 545 568 q 562 548 552 556 q 588 540 572 540 l 714 540 "},"_":{"ha":547,"x_min":0,"x_max":547,"o":"m 547 -93 l 0 -93 l 0 -204 l 547 -204 l 547 -93 "},"`":{"ha":443,"x_min":-1,"x_max":325,"o":"m 160 1015 l -1 1015 l 171 834 q 195 815 183 820 q 227 810 208 810 l 325 810 l 226 978 q 202 1006 215 997 q 160 1015 188 1015 "},"a":{"ha":727,"x_min":56,"x_max":650,"o":"m 650 0 l 650 450 q 632 561 650 510 q 581 648 615 612 q 498 705 547 685 q 386 726 449 726 q 90 613 213 726 l 121 558 q 141 536 128 545 q 171 527 153 527 q 209 537 192 527 q 247 559 226 547 q 295 581 267 571 q 365 590 323 590 q 452 556 422 590 q 483 450 483 522 l 483 408 q 279 385 361 406 q 148 332 197 364 q 77 261 99 301 q 56 182 56 222 q 72 98 56 134 q 114 38 87 62 q 180 1 142 13 q 263 -11 218 -11 q 333 -5 301 -11 q 392 14 364 1 q 445 45 419 26 q 499 88 472 63 l 514 37 q 535 7 521 15 q 573 0 549 0 l 650 0 m 317 107 q 247 126 274 107 q 220 191 220 146 q 233 233 220 214 q 276 267 246 253 q 357 291 307 282 q 483 304 408 301 l 483 184 q 445 150 464 165 q 407 126 427 136 q 365 112 388 117 q 317 107 343 107 "},"b":{"ha":792,"x_min":94,"x_max":749,"o":"m 94 0 l 207 0 q 234 8 224 0 q 249 33 244 15 l 256 81 q 293 43 274 60 q 334 15 312 26 q 383 -4 356 3 q 443 -10 410 -10 q 570 18 513 -10 q 666 96 626 46 q 728 214 706 146 q 749 362 749 282 q 730 517 749 449 q 676 630 711 584 q 593 700 641 676 q 486 724 544 724 q 361 697 415 724 q 265 625 308 670 l 265 1032 l 94 1032 l 94 0 m 427 590 q 488 578 461 590 q 533 538 515 565 q 562 468 552 511 q 572 362 572 424 q 560 255 572 300 q 527 179 549 209 q 474 135 505 149 q 403 120 442 120 q 329 134 363 120 q 265 185 294 149 l 265 504 q 336 568 298 545 q 427 590 374 590 "},"c":{"ha":663,"x_min":44,"x_max":644,"o":"m 592 562 l 638 624 q 530 698 590 672 q 390 724 469 724 q 241 696 306 724 q 133 619 176 668 q 66 503 89 570 q 44 358 44 436 q 69 202 44 270 q 138 86 94 133 q 240 14 181 39 q 364 -10 298 -10 q 440 -5 401 -10 q 514 14 478 1 q 583 50 549 28 q 644 106 616 73 l 595 169 q 564 185 585 185 q 535 175 548 185 q 505 152 522 165 q 462 130 488 140 q 396 120 437 120 q 322 136 355 120 q 267 182 290 151 q 232 256 244 212 q 219 358 219 301 q 231 456 219 413 q 264 530 242 499 q 321 577 287 560 q 400 593 355 593 q 459 585 435 593 q 501 567 483 577 q 531 549 518 557 q 556 541 543 541 q 577 547 570 541 q 592 562 585 552 "},"d":{"ha":792,"x_min":42,"x_max":698,"o":"m 593 0 l 698 0 l 698 1032 l 526 1032 l 526 656 q 451 707 493 688 q 349 726 408 726 q 222 698 278 726 q 126 619 166 669 q 64 501 85 569 q 42 354 42 433 q 61 199 42 267 q 116 84 81 131 q 199 14 151 38 q 306 -10 248 -10 q 376 -2 344 -10 q 436 20 408 6 q 489 55 465 35 q 535 100 513 75 l 549 31 q 593 0 560 0 m 365 126 q 304 138 331 126 q 258 177 277 150 q 230 248 240 205 q 219 354 219 292 q 231 461 219 416 q 265 536 243 507 q 318 581 287 566 q 389 595 350 595 q 463 581 428 595 q 526 531 497 566 l 526 211 q 456 148 493 170 q 365 126 418 126 "},"e":{"ha":742,"x_min":44,"x_max":694,"o":"m 386 724 q 243 696 306 724 q 135 620 179 668 q 67 509 91 573 q 44 372 44 444 q 71 207 44 278 q 145 87 98 135 q 256 14 192 39 q 394 -10 320 -10 q 472 -5 432 -10 q 550 14 512 1 q 624 50 589 28 q 688 106 660 73 l 638 169 q 625 181 633 176 q 607 185 617 185 q 574 175 591 185 q 534 153 557 165 q 482 132 512 142 q 410 122 451 122 q 274 174 325 122 q 215 335 222 225 l 655 335 q 674 338 667 335 q 686 348 682 341 q 693 368 691 356 q 694 401 694 381 q 672 538 694 478 q 608 639 649 598 q 510 702 567 681 q 386 724 453 724 m 390 601 q 456 588 428 601 q 503 553 485 575 q 531 501 522 531 q 540 438 540 472 l 218 438 q 272 558 230 516 q 390 601 315 601 "},"f":{"ha":487,"x_min":16,"x_max":480,"o":"m 122 0 l 294 0 l 294 584 l 474 584 l 474 706 l 288 706 l 288 753 q 297 820 288 793 q 322 863 306 847 q 363 886 339 879 q 417 892 387 892 q 458 897 440 892 q 476 922 475 902 l 480 1008 q 388 1022 438 1022 q 277 1003 326 1022 q 193 951 228 985 q 141 869 159 917 q 122 759 122 820 l 122 706 l 16 706 l 16 636 q 28 607 16 617 q 60 593 40 597 l 122 583 l 122 0 "},"g":{"ha":719,"x_min":22,"x_max":703,"o":"m 338 725 q 225 709 277 725 q 136 663 174 693 q 77 590 98 633 q 56 494 56 547 q 86 381 56 429 q 172 303 117 332 q 131 276 148 291 q 102 244 113 261 q 85 211 90 228 q 79 178 79 194 q 95 115 79 139 q 138 76 111 90 q 53 22 83 56 q 22 -62 22 -12 q 42 -133 22 -99 q 100 -193 61 -167 q 199 -235 140 -219 q 340 -251 259 -251 q 486 -230 422 -251 q 594 -174 550 -208 q 661 -94 638 -139 q 685 -3 685 -50 q 665 80 685 48 q 613 131 645 113 q 540 159 581 150 q 456 171 499 167 q 372 175 413 174 q 298 181 331 176 q 246 195 266 185 q 226 226 226 205 q 260 272 226 251 q 338 264 298 264 q 449 280 398 264 q 537 326 500 297 q 595 399 574 356 q 617 494 617 442 q 613 537 617 517 q 602 575 609 557 l 666 587 q 694 599 686 590 q 703 624 703 608 l 703 688 l 498 688 q 424 716 465 706 q 338 725 384 725 m 526 -32 q 516 -70 526 -53 q 483 -101 506 -88 q 426 -121 460 -114 q 343 -128 391 -128 q 263 -122 296 -128 q 210 -103 231 -115 q 180 -75 190 -92 q 171 -40 171 -59 q 189 10 171 -12 q 235 48 206 32 q 302 42 267 44 q 368 39 336 40 q 430 33 401 37 q 480 23 458 30 q 514 2 501 15 q 526 -32 526 -11 m 338 374 q 283 382 307 374 q 243 407 259 391 q 220 444 228 422 q 212 490 212 465 q 243 574 212 543 q 338 605 275 605 q 433 574 401 605 q 465 490 465 543 q 457 443 465 465 q 433 406 449 422 q 394 382 417 391 q 338 374 370 374 "},"h":{"ha":790,"x_min":92,"x_max":713,"o":"m 92 0 l 263 0 l 263 515 q 337 570 298 550 q 420 590 376 590 q 511 555 481 590 q 541 453 541 519 l 541 0 l 713 0 l 713 453 q 697 563 713 513 q 651 648 681 613 q 576 704 621 684 q 472 724 531 724 q 355 699 405 724 q 263 635 305 675 l 263 1032 l 92 1032 l 92 0 "},"i":{"ha":376,"x_min":81,"x_max":300,"o":"m 274 713 l 103 713 l 103 0 l 274 0 l 274 713 m 300 920 q 291 963 300 943 q 267 998 282 983 q 232 1021 252 1013 q 189 1030 212 1030 q 147 1021 167 1030 q 113 998 127 1013 q 89 963 98 983 q 81 920 81 943 q 89 878 81 898 q 113 844 98 859 q 147 821 127 830 q 189 813 167 813 q 232 821 212 813 q 267 844 252 830 q 291 878 282 859 q 300 920 300 898 "},"j":{"ha":374,"x_min":-40,"x_max":300,"o":"m 274 713 l 103 713 l 103 -24 q 98 -71 103 -52 q 83 -101 94 -90 q 55 -118 72 -112 q 11 -123 37 -123 q -24 -127 -15 -123 q -35 -144 -33 -131 l -40 -237 q 2 -247 -19 -244 q 47 -250 23 -250 q 153 -232 110 -250 q 223 -184 197 -215 q 262 -112 250 -153 q 274 -24 274 -71 l 274 713 m 300 920 q 291 963 300 943 q 267 998 282 983 q 232 1021 252 1013 q 189 1030 212 1030 q 147 1021 167 1030 q 113 998 127 1013 q 89 963 98 983 q 81 920 81 943 q 89 878 81 898 q 113 844 98 859 q 147 821 127 830 q 189 813 167 813 q 232 821 212 813 q 267 844 252 830 q 291 878 282 859 q 300 920 300 898 "},"k":{"ha":766,"x_min":94,"x_max":751,"o":"m 265 1032 l 94 1032 l 94 0 l 265 0 l 265 326 l 304 326 q 335 322 325 326 q 356 301 346 317 l 538 31 q 563 7 549 14 q 597 0 576 0 l 751 0 l 514 346 q 492 376 503 362 q 466 400 481 390 q 493 421 481 409 q 517 448 506 433 l 739 713 l 582 713 q 547 705 560 713 q 522 683 534 697 l 345 464 q 324 446 334 451 q 297 441 315 441 l 265 441 l 265 1032 "},"l":{"ha":376,"x_min":103,"x_max":274,"o":"m 274 1032 l 103 1032 l 103 0 l 274 0 l 274 1032 "},"m":{"ha":1169,"x_min":92,"x_max":1092,"o":"m 92 0 l 263 0 l 263 522 q 323 572 291 553 q 392 590 356 590 q 477 558 449 590 q 506 453 506 525 l 506 0 l 678 0 l 678 453 q 688 513 678 487 q 715 555 698 538 q 755 581 732 572 q 803 590 777 590 q 891 556 861 590 q 921 453 921 522 l 921 0 l 1092 0 l 1092 453 q 1076 568 1092 518 q 1028 653 1060 618 q 951 706 997 688 q 847 724 906 724 q 779 716 813 724 q 715 692 745 708 q 660 651 685 676 q 619 590 635 626 q 554 687 597 651 q 443 724 510 724 q 384 716 411 724 q 334 697 358 709 q 291 667 311 684 q 251 628 270 649 l 240 681 q 197 713 230 713 l 92 713 l 92 0 "},"n":{"ha":790,"x_min":92,"x_max":713,"o":"m 92 0 l 263 0 l 263 515 q 337 570 298 550 q 420 590 376 590 q 511 555 481 590 q 541 453 541 519 l 541 0 l 713 0 l 713 453 q 697 563 713 513 q 651 648 681 613 q 576 704 621 684 q 472 724 531 724 q 406 717 436 724 q 348 697 375 710 q 298 665 322 683 q 252 625 274 647 l 240 681 q 197 713 230 713 l 92 713 l 92 0 "},"o":{"ha":790,"x_min":42,"x_max":747,"o":"m 396 724 q 251 698 316 724 q 139 625 185 672 q 68 510 93 578 q 42 358 42 442 q 68 205 42 273 q 139 89 93 137 q 251 15 185 41 q 396 -10 316 -10 q 541 15 476 -10 q 651 89 606 41 q 722 205 697 137 q 747 358 747 273 q 722 510 747 442 q 651 625 697 578 q 541 698 606 672 q 396 724 476 724 m 396 122 q 263 182 306 122 q 219 356 219 242 q 263 532 219 471 q 396 592 306 592 q 527 532 485 592 q 570 356 570 472 q 527 181 570 241 q 396 122 485 122 "},"p":{"ha":785,"x_min":92,"x_max":747,"o":"m 92 -233 l 263 -233 l 263 59 q 339 8 297 26 q 441 -10 381 -10 q 568 18 511 -10 q 664 96 624 46 q 726 214 704 146 q 747 362 747 282 q 728 517 747 449 q 674 631 709 585 q 591 701 639 677 q 484 726 542 726 q 353 695 409 726 q 254 615 297 665 l 240 681 q 225 705 237 697 q 197 713 213 713 l 92 713 l 92 -233 m 425 590 q 486 578 459 590 q 531 538 513 565 q 560 468 550 511 q 570 362 570 424 q 558 255 570 300 q 525 179 547 209 q 471 135 503 149 q 401 120 440 120 q 327 134 361 120 q 263 185 292 149 l 263 504 q 334 568 296 545 q 425 590 372 590 "},"q":{"ha":792,"x_min":42,"x_max":698,"o":"m 698 713 l 593 713 q 565 705 576 713 q 549 681 553 697 l 540 642 q 503 676 522 661 q 460 703 483 692 q 409 720 437 714 q 349 726 382 726 q 222 698 278 726 q 126 619 166 669 q 64 501 85 569 q 42 354 42 433 q 61 199 42 267 q 116 84 81 131 q 199 14 151 38 q 306 -10 248 -10 q 372 -3 342 -10 q 430 17 403 4 q 481 48 457 30 q 526 90 505 67 l 526 -233 l 698 -233 l 698 713 m 365 126 q 304 138 331 126 q 258 177 277 150 q 230 248 240 205 q 219 354 219 292 q 231 461 219 416 q 265 536 243 507 q 318 581 287 566 q 389 595 350 595 q 463 581 428 595 q 526 531 497 566 l 526 211 q 456 148 493 170 q 365 126 418 126 "},"r":{"ha":567,"x_min":92,"x_max":546,"o":"m 92 0 l 263 0 l 263 444 q 328 530 290 501 q 419 560 366 560 q 467 555 449 560 q 496 550 485 550 q 515 555 508 550 q 524 573 522 560 l 546 701 q 458 726 511 726 q 343 688 394 726 q 253 583 292 649 l 243 669 q 229 703 240 693 q 192 713 219 713 l 92 713 l 92 0 "},"s":{"ha":607,"x_min":29,"x_max":561,"o":"m 515 574 l 553 635 q 453 699 513 675 q 319 724 392 724 q 202 706 253 724 q 118 659 152 688 q 67 590 85 629 q 50 506 50 550 q 65 426 50 459 q 105 369 80 392 q 161 332 129 347 q 225 306 192 317 q 290 285 258 294 q 346 264 322 276 q 386 236 371 252 q 401 195 401 220 q 394 163 401 178 q 373 135 388 147 q 337 116 359 124 q 285 109 315 109 q 220 118 246 109 q 176 138 195 127 q 143 157 158 148 q 113 166 129 166 q 87 160 97 166 q 69 142 76 153 l 29 76 q 77 42 50 58 q 137 14 105 26 q 205 -5 169 2 q 276 -11 240 -11 q 398 7 345 -11 q 488 56 451 24 q 542 131 524 88 q 561 226 561 174 q 546 299 561 269 q 507 352 531 330 q 451 388 482 374 q 387 413 419 402 q 323 434 354 424 q 267 455 292 443 q 227 482 242 467 q 213 521 213 498 q 242 577 213 556 q 322 599 271 599 q 378 592 354 599 q 421 576 402 585 q 454 560 440 567 q 481 553 468 553 q 500 558 492 553 q 515 574 508 563 "},"t":{"ha":538,"x_min":27,"x_max":513,"o":"m 326 -11 q 426 5 378 -11 q 513 52 475 21 l 461 135 q 451 147 456 143 q 438 151 446 151 q 426 147 432 151 q 411 139 419 143 q 393 131 403 135 q 366 127 382 127 q 322 146 338 127 q 305 198 305 165 l 305 584 l 492 584 l 492 706 l 305 706 l 305 931 l 216 931 q 191 923 201 931 q 178 901 181 915 l 142 707 l 27 688 l 27 620 q 37 593 27 602 q 61 584 47 584 l 133 584 l 133 186 q 183 41 133 94 q 326 -11 233 -11 "},"u":{"ha":790,"x_min":77,"x_max":698,"o":"m 249 713 l 77 713 l 77 260 q 93 150 77 200 q 139 65 108 101 q 214 9 169 28 q 317 -11 259 -11 q 384 -4 353 -11 q 441 16 415 3 q 492 48 468 29 q 538 88 515 66 l 549 31 q 593 0 560 0 l 698 0 l 698 713 l 526 713 l 526 197 q 453 143 492 163 q 369 123 414 123 q 279 159 309 123 q 249 260 249 194 l 249 713 "},"v":{"ha":741,"x_min":10,"x_max":731,"o":"m 449 0 l 731 713 l 596 713 q 566 703 578 713 q 549 681 553 694 l 408 300 q 387 235 395 267 q 373 171 379 203 q 359 235 367 203 q 339 300 351 267 l 201 681 q 184 703 197 694 q 152 713 171 713 l 10 713 l 293 0 l 449 0 "},"w":{"ha":1099,"x_min":5,"x_max":1094,"o":"m 5 713 l 231 0 l 362 0 q 399 31 390 0 l 529 441 q 540 482 535 462 q 549 524 545 503 q 558 483 553 503 q 569 442 563 463 l 698 31 q 730 0 708 0 l 868 0 l 1094 713 l 964 713 q 933 703 947 713 q 917 681 920 694 l 811 300 q 796 238 802 268 q 785 178 790 208 q 771 235 778 207 q 755 293 764 263 l 638 682 q 622 705 634 696 q 590 714 609 714 l 515 714 q 485 705 498 714 q 469 682 473 696 l 351 300 q 332 239 341 269 q 316 179 324 209 q 306 239 311 209 q 292 300 301 269 l 190 681 q 174 703 187 694 q 141 713 160 713 l 5 713 "},"x":{"ha":750,"x_min":17,"x_max":733,"o":"m 260 367 l 17 0 l 170 0 q 198 10 187 0 q 217 32 209 20 l 350 238 q 367 280 361 255 l 519 32 q 538 10 526 19 q 568 0 549 0 l 733 0 l 489 375 l 724 713 l 566 713 q 544 706 553 713 q 526 687 535 700 l 406 499 q 393 476 399 488 q 385 452 388 464 l 235 690 q 219 707 228 702 q 192 713 210 713 l 26 713 l 260 367 "},"y":{"ha":741,"x_min":5,"x_max":733,"o":"m 344 -196 l 733 713 l 595 713 q 566 703 579 713 q 548 681 553 694 l 405 312 q 391 274 397 292 q 378 235 384 255 q 369 274 374 254 q 356 311 363 293 l 203 681 q 187 703 198 693 q 155 713 176 713 l 5 713 l 293 53 l 160 -233 l 288 -233 q 325 -223 313 -233 q 344 -196 337 -214 "},"z":{"ha":652,"x_min":47,"x_max":607,"o":"m 607 642 l 607 713 l 67 713 l 67 581 l 411 581 l 69 131 q 52 100 58 116 q 47 72 47 83 l 47 0 l 597 0 l 597 132 l 246 132 l 585 578 q 600 607 594 590 q 607 642 607 624 "},"{":{"ha":417,"x_min":20,"x_max":366,"o":"m 103 285 q 99 219 103 252 q 89 154 94 187 q 78 89 83 122 q 74 22 74 56 q 89 -75 74 -31 q 136 -149 104 -118 q 216 -197 167 -180 q 329 -214 264 -214 l 366 -214 l 366 -138 q 362 -122 366 -129 q 352 -111 358 -115 q 340 -105 347 -107 q 329 -103 334 -103 l 323 -103 q 249 -72 274 -103 q 223 11 223 -42 q 227 84 223 49 q 236 152 231 119 q 244 217 240 185 q 249 282 249 249 q 241 331 249 308 q 220 374 234 355 q 186 408 206 394 q 141 430 166 422 q 186 451 166 437 q 220 485 206 466 q 241 528 234 504 q 249 578 249 551 q 244 642 249 610 q 236 707 240 674 q 227 775 231 740 q 223 849 223 810 q 249 933 223 902 q 323 963 274 963 l 329 963 q 340 965 334 963 q 352 972 347 967 q 362 982 358 976 q 366 998 366 989 l 366 1074 l 329 1074 q 216 1057 264 1074 q 136 1009 167 1040 q 89 934 104 978 q 74 838 74 891 q 78 771 74 804 q 89 706 83 738 q 99 641 94 673 q 103 576 103 608 q 84 507 103 533 q 20 480 64 480 l 20 381 q 84 354 64 381 q 103 285 103 327 "},"|":{"ha":417,"x_min":142,"x_max":275,"o":"m 142 1074 l 142 -233 l 275 -233 l 275 1074 l 142 1074 "},"}":{"ha":417,"x_min":51,"x_max":397,"o":"m 313 285 q 333 354 313 327 q 397 381 353 381 l 397 480 q 333 507 353 480 q 313 576 313 533 q 318 641 313 608 q 328 706 322 673 q 339 771 334 738 q 343 838 343 804 q 328 934 343 891 q 281 1009 313 978 q 201 1057 249 1040 q 88 1074 153 1074 l 51 1074 l 51 998 q 55 982 51 989 q 64 972 58 976 q 76 965 70 967 q 88 963 83 963 l 94 963 q 168 933 142 963 q 194 849 194 902 q 190 775 194 810 q 181 707 185 740 q 172 642 176 674 q 168 578 168 610 q 175 528 168 551 q 197 485 183 504 q 231 451 210 466 q 276 430 251 437 q 231 408 251 422 q 197 374 210 394 q 175 331 183 355 q 168 282 168 308 q 172 217 168 249 q 181 152 176 185 q 190 84 185 119 q 194 11 194 49 q 168 -72 194 -42 q 94 -103 142 -103 l 88 -103 q 76 -105 83 -103 q 64 -111 70 -107 q 55 -122 58 -115 q 51 -138 51 -129 l 51 -214 l 88 -214 q 201 -197 153 -214 q 281 -149 249 -180 q 328 -75 313 -118 q 343 22 343 -31 q 339 89 343 56 q 328 154 334 122 q 318 219 322 187 q 313 285 313 252 "},"~":{"ha":806,"x_min":68,"x_max":738,"o":"m 517 450 q 469 460 495 450 q 412 481 442 469 q 348 502 382 492 q 278 512 315 512 q 189 495 228 512 q 123 448 150 478 q 82 373 97 417 q 68 276 68 330 l 206 276 q 228 347 206 322 q 288 372 249 372 q 337 362 310 372 q 393 341 363 352 q 457 319 424 329 q 528 310 491 310 q 617 326 578 310 q 682 374 656 343 q 723 448 709 405 q 738 545 738 492 l 599 545 q 578 475 599 500 q 517 450 556 450 "}," ":{"ha":268,"x_min":0,"x_max":0,"o":""},"¡":{"ha":501,"x_min":145,"x_max":356,"o":"m 172 -233 l 333 -233 l 333 138 q 327 261 333 201 q 310 390 321 322 l 194 390 q 178 261 184 322 q 172 138 172 201 l 172 -233 m 145 619 q 153 578 145 597 q 175 545 161 559 q 208 523 189 531 q 250 515 228 515 q 291 523 272 515 q 325 545 310 531 q 347 578 339 559 q 356 619 356 597 q 347 661 356 642 q 325 694 339 680 q 291 716 310 708 q 250 724 272 724 q 208 716 228 724 q 175 694 189 708 q 153 661 161 680 q 145 619 145 642 "},"¢":{"ha":806,"x_min":85,"x_max":732,"o":"m 374 -6 l 362 -154 l 425 -154 q 458 -141 445 -154 q 472 -110 470 -127 l 480 -8 q 551 2 516 -6 q 617 23 585 9 q 678 56 649 36 q 732 105 708 76 l 685 166 q 653 181 674 181 q 626 172 639 181 q 595 153 613 164 q 552 133 577 143 q 491 119 528 123 l 531 587 q 570 574 553 581 q 600 560 587 567 q 624 549 614 553 q 644 544 635 544 q 665 549 658 544 q 679 564 672 554 l 724 624 q 642 682 686 659 q 542 715 597 706 l 556 874 l 493 874 q 460 861 473 874 q 447 831 448 847 l 437 722 q 286 690 352 719 q 176 612 221 660 q 108 498 131 563 q 85 356 85 432 q 107 215 85 278 q 168 106 129 152 q 260 32 207 60 q 374 -6 313 3 m 255 356 q 297 519 255 458 q 426 592 338 581 l 386 128 q 289 206 323 149 q 255 356 255 263 "},"£":{"ha":806,"x_min":27,"x_max":781,"o":"m 27 472 l 27 417 l 160 417 l 160 235 q 150 186 160 207 q 124 149 140 165 q 86 123 108 133 q 41 108 65 113 l 41 0 l 707 0 q 737 7 724 0 q 760 24 751 13 q 775 48 770 35 q 781 74 781 61 l 781 146 l 374 146 q 272 134 323 146 q 318 200 301 165 q 335 282 335 236 l 335 417 l 571 417 q 606 431 592 417 q 619 461 619 444 l 619 529 l 335 529 l 335 694 q 371 824 335 777 q 478 871 406 871 q 518 866 501 871 q 551 852 536 861 q 579 830 566 843 q 605 802 592 817 q 651 779 625 779 q 690 790 668 779 l 759 834 q 716 905 741 872 q 656 963 690 938 q 577 1001 622 987 q 478 1015 533 1015 q 338 990 397 1015 q 238 920 278 964 q 179 817 199 876 q 160 693 160 758 l 160 529 l 85 529 q 42 512 56 529 q 27 472 27 495 "},"¤":{"ha":806,"x_min":76,"x_max":729,"o":"m 147 467 q 157 396 147 430 q 185 332 167 362 l 80 228 l 165 142 l 272 247 q 334 221 301 230 q 403 212 367 212 q 474 222 440 212 q 538 249 508 231 l 642 145 l 729 231 l 623 336 q 650 398 640 365 q 659 467 659 431 q 649 539 659 505 q 621 603 639 573 l 726 708 l 640 793 l 535 688 q 472 714 506 705 q 403 724 439 724 q 331 714 365 724 q 267 685 297 703 l 163 790 l 76 705 l 183 599 q 156 537 165 570 q 147 467 147 504 m 273 467 q 283 519 273 495 q 311 561 293 543 q 352 589 328 578 q 403 599 376 599 q 454 589 430 599 q 495 561 478 578 q 524 519 513 543 q 534 467 534 495 q 524 417 534 441 q 495 375 513 393 q 454 347 478 358 q 403 337 430 337 q 352 347 376 337 q 311 375 328 358 q 283 417 293 393 q 273 467 273 441 "},"¥":{"ha":806,"x_min":8,"x_max":793,"o":"m 92 440 l 92 344 l 315 344 l 315 278 l 92 278 l 92 183 l 315 183 l 315 0 l 486 0 l 486 183 l 708 183 l 708 278 l 486 278 l 486 344 l 708 344 l 708 440 l 516 440 l 793 1004 l 649 1004 q 610 991 626 1004 q 588 963 595 978 l 437 624 q 415 566 423 593 q 401 514 407 540 q 388 566 396 540 q 365 624 379 592 l 213 963 q 190 993 205 981 q 150 1004 174 1004 l 8 1004 l 284 440 l 92 440 "},"¦":{"ha":417,"x_min":142,"x_max":275,"o":"m 142 1074 l 142 513 l 275 513 l 275 1074 l 142 1074 m 142 328 l 142 -233 l 275 -233 l 275 328 l 142 328 "},"§":{"ha":701,"x_min":65,"x_max":644,"o":"m 574 865 l 613 926 q 512 990 573 966 q 378 1015 451 1015 q 262 997 312 1015 q 178 949 212 979 q 127 880 144 919 q 110 797 110 841 q 130 707 110 744 q 182 643 150 670 q 94 574 123 617 q 65 476 65 531 q 82 397 65 430 q 126 339 99 363 q 189 297 154 315 q 261 265 224 279 q 332 237 297 250 q 395 209 367 224 q 440 173 423 193 q 456 125 456 153 q 425 60 456 83 q 336 36 393 36 q 268 45 295 36 q 222 65 241 54 q 188 84 202 75 q 158 93 174 93 q 132 87 142 93 q 114 69 122 81 l 74 3 q 122 -31 94 -15 q 182 -59 149 -47 q 249 -77 214 -71 q 321 -84 284 -84 q 443 -66 390 -84 q 533 -17 497 -49 q 587 58 569 15 q 606 153 606 101 q 586 234 606 200 q 535 294 566 268 q 618 367 592 322 q 644 469 644 413 q 628 542 644 510 q 585 599 612 574 q 523 642 558 623 q 453 676 489 660 q 382 706 417 692 q 321 734 348 719 q 277 766 294 749 q 261 805 261 783 q 269 838 261 822 q 292 864 277 853 q 329 882 307 876 q 381 889 351 889 q 437 882 413 889 q 480 866 461 875 q 513 851 499 858 q 540 844 527 844 q 560 849 552 844 q 574 865 567 853 m 217 503 q 231 550 217 530 q 276 586 245 569 q 355 553 315 568 q 425 520 394 538 q 476 482 456 503 q 495 430 495 460 q 483 384 495 405 q 442 349 470 363 q 363 382 403 367 q 290 415 322 398 q 238 453 258 432 q 217 503 217 474 "},"¨":{"ha":443,"x_min":-4,"x_max":447,"o":"m 188 897 q 180 935 188 917 q 159 966 172 953 q 127 987 145 979 q 90 994 110 994 q 55 987 72 994 q 24 966 38 979 q 3 935 11 953 q -4 897 -4 917 q 3 861 -4 878 q 24 831 11 844 q 55 811 38 819 q 90 804 72 804 q 127 811 110 804 q 159 831 145 819 q 180 861 172 844 q 188 897 188 878 m 447 897 q 440 935 447 917 q 419 966 432 953 q 388 987 406 979 q 351 994 370 994 q 314 987 331 994 q 284 966 297 979 q 263 935 271 953 q 256 897 256 917 q 263 861 256 878 q 284 831 271 844 q 314 811 297 819 q 351 804 331 804 q 388 811 370 804 q 419 831 406 819 q 440 861 432 844 q 447 897 447 878 "},"©":{"ha":1099,"x_min":37,"x_max":1063,"o":"m 706 356 q 679 344 691 351 q 652 328 667 336 q 615 315 637 321 q 559 310 593 310 q 495 323 524 310 q 444 360 465 335 q 410 421 422 385 q 398 504 398 457 q 410 585 398 549 q 444 647 422 622 q 499 686 467 672 q 574 699 532 699 q 631 692 609 699 q 668 677 653 685 q 693 662 683 669 q 715 655 703 655 q 734 660 727 655 q 745 672 741 666 l 790 733 q 698 800 753 774 q 565 826 642 826 q 439 802 497 826 q 338 736 381 778 q 270 634 294 693 q 246 504 246 575 q 267 377 246 435 q 329 275 289 318 q 425 207 369 231 q 551 182 481 182 q 690 208 631 182 q 788 283 749 234 l 731 344 q 720 352 726 349 q 706 356 714 356 m 37 502 q 55 366 37 431 q 107 244 74 301 q 187 141 140 188 q 291 60 234 94 q 413 9 348 27 q 549 -10 478 -10 q 686 9 620 -10 q 808 60 751 27 q 912 141 865 94 q 992 244 959 188 q 1044 366 1026 301 q 1063 502 1063 432 q 1044 639 1063 573 q 992 761 1026 704 q 912 865 959 818 q 808 945 865 912 q 686 997 751 978 q 549 1015 620 1015 q 413 997 478 1015 q 291 945 348 978 q 187 865 234 912 q 107 761 140 818 q 55 639 74 704 q 37 502 37 573 m 131 502 q 145 618 131 563 q 187 722 160 674 q 252 809 214 770 q 336 877 290 849 q 436 920 383 905 q 549 935 490 935 q 663 920 608 935 q 763 877 717 905 q 848 809 810 849 q 914 722 887 770 q 956 618 941 674 q 971 502 971 563 q 938 333 971 412 q 849 197 906 255 q 715 106 792 139 q 549 72 638 72 q 385 106 461 72 q 252 197 308 139 q 163 333 195 255 q 131 502 131 412 "},"ª":{"ha":483,"x_min":56,"x_max":432,"o":"m 432 584 l 432 851 q 420 917 432 887 q 386 970 408 948 q 333 1006 365 993 q 263 1018 302 1018 q 163 1002 209 1018 q 77 950 116 985 l 99 910 q 113 894 103 901 q 135 888 122 888 q 160 892 149 888 q 182 903 170 897 q 209 915 194 910 q 248 919 224 919 q 295 904 279 919 q 312 851 312 888 l 312 833 q 188 818 237 831 q 109 786 138 806 q 68 743 80 767 q 56 696 56 719 q 66 645 56 667 q 92 609 75 624 q 133 586 109 594 q 185 578 156 578 q 227 582 208 578 q 261 592 245 585 q 292 610 277 599 q 324 634 308 620 l 333 609 q 348 589 338 593 q 374 584 358 584 l 432 584 m 224 663 q 187 671 200 663 q 174 702 174 680 q 181 723 174 713 q 202 739 187 732 q 244 751 218 747 q 312 758 271 756 l 312 701 q 271 672 291 681 q 224 663 251 663 "},"«":{"ha":675,"x_min":85,"x_max":574,"o":"m 85 363 l 263 88 l 319 114 q 346 150 346 126 q 337 181 346 165 l 241 344 q 219 374 230 364 q 241 403 231 385 l 337 566 q 346 596 346 581 q 340 617 346 608 q 319 633 333 627 l 263 660 l 85 385 l 85 363 m 314 363 l 492 88 l 548 114 q 574 150 574 126 q 565 181 574 165 l 469 344 q 447 374 458 364 q 469 403 460 385 l 565 566 q 574 596 574 581 q 568 617 574 608 q 548 633 562 627 l 492 660 l 314 385 l 314 363 "},"¬":{"ha":806,"x_min":94,"x_max":710,"o":"m 94 530 l 94 403 l 565 403 l 565 206 l 710 206 l 710 530 l 94 530 "},"­":{"ha":499,"x_min":69,"x_max":429,"o":"m 69 491 l 69 348 l 429 348 l 429 491 l 69 491 "},"®":{"ha":1099,"x_min":37,"x_max":1063,"o":"m 37 502 q 55 366 37 431 q 107 244 74 301 q 187 141 140 188 q 291 60 234 94 q 413 9 348 27 q 549 -10 478 -10 q 686 9 620 -10 q 808 60 751 27 q 912 141 865 94 q 992 244 959 188 q 1044 366 1026 301 q 1063 502 1063 432 q 1044 639 1063 573 q 992 761 1026 704 q 912 865 959 818 q 808 945 865 912 q 686 997 751 978 q 549 1015 620 1015 q 413 997 478 1015 q 291 945 348 978 q 187 865 234 912 q 107 761 140 818 q 55 639 74 704 q 37 502 37 573 m 131 502 q 145 618 131 563 q 187 722 160 674 q 252 809 214 770 q 336 877 290 849 q 436 920 383 905 q 549 935 490 935 q 663 920 608 935 q 763 877 717 905 q 848 809 810 849 q 914 722 887 770 q 956 618 941 674 q 971 502 971 563 q 938 333 971 412 q 849 197 906 255 q 715 106 792 139 q 549 72 638 72 q 385 106 461 72 q 252 197 308 139 q 163 333 195 255 q 131 502 131 412 m 472 418 l 510 418 q 536 413 527 418 q 551 398 544 408 l 651 215 q 695 192 664 192 l 838 192 l 713 406 q 692 437 702 424 q 665 460 681 451 q 765 527 733 481 q 797 635 797 574 q 736 769 797 722 q 546 815 676 815 l 323 815 l 323 192 l 472 192 l 472 418 m 472 524 l 472 703 l 546 703 q 598 698 578 703 q 630 682 619 692 q 646 655 642 671 q 650 617 650 638 q 645 577 650 594 q 627 548 640 560 q 592 530 615 536 q 533 524 569 524 l 472 524 "},"¯":{"ha":443,"x_min":14,"x_max":429,"o":"m 14 953 l 14 843 l 429 843 l 429 953 l 14 953 "},"°":{"ha":558,"x_min":38,"x_max":519,"o":"m 38 780 q 57 689 38 732 q 107 614 75 646 q 183 563 140 581 q 278 544 227 544 q 373 563 328 544 q 449 614 417 581 q 501 689 482 646 q 519 780 519 732 q 501 873 519 829 q 449 948 482 916 q 373 998 417 980 q 278 1017 328 1017 q 183 998 227 1017 q 107 948 140 980 q 57 873 75 916 q 38 780 38 829 m 158 778 q 167 827 158 805 q 192 867 176 850 q 230 893 208 883 q 278 903 252 903 q 326 893 303 903 q 364 867 348 883 q 390 827 381 850 q 399 778 399 805 q 390 731 399 753 q 364 692 381 708 q 326 666 348 676 q 278 657 303 657 q 230 666 252 657 q 192 692 208 676 q 167 731 176 708 q 158 778 158 753 "},"±":{"ha":806,"x_min":63,"x_max":741,"o":"m 471 862 l 332 862 l 332 616 l 63 616 l 63 488 l 332 488 l 332 251 l 471 251 l 471 488 l 741 488 l 741 616 l 471 616 l 471 862 m 63 183 l 63 56 l 741 56 l 741 183 l 63 183 "},"²":{"ha":463,"x_min":48,"x_max":424,"o":"m 243 1145 q 114 1107 165 1145 q 51 989 63 1069 l 119 978 q 128 977 124 978 q 135 977 132 977 q 160 983 151 977 q 176 1002 169 990 q 199 1035 185 1024 q 236 1047 213 1047 q 274 1031 260 1047 q 288 990 288 1015 q 282 957 288 974 q 266 923 276 940 q 242 889 256 906 q 213 857 228 872 l 68 714 q 52 690 57 703 q 48 665 48 676 l 48 625 l 424 625 l 424 698 q 413 726 424 715 q 383 736 402 736 l 293 736 q 258 733 277 736 q 220 724 240 730 l 309 815 q 348 856 329 835 q 381 897 367 876 q 404 942 395 919 q 413 994 413 966 q 401 1054 413 1026 q 368 1101 390 1081 q 315 1133 347 1122 q 243 1145 283 1145 "},"³":{"ha":463,"x_min":51,"x_max":425,"o":"m 250 1145 q 183 1136 215 1145 q 128 1107 152 1126 q 87 1058 103 1088 q 65 989 71 1028 l 128 978 q 147 976 139 976 q 169 983 160 976 q 183 1003 177 990 q 205 1033 191 1022 q 244 1044 219 1044 q 284 1030 271 1044 q 298 989 298 1015 q 293 963 298 974 q 278 943 289 951 q 248 930 267 935 q 200 926 229 926 l 200 845 q 249 842 229 845 q 280 831 269 839 q 297 811 292 824 q 301 780 301 799 q 285 738 301 756 q 237 721 268 721 q 211 725 222 721 q 192 736 200 729 q 178 751 183 742 q 168 767 172 759 q 133 786 158 786 q 105 781 120 786 l 51 759 q 82 693 65 720 q 123 650 99 667 q 176 627 146 634 q 243 619 206 619 q 309 629 276 619 q 367 659 342 639 q 409 711 393 680 q 425 785 425 742 q 403 851 425 826 q 340 890 382 876 q 398 937 380 907 q 416 1011 416 967 q 405 1061 416 1037 q 372 1103 394 1085 q 320 1134 351 1122 q 250 1145 290 1145 "},"´":{"ha":443,"x_min":131,"x_max":462,"o":"m 462 1015 l 295 1015 q 253 1006 267 1015 q 229 978 240 997 l 131 810 l 233 810 q 265 815 253 810 q 290 834 277 820 l 462 1015 "},"µ":{"ha":790,"x_min":77,"x_max":698,"o":"m 249 713 l 77 713 l 77 -161 q 97 -214 77 -196 q 153 -233 117 -233 l 238 -233 l 238 -66 q 235 -5 238 -37 q 225 58 233 28 q 284 23 251 35 q 358 10 317 10 q 408 15 385 10 q 453 28 431 19 q 495 52 474 38 q 538 89 516 67 l 549 31 q 593 0 560 0 l 698 0 l 698 713 l 526 713 l 526 197 q 453 143 492 163 q 369 123 414 123 q 279 159 309 123 q 249 260 249 194 l 249 713 "},"¶":{"ha":973,"x_min":23,"x_max":951,"o":"m 951 1004 l 340 1004 q 209 983 267 1004 q 109 925 151 963 q 45 835 68 888 q 23 720 23 783 q 45 611 23 663 q 109 521 68 560 q 209 460 151 483 q 340 438 267 438 l 340 -145 l 490 -145 l 490 860 l 653 860 l 653 -145 l 803 -145 l 803 860 l 951 860 l 951 1004 "},"·":{"ha":388,"x_min":63,"x_max":325,"o":"m 63 413 q 73 363 63 386 q 101 322 83 340 q 142 294 119 304 q 193 284 166 284 q 245 294 221 284 q 286 322 269 304 q 315 363 304 340 q 325 413 325 386 q 315 464 325 440 q 286 506 304 488 q 245 534 269 524 q 193 544 221 544 q 142 534 166 544 q 101 506 119 524 q 73 464 83 488 q 63 413 63 440 "},"¸":{"ha":443,"x_min":92,"x_max":363,"o":"m 127 -158 q 108 -174 112 -158 l 92 -226 q 141 -238 116 -234 q 194 -242 165 -242 q 263 -235 231 -242 q 316 -215 294 -228 q 350 -183 338 -201 q 363 -141 363 -164 q 338 -80 363 -106 q 251 -38 313 -53 l 265 10 l 158 10 l 126 -93 q 203 -109 178 -100 q 228 -137 228 -117 q 217 -159 228 -150 q 183 -167 206 -167 q 164 -166 172 -167 q 149 -162 156 -165 q 137 -159 142 -160 q 127 -158 132 -158 "},"¹":{"ha":463,"x_min":66,"x_max":411,"o":"m 112 704 l 112 625 l 411 625 l 411 704 l 331 704 l 331 1140 l 228 1140 l 66 1005 l 104 953 q 116 943 108 947 q 135 939 124 939 q 158 947 147 939 l 212 990 l 208 954 l 208 704 l 112 704 "},"º":{"ha":539,"x_min":42,"x_max":497,"o":"m 271 1017 q 177 1001 219 1017 q 106 958 135 986 q 59 889 76 930 q 42 798 42 849 q 59 705 42 747 q 106 635 76 664 q 177 591 135 606 q 271 576 219 576 q 363 591 321 576 q 434 635 404 606 q 480 705 464 664 q 497 798 497 747 q 480 889 497 849 q 434 958 464 930 q 363 1001 404 986 q 271 1017 321 1017 m 271 676 q 199 705 222 676 q 176 797 176 735 q 199 888 176 858 q 271 917 222 917 q 340 888 317 917 q 363 797 363 858 q 340 705 363 735 q 271 676 317 676 "},"»":{"ha":675,"x_min":100,"x_max":589,"o":"m 183 88 l 360 363 l 360 385 l 183 660 l 126 633 q 100 596 100 621 q 109 566 100 581 l 205 403 q 227 374 215 385 q 205 344 216 364 l 109 181 q 100 151 100 165 q 106 130 100 140 q 126 114 113 120 l 183 88 m 411 88 l 589 363 l 589 385 l 411 660 l 355 633 q 328 596 328 621 q 338 566 328 581 l 433 403 q 456 374 443 385 q 433 344 444 364 l 338 181 q 328 151 328 165 q 335 130 328 140 q 355 114 341 120 l 411 88 "},"¼":{"ha":989,"x_min":53,"x_max":982,"o":"m 316 49 l 899 1004 l 826 1004 q 774 989 795 1004 q 736 948 752 974 l 157 0 l 231 0 q 277 10 257 0 q 316 49 298 21 m 917 196 l 917 515 l 798 515 l 565 190 l 576 138 q 587 119 578 126 q 613 112 597 112 l 814 112 l 814 0 l 917 0 l 917 112 l 958 112 q 976 119 969 112 q 982 135 982 126 l 982 196 l 917 196 m 99 569 l 99 490 l 398 490 l 398 569 l 318 569 l 318 1005 l 215 1005 l 53 870 l 91 818 q 103 808 94 813 q 122 804 111 804 q 145 813 134 804 l 199 855 l 195 819 l 195 569 l 99 569 m 814 313 l 814 196 l 678 196 l 819 388 q 815 348 816 367 q 814 313 814 328 "},"½":{"ha":989,"x_min":53,"x_max":964,"o":"m 288 49 l 871 1004 l 798 1004 q 745 989 767 1004 q 708 948 724 974 l 128 0 l 202 0 q 249 10 228 0 q 288 49 269 21 m 783 520 q 654 482 706 520 q 591 364 603 444 l 660 353 q 668 352 665 353 q 676 352 672 352 q 717 377 706 352 q 740 411 727 400 q 776 422 753 422 q 814 406 801 422 q 828 365 828 390 q 822 332 828 349 q 806 298 816 315 q 783 264 797 281 q 753 232 769 247 l 608 89 q 593 65 597 78 q 588 40 588 51 l 588 0 l 964 0 l 964 73 q 953 101 964 90 q 923 111 942 111 l 833 111 q 799 108 817 111 q 760 99 780 105 l 849 190 q 888 231 869 210 q 921 272 907 251 q 944 317 935 294 q 953 369 953 341 q 942 429 953 401 q 909 476 931 456 q 855 508 887 497 q 783 520 824 520 m 99 569 l 99 490 l 398 490 l 398 569 l 318 569 l 318 1005 l 215 1005 l 53 870 l 91 818 q 103 808 94 813 q 122 804 111 804 q 145 813 134 804 l 199 855 l 195 819 l 195 569 l 99 569 "},"¾":{"ha":990,"x_min":38,"x_max":982,"o":"m 318 49 l 901 1004 l 828 1004 q 776 989 797 1004 q 738 948 754 974 l 159 0 l 233 0 q 280 10 259 0 q 318 49 300 21 m 917 196 l 917 515 l 798 515 l 565 190 l 576 138 q 587 119 578 126 q 613 112 597 112 l 814 112 l 814 0 l 917 0 l 917 112 l 958 112 q 976 119 969 112 q 982 135 982 126 l 982 196 l 917 196 m 237 1010 q 170 1001 201 1010 q 115 972 139 992 q 74 923 90 953 q 52 854 58 894 l 115 844 q 133 842 126 842 q 155 848 147 842 q 170 869 163 855 q 192 899 178 888 q 231 910 206 910 q 271 895 258 910 q 285 854 285 880 q 280 828 285 840 q 265 808 276 816 q 235 795 254 800 q 187 791 216 791 l 187 710 q 236 707 216 710 q 267 697 256 704 q 283 676 278 689 q 288 645 288 664 q 272 603 288 621 q 224 586 255 586 q 198 590 209 586 q 178 601 187 594 q 165 616 170 608 q 155 632 159 624 q 119 651 145 651 q 92 646 107 651 l 38 624 q 69 559 51 585 q 109 516 86 532 q 163 492 133 499 q 230 485 192 485 q 296 494 263 485 q 354 525 328 504 q 396 576 380 545 q 412 650 412 607 q 390 716 412 691 q 327 756 369 742 q 385 802 367 772 q 403 876 403 833 q 392 926 403 902 q 359 969 381 950 q 307 999 338 988 q 237 1010 276 1010 m 814 313 l 814 196 l 678 196 l 819 388 q 815 348 816 367 q 814 313 814 328 "},"¿":{"ha":584,"x_min":33,"x_max":569,"o":"m 569 -141 l 524 -69 q 488 -48 513 -48 q 464 -57 477 -48 q 432 -76 451 -66 q 385 -96 413 -87 q 318 -105 358 -105 q 268 -97 291 -105 q 228 -75 245 -90 q 202 -41 212 -61 q 193 3 193 -22 q 208 64 193 40 q 247 107 224 89 q 296 141 269 126 q 345 172 322 156 q 383 210 368 189 q 399 264 399 232 q 399 270 399 267 q 398 277 399 274 l 386 390 l 269 390 l 253 290 q 232 251 249 267 q 190 219 214 235 q 138 185 165 203 q 87 141 110 167 q 49 78 64 115 q 33 -12 33 41 q 53 -109 33 -66 q 108 -181 72 -151 q 193 -227 143 -211 q 303 -243 242 -243 q 385 -235 347 -243 q 456 -213 424 -227 q 517 -180 489 -199 q 569 -141 545 -162 m 225 619 q 233 578 225 597 q 255 545 241 559 q 289 523 269 531 q 331 515 308 515 q 372 523 352 515 q 405 545 391 531 q 427 578 419 559 q 435 619 435 597 q 427 660 435 641 q 405 694 419 680 q 372 716 391 708 q 331 724 352 724 q 289 716 308 724 q 255 694 269 708 q 233 660 241 680 q 225 619 225 641 "},"À":{"ha":986,"x_min":4,"x_max":984,"o":"m 984 0 l 590 1004 l 399 1004 l 4 0 l 149 0 q 189 13 173 0 q 211 42 206 26 l 286 247 l 702 247 l 777 42 q 800 12 784 24 q 840 0 815 0 l 984 0 m 334 379 l 456 712 q 475 765 465 735 q 494 831 484 796 q 514 766 503 796 q 532 713 524 735 l 654 379 l 334 379 m 394 1244 l 204 1244 l 410 1092 q 424 1083 418 1087 q 437 1078 431 1080 q 450 1076 443 1076 q 467 1076 458 1076 l 603 1076 l 466 1216 q 451 1230 458 1224 q 436 1239 444 1235 q 418 1243 428 1242 q 394 1244 408 1244 "},"Á":{"ha":986,"x_min":4,"x_max":984,"o":"m 984 0 l 590 1004 l 399 1004 l 4 0 l 149 0 q 189 13 173 0 q 211 42 206 26 l 286 247 l 702 247 l 777 42 q 800 12 784 24 q 840 0 815 0 l 984 0 m 334 379 l 456 712 q 475 765 465 735 q 494 831 484 796 q 514 766 503 796 q 532 713 524 735 l 654 379 l 334 379 m 760 1244 l 569 1244 q 546 1243 556 1244 q 528 1239 536 1242 q 514 1230 521 1235 q 498 1216 506 1224 l 362 1076 l 497 1076 q 514 1076 506 1076 q 527 1079 521 1077 q 541 1085 534 1081 q 555 1094 547 1088 l 760 1244 "},"Â":{"ha":986,"x_min":4,"x_max":984,"o":"m 984 0 l 590 1004 l 399 1004 l 4 0 l 149 0 q 189 13 173 0 q 211 42 206 26 l 286 247 l 702 247 l 777 42 q 800 12 784 24 q 840 0 815 0 l 984 0 m 334 379 l 456 712 q 475 765 465 735 q 494 831 484 796 q 514 766 503 796 q 532 713 524 735 l 654 379 l 334 379 m 747 1076 l 579 1228 l 408 1228 l 240 1076 l 370 1076 q 393 1078 381 1076 q 413 1087 406 1081 l 483 1133 q 490 1138 487 1135 q 494 1141 492 1140 q 499 1137 497 1139 q 504 1133 501 1135 l 574 1087 q 594 1078 582 1081 q 617 1076 607 1076 l 747 1076 "},"Ã":{"ha":986,"x_min":4,"x_max":984,"o":"m 984 0 l 590 1004 l 399 1004 l 4 0 l 149 0 q 189 13 173 0 q 211 42 206 26 l 286 247 l 702 247 l 777 42 q 800 12 784 24 q 840 0 815 0 l 984 0 m 334 379 l 456 712 q 475 765 465 735 q 494 831 484 796 q 514 766 503 796 q 532 713 524 735 l 654 379 l 334 379 m 579 1180 q 547 1188 565 1180 q 507 1204 528 1195 q 463 1221 486 1213 q 414 1228 439 1228 q 359 1217 383 1228 q 317 1185 335 1206 q 291 1135 300 1164 q 282 1072 282 1106 l 376 1072 q 388 1106 377 1094 q 418 1117 399 1117 q 451 1110 433 1117 q 491 1093 469 1102 q 535 1076 512 1084 q 583 1069 558 1069 q 639 1080 615 1069 q 680 1112 663 1092 q 706 1160 697 1132 q 715 1224 715 1189 l 622 1224 q 609 1191 621 1201 q 579 1180 598 1180 "},"Ä":{"ha":986,"x_min":4,"x_max":984,"o":"m 984 0 l 590 1004 l 399 1004 l 4 0 l 149 0 q 189 13 173 0 q 211 42 206 26 l 286 247 l 702 247 l 777 42 q 800 12 784 24 q 840 0 815 0 l 984 0 m 334 379 l 456 712 q 475 765 465 735 q 494 831 484 796 q 514 766 503 796 q 532 713 524 735 l 654 379 l 334 379 m 437 1158 q 429 1193 437 1176 q 408 1223 422 1210 q 378 1244 395 1236 q 341 1251 360 1251 q 307 1244 323 1251 q 278 1223 290 1236 q 258 1193 265 1210 q 251 1158 251 1176 q 258 1122 251 1139 q 278 1093 265 1106 q 307 1074 290 1081 q 341 1067 323 1067 q 378 1074 360 1067 q 408 1093 395 1081 q 429 1122 422 1106 q 437 1158 437 1139 m 737 1158 q 730 1193 737 1176 q 710 1223 722 1210 q 680 1244 697 1236 q 644 1251 663 1251 q 608 1244 625 1251 q 578 1223 591 1236 q 558 1193 565 1210 q 551 1158 551 1176 q 558 1122 551 1139 q 578 1093 565 1106 q 608 1074 591 1081 q 644 1067 625 1067 q 680 1074 663 1067 q 710 1093 697 1081 q 730 1122 722 1106 q 737 1158 737 1139 "},"Å":{"ha":986,"x_min":4,"x_max":984,"o":"m 984 0 l 590 1004 l 399 1004 l 4 0 l 149 0 q 189 13 173 0 q 211 42 206 26 l 286 247 l 702 247 l 777 42 q 800 12 784 24 q 840 0 815 0 l 984 0 m 334 379 l 456 712 q 475 765 465 735 q 494 831 484 796 q 514 766 503 796 q 532 713 524 735 l 654 379 l 334 379 m 351 1169 q 363 1116 351 1140 q 394 1074 374 1092 q 439 1048 413 1057 q 493 1038 465 1038 q 549 1048 523 1038 q 596 1074 576 1057 q 628 1116 616 1092 q 640 1169 640 1140 q 628 1223 640 1199 q 596 1265 616 1247 q 549 1292 576 1282 q 493 1301 523 1301 q 439 1292 465 1301 q 394 1265 413 1282 q 363 1223 374 1247 q 351 1169 351 1199 m 433 1169 q 449 1215 433 1198 q 496 1231 465 1231 q 540 1215 524 1231 q 557 1169 557 1198 q 540 1124 557 1142 q 496 1107 524 1107 q 449 1124 465 1107 q 433 1169 433 1142 "},"Æ":{"ha":1297,"x_min":-19,"x_max":1236,"o":"m 1236 856 l 1236 1004 l 491 1004 l -19 0 l 122 0 q 165 11 147 0 q 192 42 183 23 l 291 247 l 652 247 l 683 0 l 1236 0 l 1236 149 l 841 149 l 806 433 l 1142 433 l 1142 577 l 789 577 l 754 856 l 1236 856 m 355 379 l 529 741 q 553 799 541 767 q 576 865 565 830 l 636 379 l 355 379 "},"Ç":{"ha":931,"x_min":43,"x_max":897,"o":"m 439 -158 q 419 -174 424 -158 l 403 -226 q 452 -238 428 -234 q 506 -242 477 -242 q 574 -235 543 -242 q 628 -215 606 -228 q 662 -183 650 -201 q 674 -141 674 -164 q 649 -80 674 -106 q 563 -38 624 -53 l 571 -10 q 757 36 678 -3 q 892 145 836 76 l 818 225 q 792 237 807 237 q 775 233 783 237 q 760 223 767 229 q 714 188 738 202 q 665 165 691 174 q 608 151 639 156 q 539 147 577 147 q 419 171 475 147 q 323 240 364 195 q 258 351 282 285 q 234 502 234 417 q 258 650 234 584 q 325 761 282 715 q 427 832 367 807 q 557 856 486 856 q 657 844 617 856 q 722 817 696 831 q 764 790 747 802 q 797 777 781 777 q 820 783 812 777 q 835 798 829 790 l 897 885 q 754 980 838 944 q 558 1015 670 1015 q 349 977 444 1015 q 186 872 254 940 q 81 709 118 803 q 43 502 43 615 q 72 309 43 398 q 156 154 101 221 q 288 45 210 87 q 464 -8 366 3 l 438 -93 q 515 -109 490 -100 q 540 -137 540 -117 q 529 -159 540 -150 q 494 -167 517 -167 q 475 -166 483 -167 q 461 -162 467 -165 q 449 -159 454 -160 q 439 -158 444 -158 "},"È":{"ha":795,"x_min":101,"x_max":735,"o":"m 735 1004 l 101 1004 l 101 0 l 735 0 l 735 149 l 290 149 l 290 433 l 640 433 l 640 577 l 290 577 l 290 856 l 735 856 l 735 1004 m 329 1244 l 139 1244 l 345 1092 q 359 1083 353 1087 q 372 1078 365 1080 q 385 1076 378 1076 q 402 1076 392 1076 l 538 1076 l 401 1216 q 385 1230 392 1224 q 370 1239 378 1235 q 353 1243 363 1242 q 329 1244 343 1244 "},"É":{"ha":795,"x_min":101,"x_max":735,"o":"m 735 1004 l 101 1004 l 101 0 l 735 0 l 735 149 l 290 149 l 290 433 l 640 433 l 640 577 l 290 577 l 290 856 l 735 856 l 735 1004 m 695 1244 l 504 1244 q 481 1243 490 1244 q 463 1239 471 1242 q 448 1230 456 1235 q 433 1216 441 1224 l 297 1076 l 431 1076 q 448 1076 441 1076 q 462 1079 456 1077 q 475 1085 469 1081 q 490 1094 482 1088 l 695 1244 "},"Ê":{"ha":795,"x_min":101,"x_max":735,"o":"m 735 1004 l 101 1004 l 101 0 l 735 0 l 735 149 l 290 149 l 290 433 l 640 433 l 640 577 l 290 577 l 290 856 l 735 856 l 735 1004 m 682 1076 l 514 1228 l 343 1228 l 175 1076 l 305 1076 q 328 1078 315 1076 q 348 1087 340 1081 l 418 1133 q 424 1138 422 1135 q 428 1141 427 1140 q 434 1137 431 1139 q 439 1133 436 1135 l 509 1087 q 529 1078 517 1081 q 552 1076 542 1076 l 682 1076 "},"Ë":{"ha":795,"x_min":101,"x_max":735,"o":"m 735 1004 l 101 1004 l 101 0 l 735 0 l 735 149 l 290 149 l 290 433 l 640 433 l 640 577 l 290 577 l 290 856 l 735 856 l 735 1004 m 372 1158 q 364 1193 372 1176 q 343 1223 356 1210 q 313 1244 330 1236 q 276 1251 295 1251 q 241 1244 258 1251 q 213 1223 225 1236 q 193 1193 200 1210 q 185 1158 185 1176 q 193 1122 185 1139 q 213 1093 200 1106 q 241 1074 225 1081 q 276 1067 258 1067 q 313 1074 295 1067 q 343 1093 330 1081 q 364 1122 356 1106 q 372 1158 372 1139 m 672 1158 q 664 1193 672 1176 q 644 1223 657 1210 q 615 1244 632 1236 q 578 1251 598 1251 q 543 1244 560 1251 q 513 1223 526 1236 q 493 1193 500 1210 q 485 1158 485 1176 q 493 1122 485 1139 q 513 1093 500 1106 q 543 1074 526 1081 q 578 1067 560 1067 q 615 1074 598 1067 q 644 1093 632 1081 q 664 1122 657 1106 q 672 1158 672 1139 "},"Ì":{"ha":436,"x_min":-68,"x_max":331,"o":"m 312 0 l 312 1004 l 124 1004 l 124 0 l 312 0 m 122 1244 l -68 1244 l 138 1092 q 152 1083 146 1087 q 165 1078 158 1080 q 178 1076 171 1076 q 195 1076 185 1076 l 331 1076 l 194 1216 q 178 1230 185 1224 q 164 1239 172 1235 q 146 1243 156 1242 q 122 1244 136 1244 "},"Í":{"ha":436,"x_min":90,"x_max":488,"o":"m 312 0 l 312 1004 l 124 1004 l 124 0 l 312 0 m 488 1244 l 297 1244 q 274 1243 283 1244 q 256 1239 264 1242 q 241 1230 249 1235 q 226 1216 234 1224 l 90 1076 l 224 1076 q 241 1076 234 1076 q 255 1079 249 1077 q 268 1085 262 1081 q 283 1094 275 1088 l 488 1244 "},"Î":{"ha":436,"x_min":-33,"x_max":474,"o":"m 312 0 l 312 1004 l 124 1004 l 124 0 l 312 0 m 474 1076 l 306 1228 l 135 1228 l -33 1076 l 97 1076 q 120 1078 108 1076 q 140 1087 133 1081 l 210 1133 q 217 1138 214 1135 q 221 1141 219 1140 q 226 1137 224 1139 q 231 1133 228 1135 l 301 1087 q 322 1078 309 1081 q 344 1076 334 1076 l 474 1076 "},"Ï":{"ha":436,"x_min":-22,"x_max":464,"o":"m 312 0 l 312 1004 l 124 1004 l 124 0 l 312 0 m 164 1158 q 156 1193 164 1176 q 135 1223 149 1210 q 105 1244 122 1236 q 68 1251 88 1251 q 34 1244 50 1251 q 5 1223 17 1236 q -15 1193 -8 1210 q -22 1158 -22 1176 q -15 1122 -22 1139 q 5 1093 -8 1106 q 34 1074 17 1081 q 68 1067 50 1067 q 105 1074 88 1067 q 135 1093 122 1081 q 156 1122 149 1106 q 164 1158 164 1139 m 464 1158 q 457 1193 464 1176 q 437 1223 449 1210 q 407 1244 424 1236 q 371 1251 390 1251 q 335 1244 352 1251 q 305 1223 318 1236 q 285 1193 292 1210 q 278 1158 278 1176 q 285 1122 278 1139 q 305 1093 292 1106 q 335 1074 318 1081 q 371 1067 352 1067 q 407 1074 390 1067 q 437 1093 424 1081 q 457 1122 449 1106 q 464 1158 464 1139 "},"Ð":{"ha":1098,"x_min":37,"x_max":1053,"o":"m 37 558 l 37 452 l 162 452 l 162 0 l 545 0 q 753 37 659 0 q 913 140 847 74 q 1017 299 980 207 q 1053 502 1053 392 q 1017 705 1053 613 q 913 864 980 797 q 753 967 847 930 q 545 1004 659 1004 l 162 1004 l 162 558 l 37 558 m 862 502 q 840 354 862 419 q 777 243 818 288 q 677 173 736 197 q 545 149 619 149 l 350 149 l 350 452 l 601 452 l 601 558 l 350 558 l 350 856 l 545 856 q 677 831 619 856 q 777 761 736 807 q 840 650 818 716 q 862 502 862 585 "},"Ñ":{"ha":1050,"x_min":101,"x_max":949,"o":"m 199 1004 l 199 1004 l 101 1004 l 101 0 l 266 0 l 266 617 q 265 657 266 635 q 262 701 264 678 l 787 32 q 815 7 801 14 q 852 0 830 0 l 949 0 l 949 1004 l 784 1004 l 784 394 q 785 350 784 374 q 789 303 786 327 l 262 974 q 248 990 254 984 q 235 999 242 996 q 220 1003 228 1002 q 199 1004 212 1004 m 622 1180 q 589 1188 607 1180 q 550 1204 571 1195 q 505 1221 528 1213 q 456 1228 481 1228 q 401 1217 426 1228 q 360 1185 377 1206 q 333 1135 342 1164 q 324 1072 324 1106 l 419 1072 q 431 1106 419 1094 q 460 1117 442 1117 q 493 1110 475 1117 q 533 1093 512 1102 q 577 1076 554 1084 q 626 1069 601 1069 q 681 1080 657 1069 q 722 1112 706 1092 q 748 1160 739 1132 q 757 1224 757 1189 l 664 1224 q 652 1191 663 1201 q 622 1180 640 1180 "},"Ò":{"ha":1110,"x_min":47,"x_max":1065,"o":"m 1065 502 q 1028 707 1065 613 q 924 869 991 801 q 764 976 858 938 q 556 1015 670 1015 q 348 977 442 1015 q 187 869 254 938 q 83 707 120 801 q 47 502 47 613 q 83 298 47 392 q 187 135 120 203 q 348 27 254 66 q 556 -11 442 -11 q 764 27 670 -11 q 924 135 858 66 q 1028 298 991 203 q 1065 502 1065 392 m 873 502 q 851 354 873 419 q 788 243 829 288 q 689 173 747 197 q 556 149 630 149 q 424 173 483 149 q 323 243 365 197 q 260 354 282 288 q 238 502 238 419 q 260 650 238 585 q 323 762 282 716 q 424 832 365 808 q 556 856 483 856 q 689 832 630 856 q 788 762 747 808 q 851 650 829 716 q 873 502 873 585 m 458 1244 l 268 1244 l 474 1092 q 488 1083 482 1087 q 501 1078 494 1080 q 514 1076 507 1076 q 531 1076 522 1076 l 667 1076 l 530 1216 q 515 1230 522 1224 q 500 1239 508 1235 q 482 1243 492 1242 q 458 1244 472 1244 "},"Ó":{"ha":1110,"x_min":47,"x_max":1065,"o":"m 1065 502 q 1028 707 1065 613 q 924 869 991 801 q 764 976 858 938 q 556 1015 670 1015 q 348 977 442 1015 q 187 869 254 938 q 83 707 120 801 q 47 502 47 613 q 83 298 47 392 q 187 135 120 203 q 348 27 254 66 q 556 -11 442 -11 q 764 27 670 -11 q 924 135 858 66 q 1028 298 991 203 q 1065 502 1065 392 m 873 502 q 851 354 873 419 q 788 243 829 288 q 689 173 747 197 q 556 149 630 149 q 424 173 483 149 q 323 243 365 197 q 260 354 282 288 q 238 502 238 419 q 260 650 238 585 q 323 762 282 716 q 424 832 365 808 q 556 856 483 856 q 689 832 630 856 q 788 762 747 808 q 851 650 829 716 q 873 502 873 585 m 824 1244 l 633 1244 q 610 1243 619 1244 q 592 1239 600 1242 q 577 1230 585 1235 q 562 1216 570 1224 l 426 1076 l 560 1076 q 577 1076 570 1076 q 591 1079 585 1077 q 605 1085 598 1081 q 619 1094 611 1088 l 824 1244 "},"Ô":{"ha":1110,"x_min":47,"x_max":1065,"o":"m 1065 502 q 1028 707 1065 613 q 924 869 991 801 q 764 976 858 938 q 556 1015 670 1015 q 348 977 442 1015 q 187 869 254 938 q 83 707 120 801 q 47 502 47 613 q 83 298 47 392 q 187 135 120 203 q 348 27 254 66 q 556 -11 442 -11 q 764 27 670 -11 q 924 135 858 66 q 1028 298 991 203 q 1065 502 1065 392 m 873 502 q 851 354 873 419 q 788 243 829 288 q 689 173 747 197 q 556 149 630 149 q 424 173 483 149 q 323 243 365 197 q 260 354 282 288 q 238 502 238 419 q 260 650 238 585 q 323 762 282 716 q 424 832 365 808 q 556 856 483 856 q 689 832 630 856 q 788 762 747 808 q 851 650 829 716 q 873 502 873 585 m 811 1076 l 643 1228 l 472 1228 l 304 1076 l 434 1076 q 457 1078 444 1076 q 477 1087 469 1081 l 547 1133 q 553 1138 551 1135 q 558 1141 556 1140 q 563 1137 560 1139 q 568 1133 565 1135 l 638 1087 q 658 1078 646 1081 q 681 1076 671 1076 l 811 1076 "},"Õ":{"ha":1110,"x_min":47,"x_max":1065,"o":"m 1065 502 q 1028 707 1065 613 q 924 869 991 801 q 764 976 858 938 q 556 1015 670 1015 q 348 977 442 1015 q 187 869 254 938 q 83 707 120 801 q 47 502 47 613 q 83 298 47 392 q 187 135 120 203 q 348 27 254 66 q 556 -11 442 -11 q 764 27 670 -11 q 924 135 858 66 q 1028 298 991 203 q 1065 502 1065 392 m 873 502 q 851 354 873 419 q 788 243 829 288 q 689 173 747 197 q 556 149 630 149 q 424 173 483 149 q 323 243 365 197 q 260 354 282 288 q 238 502 238 419 q 260 650 238 585 q 323 762 282 716 q 424 832 365 808 q 556 856 483 856 q 689 832 630 856 q 788 762 747 808 q 851 650 829 716 q 873 502 873 585 m 643 1180 q 610 1188 628 1180 q 571 1204 592 1195 q 526 1221 550 1213 q 478 1228 503 1228 q 423 1217 447 1228 q 381 1185 399 1206 q 355 1135 364 1164 q 346 1072 346 1106 l 440 1072 q 452 1106 441 1094 q 482 1117 463 1117 q 515 1110 497 1117 q 555 1093 533 1102 q 599 1076 576 1084 q 647 1069 622 1069 q 703 1080 678 1069 q 744 1112 727 1092 q 769 1160 760 1132 q 778 1224 778 1189 l 685 1224 q 673 1191 685 1201 q 643 1180 662 1180 "},"Ö":{"ha":1110,"x_min":47,"x_max":1065,"o":"m 1065 502 q 1028 707 1065 613 q 924 869 991 801 q 764 976 858 938 q 556 1015 670 1015 q 348 977 442 1015 q 187 869 254 938 q 83 707 120 801 q 47 502 47 613 q 83 298 47 392 q 187 135 120 203 q 348 27 254 66 q 556 -11 442 -11 q 764 27 670 -11 q 924 135 858 66 q 1028 298 991 203 q 1065 502 1065 392 m 873 502 q 851 354 873 419 q 788 243 829 288 q 689 173 747 197 q 556 149 630 149 q 424 173 483 149 q 323 243 365 197 q 260 354 282 288 q 238 502 238 419 q 260 650 238 585 q 323 762 282 716 q 424 832 365 808 q 556 856 483 856 q 689 832 630 856 q 788 762 747 808 q 851 650 829 716 q 873 502 873 585 m 501 1158 q 493 1193 501 1176 q 472 1223 485 1210 q 442 1244 459 1236 q 405 1251 424 1251 q 370 1244 387 1251 q 342 1223 354 1236 q 322 1193 329 1210 q 315 1158 315 1176 q 322 1122 315 1139 q 342 1093 329 1106 q 370 1074 354 1081 q 405 1067 387 1067 q 442 1074 424 1067 q 472 1093 459 1081 q 493 1122 485 1106 q 501 1158 501 1139 m 801 1158 q 793 1193 801 1176 q 774 1223 786 1210 q 744 1244 761 1236 q 708 1251 727 1251 q 672 1244 689 1251 q 642 1223 655 1236 q 622 1193 629 1210 q 615 1158 615 1176 q 622 1122 615 1139 q 642 1093 629 1106 q 672 1074 655 1081 q 708 1067 689 1067 q 744 1074 727 1067 q 774 1093 761 1081 q 793 1122 786 1106 q 801 1158 801 1139 "},"×":{"ha":806,"x_min":74,"x_max":728,"o":"m 717 692 l 626 782 l 401 556 l 174 783 l 84 693 l 311 466 l 74 228 l 165 139 l 401 376 l 638 140 l 728 230 l 492 466 l 717 692 "},"Ø":{"ha":1110,"x_min":47,"x_max":1065,"o":"m 1065 502 q 1025 714 1065 617 q 914 879 986 810 l 1038 1050 l 942 1050 q 917 1048 927 1050 q 898 1040 906 1045 q 881 1026 889 1035 q 865 1004 874 1017 l 824 947 q 700 998 767 981 q 556 1015 633 1015 q 348 977 442 1015 q 187 869 254 938 q 83 707 120 801 q 47 502 47 613 q 91 279 47 380 q 215 109 135 178 l 79 -77 l 153 -77 q 207 -66 179 -77 q 256 -27 235 -55 l 308 46 q 424 3 363 18 q 556 -11 486 -11 q 764 27 670 -11 q 924 135 858 66 q 1028 298 991 203 q 1065 502 1065 392 m 238 502 q 260 650 238 585 q 323 762 282 716 q 424 832 365 808 q 556 856 483 856 q 726 813 653 856 l 317 250 q 258 359 278 296 q 238 502 238 422 m 873 502 q 851 354 873 419 q 788 243 829 288 q 689 173 747 197 q 556 149 630 149 q 406 181 472 149 l 809 735 q 857 632 840 690 q 873 502 873 574 "},"Ù":{"ha":1011,"x_min":90,"x_max":922,"o":"m 506 151 q 409 169 451 151 q 337 220 366 187 q 292 299 308 253 q 276 403 276 346 l 276 1004 l 90 1004 l 90 403 q 118 237 90 313 q 201 106 147 161 q 332 20 255 51 q 506 -11 409 -11 q 679 20 602 -11 q 810 106 756 51 q 893 237 865 161 q 922 403 922 313 l 922 1004 l 735 1004 l 735 403 q 720 299 735 345 q 675 219 704 252 q 602 169 645 187 q 506 151 560 151 m 407 1244 l 217 1244 l 423 1092 q 437 1083 431 1087 q 449 1078 443 1080 q 463 1076 456 1076 q 480 1076 470 1076 l 615 1076 l 478 1216 q 463 1230 470 1224 q 448 1239 456 1235 q 431 1243 440 1242 q 407 1244 421 1244 "},"Ú":{"ha":1011,"x_min":90,"x_max":922,"o":"m 506 151 q 409 169 451 151 q 337 220 366 187 q 292 299 308 253 q 276 403 276 346 l 276 1004 l 90 1004 l 90 403 q 118 237 90 313 q 201 106 147 161 q 332 20 255 51 q 506 -11 409 -11 q 679 20 602 -11 q 810 106 756 51 q 893 237 865 161 q 922 403 922 313 l 922 1004 l 735 1004 l 735 403 q 720 299 735 345 q 675 219 704 252 q 602 169 645 187 q 506 151 560 151 m 773 1244 l 582 1244 q 558 1243 568 1244 q 541 1239 549 1242 q 526 1230 533 1235 q 510 1216 519 1224 l 374 1076 l 509 1076 q 526 1076 519 1076 q 540 1079 533 1077 q 553 1085 547 1081 q 567 1094 560 1088 l 773 1244 "},"Û":{"ha":1011,"x_min":90,"x_max":922,"o":"m 506 151 q 409 169 451 151 q 337 220 366 187 q 292 299 308 253 q 276 403 276 346 l 276 1004 l 90 1004 l 90 403 q 118 237 90 313 q 201 106 147 161 q 332 20 255 51 q 506 -11 409 -11 q 679 20 602 -11 q 810 106 756 51 q 893 237 865 161 q 922 403 922 313 l 922 1004 l 735 1004 l 735 403 q 720 299 735 345 q 675 219 704 252 q 602 169 645 187 q 506 151 560 151 m 759 1076 l 591 1228 l 420 1228 l 252 1076 l 382 1076 q 405 1078 392 1076 q 425 1087 417 1081 l 495 1133 q 501 1138 499 1135 q 506 1141 504 1140 q 511 1137 508 1139 q 516 1133 513 1135 l 586 1087 q 606 1078 594 1081 q 629 1076 619 1076 l 759 1076 "},"Ü":{"ha":1011,"x_min":90,"x_max":922,"o":"m 506 151 q 409 169 451 151 q 337 220 366 187 q 292 299 308 253 q 276 403 276 346 l 276 1004 l 90 1004 l 90 403 q 118 237 90 313 q 201 106 147 161 q 332 20 255 51 q 506 -11 409 -11 q 679 20 602 -11 q 810 106 756 51 q 893 237 865 161 q 922 403 922 313 l 922 1004 l 735 1004 l 735 403 q 720 299 735 345 q 675 219 704 252 q 602 169 645 187 q 506 151 560 151 m 449 1158 q 441 1193 449 1176 q 420 1223 433 1210 q 390 1244 407 1236 q 353 1251 372 1251 q 318 1244 335 1251 q 290 1223 302 1236 q 270 1193 277 1210 q 263 1158 263 1176 q 270 1122 263 1139 q 290 1093 277 1106 q 318 1074 302 1081 q 353 1067 335 1067 q 390 1074 372 1067 q 420 1093 407 1081 q 441 1122 433 1106 q 449 1158 449 1139 m 749 1158 q 741 1193 749 1176 q 722 1223 734 1210 q 692 1244 709 1236 q 656 1251 675 1251 q 620 1244 637 1251 q 590 1223 603 1236 q 570 1193 577 1210 q 563 1158 563 1176 q 570 1122 563 1139 q 590 1093 577 1106 q 620 1074 603 1081 q 656 1067 637 1067 q 692 1074 675 1067 q 722 1093 709 1081 q 741 1122 734 1106 q 749 1158 749 1139 "},"Ý":{"ha":909,"x_min":-5,"x_max":913,"o":"m 548 390 l 913 1004 l 748 1004 q 709 991 724 1004 q 686 963 694 978 l 503 627 q 476 571 488 598 q 456 518 465 544 q 434 570 446 544 q 406 627 422 597 l 222 963 q 198 992 213 981 q 160 1004 184 1004 l -5 1004 l 361 390 l 361 0 l 548 0 l 548 390 m 723 1244 l 532 1244 q 508 1243 518 1244 q 491 1239 499 1242 q 476 1230 483 1235 q 460 1216 469 1224 l 324 1076 l 459 1076 q 476 1076 469 1076 q 490 1079 483 1077 q 503 1085 497 1081 q 517 1094 510 1088 l 723 1244 "},"Þ":{"ha":868,"x_min":108,"x_max":824,"o":"m 294 181 l 435 181 q 606 206 533 181 q 727 274 678 230 q 800 378 776 317 q 824 512 824 439 q 801 641 824 582 q 731 742 778 700 q 609 808 683 785 q 435 832 535 832 l 294 832 l 294 1004 l 108 1004 l 108 0 l 294 0 l 294 181 m 294 327 l 294 688 l 435 688 q 524 675 486 688 q 588 640 563 663 q 625 585 613 617 q 638 512 638 552 q 625 435 638 469 q 588 377 613 401 q 524 340 563 353 q 435 327 486 327 l 294 327 "},"ß":{"ha":882,"x_min":122,"x_max":838,"o":"m 486 1022 q 334 996 401 1022 q 220 926 267 971 q 148 819 173 881 q 122 683 122 757 l 122 0 l 294 0 l 294 678 q 341 841 294 785 q 478 897 388 897 q 544 888 517 897 q 589 864 572 879 q 614 829 606 849 q 622 785 622 808 q 608 735 622 756 q 571 694 593 713 q 524 658 549 676 q 476 618 498 640 q 440 567 454 596 q 425 499 425 539 q 444 420 425 451 q 491 367 463 389 q 551 329 519 345 q 612 295 584 313 q 659 257 640 278 q 678 203 678 235 q 651 135 678 161 q 580 109 624 109 q 526 118 549 109 q 487 138 504 127 q 455 157 469 148 q 424 166 440 166 q 398 160 408 166 q 381 142 388 153 l 340 76 q 387 42 361 58 q 441 14 413 26 q 501 -5 470 2 q 565 -11 533 -11 q 670 5 620 -11 q 757 51 719 20 q 816 126 794 81 q 838 230 838 171 q 821 320 838 283 q 778 383 803 357 q 722 427 752 409 q 665 461 691 445 q 622 494 640 477 q 605 533 605 510 q 618 569 605 553 q 652 599 632 585 q 697 630 673 614 q 741 667 720 646 q 775 717 761 689 q 788 786 788 746 q 772 863 788 822 q 719 939 755 903 q 625 998 683 974 q 486 1022 567 1022 "},"à":{"ha":727,"x_min":56,"x_max":650,"o":"m 650 0 l 650 450 q 632 561 650 510 q 581 648 615 612 q 498 705 547 685 q 386 726 449 726 q 90 613 213 726 l 121 558 q 141 536 128 545 q 171 527 153 527 q 209 537 192 527 q 247 559 226 547 q 295 581 267 571 q 365 590 323 590 q 452 556 422 590 q 483 450 483 522 l 483 408 q 279 385 361 406 q 148 332 197 364 q 77 261 99 301 q 56 182 56 222 q 72 98 56 134 q 114 38 87 62 q 180 1 142 13 q 263 -11 218 -11 q 333 -5 301 -11 q 392 14 364 1 q 445 45 419 26 q 499 88 472 63 l 514 37 q 535 7 521 15 q 573 0 549 0 l 650 0 m 317 107 q 247 126 274 107 q 220 191 220 146 q 233 233 220 214 q 276 267 246 253 q 357 291 307 282 q 483 304 408 301 l 483 184 q 445 150 464 165 q 407 126 427 136 q 365 112 388 117 q 317 107 343 107 m 317 1015 l 157 1015 l 328 834 q 353 815 341 820 q 385 810 365 810 l 483 810 l 383 978 q 359 1006 373 997 q 317 1015 346 1015 "},"á":{"ha":727,"x_min":56,"x_max":650,"o":"m 650 0 l 650 450 q 632 561 650 510 q 581 648 615 612 q 498 705 547 685 q 386 726 449 726 q 90 613 213 726 l 121 558 q 141 536 128 545 q 171 527 153 527 q 209 537 192 527 q 247 559 226 547 q 295 581 267 571 q 365 590 323 590 q 452 556 422 590 q 483 450 483 522 l 483 408 q 279 385 361 406 q 148 332 197 364 q 77 261 99 301 q 56 182 56 222 q 72 98 56 134 q 114 38 87 62 q 180 1 142 13 q 263 -11 218 -11 q 333 -5 301 -11 q 392 14 364 1 q 445 45 419 26 q 499 88 472 63 l 514 37 q 535 7 521 15 q 573 0 549 0 l 650 0 m 317 107 q 247 126 274 107 q 220 191 220 146 q 233 233 220 214 q 276 267 246 253 q 357 291 307 282 q 483 304 408 301 l 483 184 q 445 150 464 165 q 407 126 427 136 q 365 112 388 117 q 317 107 343 107 m 619 1015 l 453 1015 q 411 1006 425 1015 q 387 978 397 997 l 288 810 l 391 810 q 423 815 410 810 q 448 834 435 820 l 619 1015 "},"â":{"ha":727,"x_min":56,"x_max":650,"o":"m 650 0 l 650 450 q 632 561 650 510 q 581 648 615 612 q 498 705 547 685 q 386 726 449 726 q 90 613 213 726 l 121 558 q 141 536 128 545 q 171 527 153 527 q 209 537 192 527 q 247 559 226 547 q 295 581 267 571 q 365 590 323 590 q 452 556 422 590 q 483 450 483 522 l 483 408 q 279 385 361 406 q 148 332 197 364 q 77 261 99 301 q 56 182 56 222 q 72 98 56 134 q 114 38 87 62 q 180 1 142 13 q 263 -11 218 -11 q 333 -5 301 -11 q 392 14 364 1 q 445 45 419 26 q 499 88 472 63 l 514 37 q 535 7 521 15 q 573 0 549 0 l 650 0 m 317 107 q 247 126 274 107 q 220 191 220 146 q 233 233 220 214 q 276 267 246 253 q 357 291 307 282 q 483 304 408 301 l 483 184 q 445 150 464 165 q 407 126 427 136 q 365 112 388 117 q 317 107 343 107 m 619 811 l 460 1004 l 299 1004 l 140 811 l 258 811 q 278 815 269 811 q 293 824 288 819 l 367 890 q 375 897 371 893 q 382 905 378 900 q 389 897 385 900 q 397 890 393 893 l 469 824 q 504 811 483 811 l 619 811 "},"ã":{"ha":727,"x_min":56,"x_max":650,"o":"m 650 0 l 650 450 q 632 561 650 510 q 581 648 615 612 q 498 705 547 685 q 386 726 449 726 q 90 613 213 726 l 121 558 q 141 536 128 545 q 171 527 153 527 q 209 537 192 527 q 247 559 226 547 q 295 581 267 571 q 365 590 323 590 q 452 556 422 590 q 483 450 483 522 l 483 408 q 279 385 361 406 q 148 332 197 364 q 77 261 99 301 q 56 182 56 222 q 72 98 56 134 q 114 38 87 62 q 180 1 142 13 q 263 -11 218 -11 q 333 -5 301 -11 q 392 14 364 1 q 445 45 419 26 q 499 88 472 63 l 514 37 q 535 7 521 15 q 573 0 549 0 l 650 0 m 317 107 q 247 126 274 107 q 220 191 220 146 q 233 233 220 214 q 276 267 246 253 q 357 291 307 282 q 483 304 408 301 l 483 184 q 445 150 464 165 q 407 126 427 136 q 365 112 388 117 q 317 107 343 107 m 453 944 q 424 953 440 944 q 389 972 408 962 q 348 992 370 983 q 301 1001 326 1001 q 245 988 271 1001 q 199 953 219 976 q 169 899 180 931 q 158 828 158 867 l 265 828 q 276 870 265 858 q 308 882 288 882 q 338 873 322 882 q 373 853 354 864 q 413 834 392 843 q 460 825 435 825 q 517 837 491 825 q 562 872 543 849 q 591 926 581 894 q 602 997 602 958 l 498 997 q 486 955 498 967 q 453 944 474 944 "},"ä":{"ha":727,"x_min":56,"x_max":650,"o":"m 650 0 l 650 450 q 632 561 650 510 q 581 648 615 612 q 498 705 547 685 q 386 726 449 726 q 90 613 213 726 l 121 558 q 141 536 128 545 q 171 527 153 527 q 209 537 192 527 q 247 559 226 547 q 295 581 267 571 q 365 590 323 590 q 452 556 422 590 q 483 450 483 522 l 483 408 q 279 385 361 406 q 148 332 197 364 q 77 261 99 301 q 56 182 56 222 q 72 98 56 134 q 114 38 87 62 q 180 1 142 13 q 263 -11 218 -11 q 333 -5 301 -11 q 392 14 364 1 q 445 45 419 26 q 499 88 472 63 l 514 37 q 535 7 521 15 q 573 0 549 0 l 650 0 m 317 107 q 247 126 274 107 q 220 191 220 146 q 233 233 220 214 q 276 267 246 253 q 357 291 307 282 q 483 304 408 301 l 483 184 q 445 150 464 165 q 407 126 427 136 q 365 112 388 117 q 317 107 343 107 m 345 897 q 338 935 345 917 q 316 966 330 953 q 285 987 303 979 q 248 994 267 994 q 212 987 229 994 q 182 966 195 979 q 161 935 169 953 q 153 897 153 917 q 161 861 153 878 q 182 831 169 844 q 212 811 195 819 q 248 804 229 804 q 285 811 267 804 q 316 831 303 819 q 338 861 330 844 q 345 897 345 878 m 605 897 q 597 935 605 917 q 576 966 590 953 q 545 987 563 979 q 508 994 528 994 q 472 987 489 994 q 441 966 454 979 q 421 935 428 953 q 413 897 413 917 q 421 861 413 878 q 441 831 428 844 q 472 811 454 819 q 508 804 489 804 q 545 811 528 804 q 576 831 563 819 q 597 861 590 844 q 605 897 605 878 "},"å":{"ha":727,"x_min":56,"x_max":650,"o":"m 650 0 l 650 450 q 632 561 650 510 q 581 648 615 612 q 498 705 547 685 q 386 726 449 726 q 90 613 213 726 l 121 558 q 141 536 128 545 q 171 527 153 527 q 209 537 192 527 q 247 559 226 547 q 295 581 267 571 q 365 590 323 590 q 452 556 422 590 q 483 450 483 522 l 483 408 q 279 385 361 406 q 148 332 197 364 q 77 261 99 301 q 56 182 56 222 q 72 98 56 134 q 114 38 87 62 q 180 1 142 13 q 263 -11 218 -11 q 333 -5 301 -11 q 392 14 364 1 q 445 45 419 26 q 499 88 472 63 l 514 37 q 535 7 521 15 q 573 0 549 0 l 650 0 m 317 107 q 247 126 274 107 q 220 191 220 146 q 233 233 220 214 q 276 267 246 253 q 357 291 307 282 q 483 304 408 301 l 483 184 q 445 150 464 165 q 407 126 427 136 q 365 112 388 117 q 317 107 343 107 m 225 920 q 238 863 225 889 q 271 819 250 838 q 320 791 292 801 q 378 781 348 781 q 438 791 410 781 q 488 819 467 801 q 523 863 510 838 q 535 920 535 889 q 523 978 535 952 q 488 1024 510 1005 q 438 1053 467 1042 q 378 1063 410 1063 q 320 1053 348 1063 q 271 1024 292 1042 q 238 978 250 1005 q 225 920 225 952 m 318 920 q 334 966 318 949 q 381 983 351 983 q 426 966 409 983 q 442 920 442 949 q 426 876 442 894 q 381 858 409 858 q 334 876 351 858 q 318 920 318 894 "},"æ":{"ha":1147,"x_min":56,"x_max":1099,"o":"m 815 724 q 676 693 735 724 q 578 611 617 663 q 499 695 551 665 q 367 726 448 726 q 218 698 285 726 q 90 613 151 669 l 121 558 q 141 536 128 545 q 171 527 153 527 q 209 538 192 527 q 247 561 226 549 q 295 584 267 574 q 365 595 323 595 q 452 558 422 595 q 483 450 483 522 l 483 426 q 279 401 361 423 q 148 346 197 379 q 77 272 99 313 q 56 191 56 231 q 72 104 56 142 q 117 41 88 66 q 187 2 146 15 q 281 -11 228 -11 q 365 -3 323 -11 q 443 22 406 5 q 510 66 480 40 q 562 130 541 92 q 670 24 604 58 q 811 -10 735 -10 q 885 -5 847 -10 q 961 14 924 1 q 1032 50 998 28 q 1094 106 1066 73 l 1049 165 q 1035 176 1043 172 q 1014 181 1026 181 q 986 172 999 181 q 953 151 973 163 q 905 131 934 140 q 828 122 875 122 q 703 170 751 122 q 645 321 655 219 l 1060 321 q 1080 324 1072 321 q 1091 334 1087 327 q 1097 355 1095 342 q 1099 387 1099 367 q 1077 527 1099 465 q 1018 633 1056 590 q 928 700 980 677 q 815 724 876 724 m 483 321 l 483 289 q 470 206 483 241 q 436 150 458 172 q 385 117 415 128 q 322 107 356 107 q 247 129 274 107 q 220 199 220 151 q 233 243 220 222 q 276 280 246 264 q 357 307 307 296 q 483 321 408 317 m 808 601 q 869 586 843 601 q 913 547 896 572 q 938 490 930 522 q 947 424 947 458 l 646 424 q 695 555 655 508 q 808 601 735 601 "},"ç":{"ha":663,"x_min":44,"x_max":644,"o":"m 281 -158 q 262 -174 266 -158 l 246 -226 q 295 -238 270 -234 q 348 -242 319 -242 q 417 -235 385 -242 q 470 -215 448 -228 q 505 -183 492 -201 q 517 -141 517 -164 q 492 -80 517 -106 q 405 -38 467 -53 l 413 -8 q 537 24 477 -2 q 644 106 597 50 l 595 169 q 564 185 583 185 q 535 175 548 185 q 505 152 522 165 q 462 130 488 140 q 396 120 437 120 q 322 136 355 120 q 267 182 290 151 q 232 256 244 212 q 219 358 219 301 q 231 456 219 413 q 264 530 242 499 q 321 577 287 560 q 400 593 355 593 q 459 585 435 593 q 501 567 483 577 q 531 549 518 557 q 556 541 543 541 q 577 547 570 541 q 592 562 585 552 l 638 624 q 530 698 590 672 q 390 724 469 724 q 241 696 306 724 q 133 619 176 668 q 66 503 89 570 q 44 358 44 436 q 64 217 44 280 q 119 108 84 154 q 203 33 155 62 q 307 -6 251 4 l 281 -93 q 358 -109 333 -100 q 383 -137 383 -117 q 371 -159 383 -150 q 337 -167 360 -167 q 318 -166 326 -167 q 303 -162 310 -165 q 291 -159 297 -160 q 281 -158 286 -158 "},"è":{"ha":742,"x_min":44,"x_max":694,"o":"m 386 724 q 243 696 306 724 q 135 620 179 668 q 67 509 91 573 q 44 372 44 444 q 71 207 44 278 q 145 87 98 135 q 256 14 192 39 q 394 -10 320 -10 q 472 -5 432 -10 q 550 14 512 1 q 624 50 589 28 q 688 106 660 73 l 638 169 q 625 181 633 176 q 607 185 617 185 q 574 175 591 185 q 534 153 557 165 q 482 132 512 142 q 410 122 451 122 q 274 174 325 122 q 215 335 222 225 l 655 335 q 674 338 667 335 q 686 348 682 341 q 693 368 691 356 q 694 401 694 381 q 672 538 694 478 q 608 639 649 598 q 510 702 567 681 q 386 724 453 724 m 390 601 q 456 588 428 601 q 503 553 485 575 q 531 501 522 531 q 540 438 540 472 l 218 438 q 272 558 230 516 q 390 601 315 601 m 328 1015 l 168 1015 l 340 834 q 364 815 352 820 q 396 810 376 810 l 494 810 l 394 978 q 370 1006 384 997 q 328 1015 357 1015 "},"é":{"ha":742,"x_min":44,"x_max":694,"o":"m 386 724 q 243 696 306 724 q 135 620 179 668 q 67 509 91 573 q 44 372 44 444 q 71 207 44 278 q 145 87 98 135 q 256 14 192 39 q 394 -10 320 -10 q 472 -5 432 -10 q 550 14 512 1 q 624 50 589 28 q 688 106 660 73 l 638 169 q 625 181 633 176 q 607 185 617 185 q 574 175 591 185 q 534 153 557 165 q 482 132 512 142 q 410 122 451 122 q 274 174 325 122 q 215 335 222 225 l 655 335 q 674 338 667 335 q 686 348 682 341 q 693 368 691 356 q 694 401 694 381 q 672 538 694 478 q 608 639 649 598 q 510 702 567 681 q 386 724 453 724 m 390 601 q 456 588 428 601 q 503 553 485 575 q 531 501 522 531 q 540 438 540 472 l 218 438 q 272 558 230 516 q 390 601 315 601 m 631 1015 l 464 1015 q 422 1006 436 1015 q 398 978 408 997 l 299 810 l 402 810 q 434 815 422 810 q 459 834 446 820 l 631 1015 "},"ê":{"ha":742,"x_min":44,"x_max":694,"o":"m 386 724 q 243 696 306 724 q 135 620 179 668 q 67 509 91 573 q 44 372 44 444 q 71 207 44 278 q 145 87 98 135 q 256 14 192 39 q 394 -10 320 -10 q 472 -5 432 -10 q 550 14 512 1 q 624 50 589 28 q 688 106 660 73 l 638 169 q 625 181 633 176 q 607 185 617 185 q 574 175 591 185 q 534 153 557 165 q 482 132 512 142 q 410 122 451 122 q 274 174 325 122 q 215 335 222 225 l 655 335 q 674 338 667 335 q 686 348 682 341 q 693 368 691 356 q 694 401 694 381 q 672 538 694 478 q 608 639 649 598 q 510 702 567 681 q 386 724 453 724 m 390 601 q 456 588 428 601 q 503 553 485 575 q 531 501 522 531 q 540 438 540 472 l 218 438 q 272 558 230 516 q 390 601 315 601 m 630 811 l 471 1004 l 310 1004 l 151 811 l 269 811 q 289 815 280 811 q 304 824 299 819 l 378 890 q 386 897 382 893 q 393 905 390 900 q 400 897 397 900 q 408 890 404 893 l 481 824 q 515 811 494 811 l 630 811 "},"ë":{"ha":742,"x_min":44,"x_max":694,"o":"m 386 724 q 243 696 306 724 q 135 620 179 668 q 67 509 91 573 q 44 372 44 444 q 71 207 44 278 q 145 87 98 135 q 256 14 192 39 q 394 -10 320 -10 q 472 -5 432 -10 q 550 14 512 1 q 624 50 589 28 q 688 106 660 73 l 638 169 q 625 181 633 176 q 607 185 617 185 q 574 175 591 185 q 534 153 557 165 q 482 132 512 142 q 410 122 451 122 q 274 174 325 122 q 215 335 222 225 l 655 335 q 674 338 667 335 q 686 348 682 341 q 693 368 691 356 q 694 401 694 381 q 672 538 694 478 q 608 639 649 598 q 510 702 567 681 q 386 724 453 724 m 390 601 q 456 588 428 601 q 503 553 485 575 q 531 501 522 531 q 540 438 540 472 l 218 438 q 272 558 230 516 q 390 601 315 601 m 356 897 q 349 935 356 917 q 327 966 341 953 q 296 987 314 979 q 259 994 278 994 q 223 987 240 994 q 193 966 206 979 q 172 935 180 953 q 165 897 165 917 q 172 861 165 878 q 193 831 180 844 q 223 811 206 819 q 259 804 240 804 q 296 811 278 804 q 327 831 314 819 q 349 861 341 844 q 356 897 356 878 m 616 897 q 608 935 616 917 q 588 966 601 953 q 557 987 574 979 q 519 994 539 994 q 483 987 500 994 q 452 966 465 979 q 432 935 440 953 q 424 897 424 917 q 432 861 424 878 q 452 831 440 844 q 483 811 465 819 q 519 804 500 804 q 557 811 539 804 q 588 831 574 819 q 608 861 601 844 q 616 897 616 878 "},"ì":{"ha":376,"x_min":-28,"x_max":297,"o":"m 274 713 l 103 713 l 103 0 l 274 0 l 274 713 m 132 1015 l -28 1015 l 143 834 q 168 815 156 820 q 199 810 180 810 l 297 810 l 198 978 q 174 1006 188 997 q 132 1015 160 1015 "},"í":{"ha":376,"x_min":103,"x_max":434,"o":"m 274 713 l 103 713 l 103 0 l 274 0 l 274 713 m 434 1015 l 267 1015 q 226 1006 240 1015 q 201 978 212 997 l 103 810 l 206 810 q 237 815 225 810 q 263 834 249 820 l 434 1015 "},"î":{"ha":376,"x_min":-46,"x_max":433,"o":"m 274 713 l 103 713 l 103 0 l 274 0 l 274 713 m 433 811 l 274 1004 l 113 1004 l -46 811 l 73 811 q 93 815 83 811 q 108 824 102 819 l 182 890 q 189 897 185 893 q 197 905 193 900 q 204 897 200 900 q 211 890 208 893 l 284 824 q 319 811 297 811 l 433 811 "},"ï":{"ha":376,"x_min":-32,"x_max":419,"o":"m 274 713 l 103 713 l 103 0 l 274 0 l 274 713 m 160 897 q 152 935 160 917 q 131 966 144 953 q 100 987 117 979 q 63 994 82 994 q 27 987 44 994 q -3 966 10 979 q -24 935 -17 953 q -32 897 -32 917 q -24 861 -32 878 q -3 831 -17 844 q 27 811 10 819 q 63 804 44 804 q 100 811 82 804 q 131 831 117 819 q 152 861 144 844 q 160 897 160 878 m 419 897 q 412 935 419 917 q 391 966 404 953 q 360 987 378 979 q 323 994 342 994 q 286 987 303 994 q 256 966 269 979 q 235 935 243 953 q 228 897 228 917 q 235 861 228 878 q 256 831 243 844 q 286 811 269 819 q 323 804 303 804 q 360 811 342 804 q 391 831 378 819 q 412 861 404 844 q 419 897 419 878 "},"ð":{"ha":789,"x_min":46,"x_max":740,"o":"m 268 738 l 300 683 l 438 772 q 531 680 497 733 q 581 553 566 626 q 483 623 538 599 q 363 647 428 647 q 232 621 290 647 q 132 552 174 595 q 68 451 91 508 q 46 329 46 393 q 72 186 46 249 q 143 80 98 124 q 250 13 188 36 q 384 -10 312 -10 q 537 19 470 -10 q 649 104 603 48 q 717 240 694 160 q 740 422 740 320 q 728 556 740 494 q 693 669 716 617 q 638 765 670 722 q 567 844 606 808 l 623 876 q 638 890 633 881 q 643 908 643 898 q 636 929 643 917 l 602 985 l 480 906 q 357 961 422 940 q 222 994 292 983 l 202 935 q 197 906 197 917 q 208 873 197 885 q 237 856 219 860 q 289 840 264 848 q 335 824 313 833 l 283 794 q 261 760 261 781 q 268 738 261 749 m 388 120 q 321 134 352 120 q 266 174 290 147 q 230 239 243 200 q 216 328 216 277 q 228 401 216 367 q 263 461 240 435 q 319 501 285 487 q 397 516 353 516 q 462 506 433 516 q 513 479 491 496 q 552 439 535 462 q 578 390 568 416 q 561 265 576 317 q 522 182 547 214 q 463 135 497 149 q 388 120 428 120 "},"ñ":{"ha":790,"x_min":92,"x_max":713,"o":"m 92 0 l 263 0 l 263 515 q 337 570 298 550 q 420 590 376 590 q 511 555 481 590 q 541 453 541 519 l 541 0 l 713 0 l 713 453 q 697 563 713 513 q 651 648 681 613 q 576 704 621 684 q 472 724 531 724 q 406 717 436 724 q 348 697 375 710 q 298 665 322 683 q 252 625 274 647 l 240 681 q 197 713 230 713 l 92 713 l 92 0 m 476 944 q 446 953 462 944 q 411 972 430 962 q 370 992 392 983 q 324 1001 349 1001 q 267 988 293 1001 q 222 953 241 976 q 191 899 202 931 q 181 828 181 867 l 287 828 q 298 870 287 858 q 330 882 310 882 q 360 873 344 882 q 395 853 376 864 q 435 834 414 843 q 482 825 457 825 q 539 837 513 825 q 584 872 565 849 q 614 926 603 894 q 624 997 624 958 l 520 997 q 508 955 520 967 q 476 944 497 944 "},"ò":{"ha":790,"x_min":42,"x_max":747,"o":"m 396 724 q 251 698 316 724 q 139 625 185 672 q 68 510 93 578 q 42 358 42 442 q 68 205 42 273 q 139 89 93 137 q 251 15 185 41 q 396 -10 316 -10 q 541 15 476 -10 q 651 89 606 41 q 722 205 697 137 q 747 358 747 273 q 722 510 747 442 q 651 625 697 578 q 541 698 606 672 q 396 724 476 724 m 396 122 q 263 182 306 122 q 219 356 219 242 q 263 532 219 471 q 396 592 306 592 q 527 532 485 592 q 570 356 570 472 q 527 181 570 241 q 396 122 485 122 m 335 1015 l 174 1015 l 346 834 q 370 815 358 820 q 402 810 383 810 l 500 810 l 401 978 q 377 1006 390 997 q 335 1015 363 1015 "},"ó":{"ha":790,"x_min":42,"x_max":747,"o":"m 396 724 q 251 698 316 724 q 139 625 185 672 q 68 510 93 578 q 42 358 42 442 q 68 205 42 273 q 139 89 93 137 q 251 15 185 41 q 396 -10 316 -10 q 541 15 476 -10 q 651 89 606 41 q 722 205 697 137 q 747 358 747 273 q 722 510 747 442 q 651 625 697 578 q 541 698 606 672 q 396 724 476 724 m 396 122 q 263 182 306 122 q 219 356 219 242 q 263 532 219 471 q 396 592 306 592 q 527 532 485 592 q 570 356 570 472 q 527 181 570 241 q 396 122 485 122 m 637 1015 l 470 1015 q 428 1006 442 1015 q 404 978 415 997 l 306 810 l 408 810 q 440 815 428 810 q 465 834 452 820 l 637 1015 "},"ô":{"ha":790,"x_min":42,"x_max":747,"o":"m 396 724 q 251 698 316 724 q 139 625 185 672 q 68 510 93 578 q 42 358 42 442 q 68 205 42 273 q 139 89 93 137 q 251 15 185 41 q 396 -10 316 -10 q 541 15 476 -10 q 651 89 606 41 q 722 205 697 137 q 747 358 747 273 q 722 510 747 442 q 651 625 697 578 q 541 698 606 672 q 396 724 476 724 m 396 122 q 263 182 306 122 q 219 356 219 242 q 263 532 219 471 q 396 592 306 592 q 527 532 485 592 q 570 356 570 472 q 527 181 570 241 q 396 122 485 122 m 636 811 l 477 1004 l 316 1004 l 157 811 l 276 811 q 295 815 286 811 q 310 824 305 819 l 385 890 q 392 897 388 893 q 399 905 396 900 q 407 897 403 900 q 414 890 410 893 l 487 824 q 522 811 500 811 l 636 811 "},"õ":{"ha":790,"x_min":42,"x_max":747,"o":"m 396 724 q 251 698 316 724 q 139 625 185 672 q 68 510 93 578 q 42 358 42 442 q 68 205 42 273 q 139 89 93 137 q 251 15 185 41 q 396 -10 316 -10 q 541 15 476 -10 q 651 89 606 41 q 722 205 697 137 q 747 358 747 273 q 722 510 747 442 q 651 625 697 578 q 541 698 606 672 q 396 724 476 724 m 396 122 q 263 182 306 122 q 219 356 219 242 q 263 532 219 471 q 396 592 306 592 q 527 532 485 592 q 570 356 570 472 q 527 181 570 241 q 396 122 485 122 m 471 944 q 441 953 457 944 q 406 972 425 962 q 366 992 388 983 q 319 1001 344 1001 q 262 988 288 1001 q 217 953 236 976 q 186 899 197 931 q 176 828 176 867 l 282 828 q 293 870 282 858 q 325 882 305 882 q 355 873 339 882 q 390 853 372 864 q 431 834 409 843 q 477 825 452 825 q 534 837 508 825 q 579 872 560 849 q 609 926 598 894 q 619 997 619 958 l 515 997 q 503 955 515 967 q 471 944 492 944 "},"ö":{"ha":790,"x_min":42,"x_max":747,"o":"m 396 724 q 251 698 316 724 q 139 625 185 672 q 68 510 93 578 q 42 358 42 442 q 68 205 42 273 q 139 89 93 137 q 251 15 185 41 q 396 -10 316 -10 q 541 15 476 -10 q 651 89 606 41 q 722 205 697 137 q 747 358 747 273 q 722 510 747 442 q 651 625 697 578 q 541 698 606 672 q 396 724 476 724 m 396 122 q 263 182 306 122 q 219 356 219 242 q 263 532 219 471 q 396 592 306 592 q 527 532 485 592 q 570 356 570 472 q 527 181 570 241 q 396 122 485 122 m 363 897 q 355 935 363 917 q 334 966 347 953 q 302 987 320 979 q 265 994 285 994 q 230 987 247 994 q 199 966 213 979 q 178 935 186 953 q 171 897 171 917 q 178 861 171 878 q 199 831 186 844 q 230 811 213 819 q 265 804 247 804 q 302 811 285 804 q 334 831 320 819 q 355 861 347 844 q 363 897 363 878 m 622 897 q 615 935 622 917 q 594 966 607 953 q 563 987 581 979 q 526 994 545 994 q 489 987 506 994 q 459 966 472 979 q 438 935 446 953 q 431 897 431 917 q 438 861 431 878 q 459 831 446 844 q 489 811 472 819 q 526 804 506 804 q 563 811 545 804 q 594 831 581 819 q 615 861 607 844 q 622 897 622 878 "},"÷":{"ha":806,"x_min":63,"x_max":741,"o":"m 63 530 l 63 403 l 741 403 l 741 530 l 63 530 m 297 713 q 305 672 297 691 q 326 639 313 653 q 360 617 340 625 q 401 609 379 609 q 442 617 423 609 q 476 639 462 625 q 499 672 490 653 q 507 713 507 691 q 499 754 507 735 q 476 788 490 774 q 442 810 462 801 q 401 818 423 818 q 360 810 379 818 q 326 788 340 801 q 305 754 313 774 q 297 713 297 735 m 297 219 q 305 177 297 197 q 326 144 313 158 q 360 123 340 131 q 401 115 379 115 q 442 123 423 115 q 476 144 462 131 q 499 177 490 158 q 507 219 507 197 q 499 260 507 240 q 476 293 490 279 q 442 315 462 307 q 401 324 423 324 q 360 315 379 324 q 326 293 340 307 q 305 260 313 279 q 297 219 297 240 "},"ø":{"ha":790,"x_min":30,"x_max":774,"o":"m 655 620 l 774 781 l 689 781 q 663 779 674 781 q 644 771 653 776 q 628 757 635 765 q 611 735 620 748 l 572 683 q 490 713 535 703 q 396 724 446 724 q 251 698 316 724 q 139 625 185 672 q 68 510 93 578 q 42 358 42 442 q 67 207 42 274 q 137 92 91 140 l 30 -53 l 93 -53 q 148 -42 119 -53 q 196 -3 176 -31 l 219 29 q 302 0 258 10 q 396 -10 346 -10 q 541 15 476 -10 q 651 89 606 41 q 722 205 697 137 q 747 358 747 273 q 723 506 747 440 q 655 620 699 572 m 208 356 q 257 534 208 472 q 396 597 305 597 q 492 574 453 597 l 231 219 q 208 356 208 274 m 396 116 q 300 138 338 116 l 560 490 q 576 431 570 464 q 581 356 581 397 q 533 178 581 241 q 396 116 485 116 "},"ù":{"ha":790,"x_min":77,"x_max":698,"o":"m 249 713 l 77 713 l 77 260 q 93 150 77 200 q 139 65 108 101 q 214 9 169 28 q 317 -11 259 -11 q 384 -4 353 -11 q 441 16 415 3 q 492 48 468 29 q 538 88 515 66 l 549 31 q 593 0 560 0 l 698 0 l 698 713 l 526 713 l 526 197 q 453 143 492 163 q 369 123 414 123 q 279 159 309 123 q 249 260 249 194 l 249 713 m 331 1015 l 171 1015 l 342 834 q 367 815 355 820 q 399 810 379 810 l 497 810 l 397 978 q 373 1006 387 997 q 331 1015 360 1015 "},"ú":{"ha":790,"x_min":77,"x_max":698,"o":"m 249 713 l 77 713 l 77 260 q 93 150 77 200 q 139 65 108 101 q 214 9 169 28 q 317 -11 259 -11 q 384 -4 353 -11 q 441 16 415 3 q 492 48 468 29 q 538 88 515 66 l 549 31 q 593 0 560 0 l 698 0 l 698 713 l 526 713 l 526 197 q 453 143 492 163 q 369 123 414 123 q 279 159 309 123 q 249 260 249 194 l 249 713 m 633 1015 l 467 1015 q 425 1006 439 1015 q 401 978 411 997 l 302 810 l 405 810 q 436 815 424 810 q 462 834 449 820 l 633 1015 "},"û":{"ha":790,"x_min":77,"x_max":698,"o":"m 249 713 l 77 713 l 77 260 q 93 150 77 200 q 139 65 108 101 q 214 9 169 28 q 317 -11 259 -11 q 384 -4 353 -11 q 441 16 415 3 q 492 48 468 29 q 538 88 515 66 l 549 31 q 593 0 560 0 l 698 0 l 698 713 l 526 713 l 526 197 q 453 143 492 163 q 369 123 414 123 q 279 159 309 123 q 249 260 249 194 l 249 713 m 633 811 l 474 1004 l 313 1004 l 153 811 l 272 811 q 292 815 283 811 q 307 824 301 819 l 381 890 q 389 897 385 893 q 396 905 392 900 q 403 897 399 900 q 410 890 407 893 l 483 824 q 518 811 497 811 l 633 811 "},"ü":{"ha":790,"x_min":77,"x_max":698,"o":"m 249 713 l 77 713 l 77 260 q 93 150 77 200 q 139 65 108 101 q 214 9 169 28 q 317 -11 259 -11 q 384 -4 353 -11 q 441 16 415 3 q 492 48 468 29 q 538 88 515 66 l 549 31 q 593 0 560 0 l 698 0 l 698 713 l 526 713 l 526 197 q 453 143 492 163 q 369 123 414 123 q 279 159 309 123 q 249 260 249 194 l 249 713 m 359 897 q 351 935 359 917 q 330 966 344 953 q 299 987 317 979 q 262 994 281 994 q 226 987 243 994 q 196 966 209 979 q 175 935 183 953 q 167 897 167 917 q 175 861 167 878 q 196 831 183 844 q 226 811 209 819 q 262 804 243 804 q 299 811 281 804 q 330 831 317 819 q 351 861 344 844 q 359 897 359 878 m 619 897 q 611 935 619 917 q 590 966 603 953 q 559 987 577 979 q 522 994 542 994 q 485 987 503 994 q 455 966 468 979 q 435 935 442 953 q 427 897 427 917 q 435 861 427 878 q 455 831 442 844 q 485 811 468 819 q 522 804 503 804 q 559 811 542 804 q 590 831 577 819 q 611 861 603 844 q 619 897 619 878 "},"ý":{"ha":741,"x_min":5,"x_max":733,"o":"m 344 -196 l 733 713 l 595 713 q 566 703 579 713 q 548 681 553 694 l 405 312 q 391 274 397 292 q 378 235 384 255 q 369 274 374 254 q 356 311 363 293 l 203 681 q 187 703 198 693 q 155 713 176 713 l 5 713 l 293 53 l 160 -233 l 288 -233 q 325 -223 313 -233 q 344 -196 337 -214 m 624 1015 l 458 1015 q 416 1006 430 1015 q 392 978 402 997 l 293 810 l 396 810 q 427 815 415 810 q 453 834 440 820 l 624 1015 "},"þ":{"ha":785,"x_min":92,"x_max":747,"o":"m 92 -233 l 263 -233 l 263 71 q 298 37 280 52 q 338 11 316 22 q 385 -5 359 1 q 441 -10 410 -10 q 568 18 511 -10 q 664 96 624 46 q 726 214 704 146 q 747 362 747 282 q 728 517 747 449 q 674 630 709 584 q 591 700 639 676 q 484 724 542 724 q 359 697 413 724 q 263 625 306 670 l 263 1032 l 92 1032 l 92 -233 m 425 590 q 486 578 459 590 q 531 538 513 565 q 560 468 550 511 q 570 362 570 424 q 558 255 570 300 q 525 179 547 209 q 471 135 503 149 q 401 120 440 120 q 327 134 361 120 q 263 185 292 149 l 263 504 q 334 568 296 545 q 425 590 372 590 "},"ÿ":{"ha":741,"x_min":5,"x_max":733,"o":"m 344 -196 l 733 713 l 595 713 q 566 703 579 713 q 548 681 553 694 l 405 312 q 391 274 397 292 q 378 235 384 255 q 369 274 374 254 q 356 311 363 293 l 203 681 q 187 703 198 693 q 155 713 176 713 l 5 713 l 293 53 l 160 -233 l 288 -233 q 325 -223 313 -233 q 344 -196 337 -214 m 350 897 q 342 935 350 917 q 321 966 335 953 q 290 987 308 979 q 253 994 272 994 q 217 987 234 994 q 187 966 200 979 q 166 935 174 953 q 158 897 158 917 q 166 861 158 878 q 187 831 174 844 q 217 811 200 819 q 253 804 234 804 q 290 811 272 804 q 321 831 308 819 q 342 861 335 844 q 350 897 350 878 m 610 897 q 602 935 610 917 q 581 966 594 953 q 550 987 568 979 q 513 994 533 994 q 476 987 494 994 q 446 966 459 979 q 426 935 433 953 q 418 897 418 917 q 426 861 418 878 q 446 831 433 844 q 476 811 459 819 q 513 804 494 804 q 550 811 533 804 q 581 831 568 819 q 602 861 594 844 q 610 897 610 878 "},"Ą":{"ha":986,"x_min":4,"x_max":1017,"o":"m 975 -130 q 968 -131 972 -130 q 959 -135 964 -133 q 945 -138 953 -137 q 924 -140 937 -140 q 887 -127 900 -140 q 874 -94 874 -115 q 880 -65 874 -79 q 897 -39 886 -51 q 920 -17 907 -27 q 947 0 933 -8 l 984 0 l 590 1004 l 399 1004 l 4 0 l 149 0 q 189 13 173 0 q 211 42 206 26 l 286 247 l 702 247 l 777 42 q 800 12 784 24 q 840 0 815 0 l 844 0 q 771 -64 797 -28 q 746 -137 746 -99 q 783 -211 746 -183 q 888 -240 819 -240 q 960 -230 926 -240 q 1017 -204 994 -219 l 991 -141 q 975 -130 988 -130 m 334 379 l 456 712 q 474 765 465 735 q 494 831 484 796 q 514 766 503 796 q 532 713 524 735 l 654 379 l 334 379 "},"ą":{"ha":727,"x_min":56,"x_max":720,"o":"m 650 0 l 650 450 q 632 561 650 510 q 581 648 615 612 q 498 705 547 685 q 386 726 449 726 q 90 613 213 726 l 121 558 q 141 536 128 546 q 171 527 153 527 q 209 537 192 527 q 247 559 226 547 q 295 581 267 571 q 365 590 323 590 q 452 556 422 590 q 483 450 483 522 l 483 408 q 279 385 361 406 q 148 332 197 364 q 77 261 99 301 q 56 182 56 222 q 72 98 56 134 q 114 38 87 62 q 180 1 142 13 q 263 -11 218 -11 q 333 -5 301 -11 q 392 14 364 1 q 445 45 419 26 q 499 88 472 63 l 514 37 q 527 13 519 21 q 550 2 536 5 q 475 -63 501 -27 q 449 -137 449 -99 q 485 -211 449 -183 q 590 -240 522 -240 q 663 -230 628 -240 q 720 -204 697 -219 l 694 -141 q 678 -130 690 -130 q 670 -131 674 -130 q 661 -135 667 -133 q 648 -138 656 -137 q 626 -140 640 -140 q 590 -127 603 -140 q 576 -94 576 -115 q 583 -65 576 -79 q 599 -39 589 -51 q 623 -17 610 -27 q 650 0 636 -8 m 317 107 q 247 126 274 107 q 220 191 220 146 q 233 233 220 214 q 276 267 246 253 q 357 291 307 282 q 483 304 408 301 l 483 184 q 445 150 464 165 q 407 126 427 136 q 365 112 388 117 q 317 107 343 107 "},"Ć":{"ha":931,"x_min":43,"x_max":897,"o":"m 792 237 q 775 233 783 237 q 760 223 767 229 q 714 188 738 202 q 665 165 691 174 q 608 151 639 156 q 539 147 577 147 q 419 171 475 147 q 323 240 364 195 q 258 351 282 285 q 234 502 234 417 q 258 650 234 584 q 325 761 282 715 q 427 832 367 807 q 557 856 486 856 q 657 844 617 856 q 722 817 696 831 q 764 790 747 802 q 797 777 781 777 q 820 783 812 777 q 835 798 829 790 l 897 885 q 754 980 838 944 q 558 1015 670 1015 q 349 977 444 1015 q 186 872 254 940 q 81 709 118 803 q 43 502 43 615 q 77 296 43 390 q 174 133 110 201 q 326 27 237 65 q 527 -11 415 -11 q 741 29 652 -11 q 892 145 831 69 l 818 225 q 792 237 807 237 m 820 1244 l 629 1244 q 606 1243 615 1244 q 588 1239 596 1242 q 573 1230 581 1235 q 558 1216 566 1224 l 422 1076 l 556 1076 q 573 1076 566 1076 q 587 1079 581 1077 q 600 1085 594 1081 q 615 1094 607 1088 l 820 1244 "},"ć":{"ha":663,"x_min":44,"x_max":644,"o":"m 592 562 l 638 624 q 530 698 590 672 q 390 724 469 724 q 241 696 306 724 q 133 619 176 668 q 66 503 89 570 q 44 358 44 436 q 69 202 44 270 q 138 86 94 133 q 240 14 181 39 q 364 -10 298 -10 q 440 -5 401 -10 q 514 14 478 1 q 583 50 549 28 q 644 106 616 73 l 595 169 q 564 185 585 185 q 535 175 548 185 q 505 152 522 165 q 462 130 488 140 q 396 120 437 120 q 322 136 355 120 q 267 182 290 151 q 232 256 244 212 q 219 358 219 301 q 231 456 219 413 q 264 530 242 499 q 321 577 287 560 q 400 593 355 593 q 459 585 435 593 q 501 567 483 577 q 531 549 518 557 q 556 541 543 541 q 577 547 570 541 q 592 562 585 552 m 628 1015 l 462 1015 q 420 1006 434 1015 q 396 978 406 997 l 297 810 l 400 810 q 432 815 419 810 q 457 834 444 820 l 628 1015 "},"Ę":{"ha":804,"x_min":101,"x_max":742,"o":"m 699 -130 q 692 -131 696 -130 q 683 -135 688 -133 q 669 -138 678 -137 q 648 -140 661 -140 q 611 -127 624 -140 q 598 -94 598 -115 q 604 -65 598 -79 q 621 -39 610 -51 q 644 -17 631 -27 q 672 0 658 -8 l 735 0 l 735 149 l 290 149 l 290 433 l 640 433 l 640 577 l 290 577 l 290 856 l 735 856 l 735 1004 l 101 1004 l 101 0 l 568 0 q 495 -64 521 -28 q 470 -137 470 -99 q 507 -211 470 -183 q 612 -240 544 -240 q 684 -230 650 -240 q 742 -204 719 -219 l 715 -141 q 699 -130 712 -130 "},"ę":{"ha":742,"x_min":44,"x_max":694,"o":"m 517 -130 q 510 -131 514 -130 q 501 -135 506 -133 q 488 -138 496 -137 q 466 -140 479 -140 q 429 -127 442 -140 q 416 -94 416 -115 q 422 -66 416 -80 q 437 -41 428 -53 q 459 -19 447 -29 q 485 -2 472 -10 q 594 33 540 8 q 688 106 647 59 l 638 169 q 607 185 628 185 q 574 175 591 185 q 534 153 557 165 q 482 132 512 142 q 410 122 451 122 q 274 174 325 122 q 215 335 222 225 l 655 335 q 674 338 667 335 q 686 348 682 341 q 693 368 691 356 q 694 401 694 381 q 672 538 694 478 q 608 639 649 598 q 510 702 567 681 q 386 724 453 724 q 243 696 306 724 q 135 620 179 668 q 67 509 91 573 q 44 372 44 444 q 69 213 44 282 q 138 95 94 143 q 241 20 181 47 q 371 -10 301 -6 q 310 -69 331 -37 q 288 -137 288 -102 q 325 -211 288 -183 q 430 -240 362 -240 q 502 -230 468 -240 q 560 -204 537 -219 l 533 -141 q 517 -130 530 -130 m 390 601 q 456 588 428 601 q 503 553 485 575 q 531 501 522 531 q 540 438 540 472 l 218 438 q 272 558 230 516 q 390 601 315 601 "},"ı":{"ha":376,"x_min":103,"x_max":274,"o":"m 274 713 l 103 713 l 103 0 l 274 0 l 274 713 "},"Ł":{"ha":765,"x_min":24,"x_max":738,"o":"m 335 604 l 335 1004 l 149 1004 l 149 519 l 45 466 q 24 433 24 455 l 24 304 l 149 367 l 149 0 l 738 0 l 738 154 l 335 154 l 335 449 l 561 566 q 584 603 584 578 l 584 728 l 335 604 "},"ł":{"ha":471,"x_min":36,"x_max":435,"o":"m 322 1032 l 150 1032 l 150 584 l 58 545 q 36 512 36 536 l 36 410 l 150 456 l 150 0 l 322 0 l 322 517 l 411 555 q 435 592 435 564 l 435 691 l 322 645 l 322 1032 "},"Ń":{"ha":1050,"x_min":101,"x_max":949,"o":"m 199 1004 l 199 1004 l 101 1004 l 101 0 l 266 0 l 266 617 q 265 657 266 635 q 262 701 264 678 l 787 32 q 815 7 801 14 q 852 0 830 0 l 949 0 l 949 1004 l 784 1004 l 784 394 q 785 350 784 374 q 789 303 786 327 l 262 974 q 248 990 254 984 q 235 999 242 996 q 220 1003 228 1002 q 199 1004 212 1004 m 803 1244 l 613 1244 q 589 1243 599 1244 q 572 1239 579 1242 q 557 1230 564 1235 q 541 1216 549 1224 l 405 1076 l 540 1076 q 557 1076 549 1076 q 570 1079 564 1077 q 584 1085 577 1081 q 598 1094 590 1088 l 803 1244 "},"ń":{"ha":790,"x_min":92,"x_max":713,"o":"m 92 0 l 263 0 l 263 515 q 337 570 298 550 q 420 590 376 590 q 511 555 481 590 q 541 453 541 519 l 541 0 l 713 0 l 713 453 q 697 563 713 513 q 651 648 681 613 q 576 704 621 684 q 472 724 531 724 q 406 717 436 724 q 348 697 375 710 q 298 665 322 683 q 252 625 274 647 l 240 681 q 197 713 230 713 l 92 713 l 92 0 m 646 1015 l 479 1015 q 438 1006 451 1015 q 413 978 424 997 l 315 810 l 417 810 q 449 815 437 810 q 474 834 461 820 l 646 1015 "},"Œ":{"ha":1502,"x_min":47,"x_max":1441,"o":"m 1441 1004 l 830 1004 l 830 876 q 688 978 769 942 q 505 1015 606 1015 q 318 977 402 1015 q 173 869 233 938 q 80 707 113 801 q 47 502 47 613 q 80 298 47 392 q 173 135 113 203 q 318 28 233 67 q 505 -10 402 -10 q 688 26 606 -10 q 830 128 769 63 l 830 0 l 1441 0 l 1441 149 l 996 149 l 996 433 l 1347 433 l 1347 577 l 996 577 l 996 856 l 1441 856 l 1441 1004 m 808 502 q 789 353 808 419 q 733 240 769 287 q 643 169 696 194 q 524 144 590 144 q 404 169 458 144 q 314 240 351 194 q 257 353 277 287 q 238 502 238 419 q 257 651 238 585 q 314 764 277 717 q 404 836 351 811 q 524 861 458 861 q 643 836 590 861 q 733 764 696 811 q 789 651 769 717 q 808 502 808 585 "},"œ":{"ha":1215,"x_min":42,"x_max":1167,"o":"m 883 724 q 731 686 795 724 q 629 586 667 649 q 523 688 588 652 q 372 724 458 724 q 239 698 299 724 q 134 625 178 672 q 67 510 91 578 q 42 358 42 442 q 66 205 42 273 q 133 89 90 137 q 236 15 176 41 q 366 -10 295 -10 q 522 26 455 -10 q 631 129 589 62 q 739 23 673 57 q 879 -10 804 -10 q 953 -5 915 -10 q 1029 14 992 1 q 1100 50 1066 28 q 1163 106 1134 73 l 1113 169 q 1082 185 1100 185 q 1049 175 1066 185 q 1011 153 1033 165 q 963 132 990 142 q 896 122 935 122 q 771 170 819 122 q 713 321 723 219 l 1128 321 q 1148 324 1140 321 q 1159 334 1155 327 q 1165 355 1163 342 q 1167 387 1167 367 q 1145 527 1167 465 q 1086 633 1124 590 q 996 700 1048 677 q 883 724 944 724 m 382 122 q 259 181 298 122 q 219 356 219 241 q 259 532 219 471 q 382 592 299 592 q 503 532 464 592 q 543 356 543 472 q 503 181 543 241 q 382 122 464 122 m 876 601 q 938 586 911 601 q 981 547 964 572 q 1006 490 998 522 q 1015 424 1015 458 l 714 424 q 763 555 723 508 q 876 601 803 601 "},"Ś":{"ha":769,"x_min":25,"x_max":703,"o":"m 640 822 l 685 910 q 558 988 633 960 q 394 1015 483 1015 q 254 991 315 1015 q 151 926 193 967 q 87 834 109 886 q 65 727 65 782 q 85 611 65 658 q 138 533 105 565 q 212 483 170 502 q 297 449 253 463 q 381 424 340 435 q 456 395 423 412 q 508 353 488 378 q 528 288 528 328 q 484 180 528 217 q 360 142 440 142 q 271 156 308 142 q 207 188 234 170 q 159 219 179 205 q 122 233 139 233 q 98 227 108 233 q 79 210 87 220 l 25 121 q 91 67 54 91 q 171 25 128 42 q 260 -2 214 8 q 355 -11 307 -11 q 503 14 438 -11 q 612 84 567 40 q 680 187 657 128 q 703 315 703 247 q 684 421 703 377 q 631 495 664 465 q 557 545 599 525 q 472 580 515 565 q 387 608 428 594 q 313 638 345 621 q 260 678 280 654 q 240 737 240 701 q 250 788 240 765 q 280 828 260 811 q 328 854 299 844 q 396 863 357 863 q 470 852 439 863 q 526 828 502 842 q 567 805 549 815 q 598 794 584 794 q 622 800 612 794 q 640 822 632 806 m 678 1244 l 488 1244 q 464 1243 474 1244 q 447 1239 454 1242 q 432 1230 439 1235 q 416 1216 424 1224 l 280 1076 l 415 1076 q 432 1076 424 1076 q 445 1079 439 1077 q 459 1085 452 1081 q 473 1094 465 1088 l 678 1244 "},"ś":{"ha":607,"x_min":29,"x_max":566,"o":"m 515 574 l 553 635 q 453 699 513 675 q 319 724 392 724 q 202 706 253 724 q 118 659 152 688 q 67 590 85 629 q 50 506 50 550 q 65 426 50 459 q 105 369 80 392 q 161 332 129 347 q 225 306 192 317 q 290 285 258 294 q 346 264 322 276 q 386 236 371 252 q 401 195 401 220 q 394 163 401 178 q 373 135 388 147 q 337 116 359 124 q 285 109 315 109 q 220 118 246 109 q 176 138 195 127 q 143 157 158 148 q 113 166 129 166 q 87 160 97 166 q 69 142 76 153 l 29 76 q 77 42 50 58 q 137 14 105 26 q 205 -5 169 2 q 276 -11 240 -11 q 398 7 345 -11 q 488 56 451 24 q 542 131 524 88 q 561 226 561 174 q 546 299 561 269 q 507 352 531 330 q 451 388 482 374 q 387 413 419 402 q 323 434 354 424 q 267 455 292 443 q 227 482 242 467 q 213 521 213 498 q 242 577 213 556 q 322 599 271 599 q 378 592 354 599 q 421 576 402 585 q 454 560 440 567 q 481 553 468 553 q 500 558 492 553 q 515 574 508 563 m 566 1015 l 399 1015 q 358 1006 372 1015 q 333 978 344 997 l 235 810 l 338 810 q 369 815 357 810 q 394 834 381 820 l 566 1015 "},"Š":{"ha":745,"x_min":25,"x_max":703,"o":"m 640 822 l 685 910 q 558 988 633 960 q 394 1015 483 1015 q 254 991 315 1015 q 151 926 193 967 q 87 834 109 886 q 65 727 65 782 q 85 611 65 658 q 138 533 105 565 q 212 483 170 502 q 297 449 253 463 q 381 424 340 435 q 456 395 423 412 q 508 353 488 378 q 528 288 528 328 q 484 180 528 217 q 360 142 440 142 q 271 156 308 142 q 207 188 234 170 q 159 219 179 205 q 122 233 139 233 q 98 227 108 233 q 79 210 87 220 l 25 121 q 91 67 54 91 q 171 25 128 42 q 260 -2 214 8 q 355 -11 307 -11 q 503 14 438 -11 q 612 84 567 40 q 680 187 657 128 q 703 315 703 247 q 684 421 703 377 q 631 495 664 465 q 557 545 599 525 q 472 580 515 565 q 387 608 428 594 q 313 638 345 621 q 260 678 280 654 q 240 737 240 701 q 250 788 240 765 q 280 828 260 811 q 328 854 299 844 q 396 863 357 863 q 470 852 439 863 q 526 828 502 842 q 567 805 549 815 q 598 794 584 794 q 622 800 612 794 q 640 822 632 806 m 151 1228 l 319 1076 l 490 1076 l 658 1228 l 528 1228 q 505 1225 517 1228 q 485 1217 492 1222 l 415 1170 q 409 1167 412 1169 q 404 1163 407 1165 q 399 1167 401 1165 q 394 1170 397 1169 l 324 1217 q 303 1225 316 1222 q 281 1228 291 1228 l 151 1228 "},"š":{"ha":607,"x_min":29,"x_max":561,"o":"m 515 574 l 553 635 q 453 699 513 675 q 319 724 392 724 q 202 706 253 724 q 118 659 152 688 q 67 590 85 629 q 50 506 50 550 q 65 426 50 459 q 105 369 80 392 q 161 332 129 347 q 225 306 192 317 q 290 285 258 294 q 346 264 322 276 q 386 236 371 252 q 401 195 401 220 q 394 163 401 178 q 373 135 388 147 q 337 116 359 124 q 285 109 315 109 q 220 118 246 109 q 176 138 195 127 q 143 157 158 148 q 113 166 129 166 q 87 160 97 166 q 69 142 76 153 l 29 76 q 77 42 50 58 q 137 14 105 26 q 205 -5 169 2 q 276 -11 240 -11 q 398 7 345 -11 q 488 56 451 24 q 542 131 524 88 q 561 226 561 174 q 546 299 561 269 q 507 352 531 330 q 451 388 482 374 q 387 413 419 402 q 323 434 354 424 q 267 455 292 443 q 227 482 242 467 q 213 521 213 498 q 242 577 213 556 q 322 599 271 599 q 378 592 354 599 q 421 576 402 585 q 454 560 440 567 q 481 553 468 553 q 500 558 492 553 q 515 574 508 563 m 400 811 l 559 1004 l 444 1004 q 425 1001 435 1004 q 410 992 415 997 l 337 926 q 329 918 333 922 q 322 910 325 915 q 307 926 313 920 l 233 992 q 218 1001 228 997 q 199 1004 209 1004 l 80 1004 l 239 811 l 400 811 "},"Ÿ":{"ha":909,"x_min":-5,"x_max":913,"o":"m 548 390 l 913 1004 l 748 1004 q 709 991 724 1004 q 686 963 694 978 l 503 627 q 476 571 488 598 q 456 518 465 544 q 434 570 446 544 q 406 627 422 597 l 222 963 q 198 992 213 981 q 160 1004 184 1004 l -5 1004 l 361 390 l 361 0 l 548 0 l 548 390 m 399 1158 q 392 1193 399 1176 q 371 1223 384 1210 q 340 1244 358 1236 q 303 1251 323 1251 q 269 1244 285 1251 q 240 1223 253 1236 q 220 1193 228 1210 q 213 1158 213 1176 q 220 1122 213 1139 q 240 1093 228 1106 q 269 1074 253 1081 q 303 1067 285 1067 q 340 1074 323 1067 q 371 1093 358 1081 q 392 1122 384 1106 q 399 1158 399 1139 m 699 1158 q 692 1193 699 1176 q 672 1223 685 1210 q 643 1244 660 1236 q 606 1251 626 1251 q 570 1244 588 1251 q 541 1223 553 1236 q 520 1193 528 1210 q 513 1158 513 1176 q 520 1122 513 1139 q 541 1093 528 1106 q 570 1074 553 1081 q 606 1067 588 1067 q 643 1074 626 1067 q 672 1093 660 1081 q 692 1122 685 1106 q 699 1158 699 1139 "},"Ź":{"ha":857,"x_min":43,"x_max":819,"o":"m 819 1004 l 76 1004 l 76 856 l 577 856 l 60 124 q 48 100 53 113 q 43 74 43 88 l 43 0 l 806 0 l 806 149 l 285 149 l 801 877 q 819 935 819 903 l 819 1004 m 717 1244 l 526 1244 q 502 1243 512 1244 q 485 1239 492 1242 q 470 1230 477 1235 q 454 1216 463 1224 l 318 1076 l 453 1076 q 470 1076 463 1076 q 484 1079 477 1077 q 497 1085 490 1081 q 511 1094 503 1088 l 717 1244 "},"ź":{"ha":652,"x_min":47,"x_max":607,"o":"m 607 642 l 607 713 l 67 713 l 67 581 l 411 581 l 69 131 q 52 100 58 116 q 47 72 47 83 l 47 0 l 597 0 l 597 132 l 246 132 l 585 578 q 600 607 594 590 q 607 642 607 624 m 586 1015 l 419 1015 q 378 1006 392 1015 q 353 978 364 997 l 255 810 l 358 810 q 389 815 377 810 q 415 834 401 820 l 586 1015 "},"Ż":{"ha":857,"x_min":43,"x_max":819,"o":"m 819 1004 l 76 1004 l 76 856 l 577 856 l 60 124 q 48 100 53 113 q 43 74 43 88 l 43 0 l 806 0 l 806 149 l 285 149 l 801 877 q 819 935 819 903 l 819 1004 m 555 1177 q 546 1218 555 1199 q 523 1251 538 1237 q 489 1274 508 1265 q 448 1282 469 1282 q 409 1274 428 1282 q 376 1251 390 1265 q 353 1218 362 1237 q 345 1177 345 1199 q 353 1138 345 1156 q 376 1105 362 1119 q 409 1083 390 1091 q 448 1074 428 1074 q 489 1083 469 1074 q 523 1105 508 1091 q 546 1138 538 1119 q 555 1177 555 1156 "},"ż":{"ha":652,"x_min":47,"x_max":607,"o":"m 607 642 l 607 713 l 67 713 l 67 581 l 411 581 l 69 131 q 52 100 58 116 q 47 72 47 83 l 47 0 l 597 0 l 597 132 l 246 132 l 585 578 q 600 607 594 590 q 607 642 607 624 m 457 923 q 448 966 457 946 q 424 1000 439 985 q 389 1024 409 1015 q 345 1033 368 1033 q 303 1024 323 1033 q 269 1000 284 1015 q 246 966 255 985 q 238 923 238 946 q 246 881 238 901 q 269 847 255 861 q 303 823 284 832 q 345 815 323 815 q 389 823 368 815 q 424 847 409 832 q 448 881 439 861 q 457 923 457 901 "},"Ž":{"ha":857,"x_min":43,"x_max":819,"o":"m 819 1004 l 76 1004 l 76 856 l 577 856 l 60 124 q 48 100 53 113 q 43 74 43 88 l 43 0 l 806 0 l 806 149 l 285 149 l 801 877 q 819 935 819 903 l 819 1004 m 197 1227 l 365 1075 l 535 1075 l 703 1227 l 574 1227 q 551 1224 563 1227 q 531 1216 538 1222 l 460 1169 q 455 1166 458 1168 q 450 1163 453 1165 q 445 1166 447 1165 q 440 1169 442 1168 l 369 1216 q 349 1224 362 1222 q 326 1227 337 1227 l 197 1227 "},"ž":{"ha":652,"x_min":47,"x_max":607,"o":"m 607 642 l 607 713 l 67 713 l 67 581 l 411 581 l 69 131 q 52 100 58 116 q 47 72 47 83 l 47 0 l 597 0 l 597 132 l 246 132 l 585 578 q 600 607 594 590 q 607 642 607 624 m 426 811 l 585 1004 l 471 1004 q 451 1001 461 1004 q 436 992 442 997 l 363 926 q 356 918 360 922 q 348 910 351 915 q 333 926 340 920 l 260 992 q 245 1001 254 997 q 225 1004 235 1004 l 106 1004 l 265 811 l 426 811 "},"ƒ":{"ha":806,"x_min":68,"x_max":713,"o":"m 490 517 l 706 517 l 706 640 l 501 640 l 515 738 q 532 803 519 776 q 563 847 544 831 q 606 872 582 864 q 658 879 630 879 q 700 890 687 879 q 713 928 713 901 l 713 1022 q 453 951 542 1022 q 348 742 365 881 l 335 640 l 196 640 l 196 569 q 235 526 196 535 l 320 514 l 263 44 q 246 -22 258 6 q 216 -65 234 -49 q 174 -90 198 -82 q 123 -97 151 -97 q 68 -150 68 -97 l 68 -240 q 218 -224 153 -240 q 327 -174 282 -208 q 398 -87 372 -140 q 433 40 424 -34 l 490 517 "},"ˆ":{"ha":443,"x_min":-18,"x_max":461,"o":"m 461 811 l 302 1004 l 141 1004 l -18 811 l 101 811 q 120 815 111 811 q 135 824 130 819 l 210 890 q 217 897 213 893 q 224 905 221 900 q 232 897 228 900 q 239 890 235 893 l 312 824 q 347 811 325 811 l 461 811 "},"ˇ":{"ha":443,"x_min":-18,"x_max":461,"o":"m 302 811 l 461 1004 l 347 1004 q 327 1001 337 1004 q 312 992 317 997 l 239 926 q 231 918 235 922 q 224 910 227 915 q 209 926 215 920 l 135 992 q 120 1001 130 997 q 101 1004 111 1004 l -18 1004 l 141 811 l 302 811 "},"ˉ":{"ha":443,"x_min":14,"x_max":429,"o":"m 14 953 l 14 843 l 429 843 l 429 953 l 14 953 "},"˘":{"ha":443,"x_min":12,"x_max":431,"o":"m 222 806 q 321 822 281 806 q 386 865 361 838 q 421 928 410 892 q 431 1004 431 964 l 311 1004 q 307 967 311 983 q 293 939 303 950 q 266 921 283 927 q 222 915 249 915 q 177 921 194 915 q 150 939 160 927 q 136 967 140 950 q 132 1004 132 983 l 12 1004 q 22 928 12 964 q 57 865 33 892 q 122 822 82 838 q 222 806 162 806 "},"˙":{"ha":443,"x_min":113,"x_max":332,"o":"m 332 923 q 323 966 332 946 q 299 1000 314 985 q 264 1024 284 1015 q 220 1033 243 1033 q 178 1024 198 1033 q 144 1000 159 1015 q 121 966 130 985 q 113 923 113 946 q 121 881 113 901 q 144 847 130 861 q 178 823 159 832 q 220 815 198 815 q 264 823 243 815 q 299 847 284 832 q 323 881 314 861 q 332 923 332 901 "},"˚":{"ha":443,"x_min":67,"x_max":377,"o":"m 67 920 q 79 863 67 889 q 113 819 92 838 q 162 791 134 801 q 220 781 190 781 q 280 791 251 781 q 330 819 308 801 q 364 863 351 838 q 377 920 377 889 q 364 978 377 952 q 330 1024 351 1005 q 280 1053 308 1042 q 220 1063 251 1063 q 162 1053 190 1063 q 113 1024 134 1042 q 79 978 92 1005 q 67 920 67 952 m 160 920 q 176 966 160 949 q 223 983 192 983 q 267 966 251 983 q 284 920 284 949 q 267 876 284 894 q 223 858 251 858 q 176 876 192 858 q 160 920 160 894 "},"˛":{"ha":443,"x_min":91,"x_max":363,"o":"m 320 -130 q 313 -131 317 -130 q 304 -135 309 -133 q 290 -138 299 -137 q 269 -140 282 -140 q 232 -127 245 -140 q 219 -94 219 -115 q 225 -65 219 -79 q 242 -39 231 -51 q 265 -17 252 -27 q 292 0 278 -8 l 203 8 q 120 -59 149 -21 q 91 -137 91 -97 q 128 -211 91 -183 q 233 -240 165 -240 q 305 -230 271 -240 q 363 -204 340 -219 l 336 -141 q 320 -130 333 -130 "},"˜":{"ha":443,"x_min":1,"x_max":444,"o":"m 296 944 q 266 953 282 944 q 231 972 250 962 q 191 992 213 983 q 144 1001 169 1001 q 87 988 113 1001 q 42 953 61 976 q 11 899 22 931 q 1 828 1 867 l 107 828 q 118 870 107 858 q 150 882 130 882 q 180 873 164 882 q 215 853 197 864 q 256 834 234 843 q 302 825 277 825 q 359 837 333 825 q 404 872 385 849 q 434 926 423 894 q 444 997 444 958 l 340 997 q 328 955 340 967 q 296 944 317 944 "},"˝":{"ha":443,"x_min":48,"x_max":556,"o":"m 313 1015 l 201 1015 q 159 1006 174 1015 q 135 978 145 997 l 48 810 l 118 810 q 151 815 138 810 q 175 834 164 820 l 313 1015 m 556 1015 l 432 1015 q 408 1013 418 1015 q 391 1006 399 1010 q 378 994 384 1001 q 366 978 372 988 l 243 810 l 324 810 q 356 815 344 810 q 381 834 367 821 l 556 1015 "},"π":{"ha":894,"x_min":36,"x_max":869,"o":"m 869 713 l 102 713 q 75 707 87 713 q 55 692 63 701 q 42 673 47 683 q 38 651 38 662 l 38 590 l 163 590 l 163 187 q 147 130 163 147 q 88 113 131 113 q 52 106 60 113 q 41 85 43 99 l 36 13 q 88 -5 60 0 q 140 -10 115 -10 q 229 4 192 -10 q 289 44 266 18 q 323 105 313 69 q 334 185 334 141 l 334 590 l 569 590 l 569 0 l 741 0 l 741 590 l 815 590 q 855 606 842 590 q 869 644 869 622 l 869 713 "},"–":{"ha":790,"x_min":113,"x_max":676,"o":"m 113 477 l 113 356 l 676 356 l 676 477 l 113 477 "},"—":{"ha":1169,"x_min":113,"x_max":1056,"o":"m 113 477 l 113 356 l 1056 356 l 1056 477 l 113 477 "},"‘":{"ha":313,"x_min":68,"x_max":271,"o":"m 115 678 l 219 719 q 244 750 244 728 q 238 769 244 760 q 213 825 220 799 q 205 876 205 852 q 210 917 205 898 q 224 953 216 937 q 243 983 233 969 q 262 1008 253 997 q 268 1017 265 1012 q 271 1029 271 1023 q 268 1041 271 1035 q 258 1051 265 1047 l 205 1083 q 103 967 138 1031 q 68 834 68 903 q 115 678 68 756 "},"’":{"ha":313,"x_min":60,"x_max":262,"o":"m 215 1064 l 111 1024 q 85 992 85 1015 q 92 974 85 983 q 117 917 110 944 q 125 867 125 890 q 120 825 125 844 q 106 789 115 806 q 88 759 98 773 q 69 735 78 746 q 60 713 60 726 q 63 702 60 708 q 72 692 65 696 l 126 659 q 227 776 192 713 q 262 908 262 839 q 250 986 262 947 q 215 1064 239 1025 "},"‚":{"ha":313,"x_min":60,"x_max":262,"o":"m 215 202 l 111 162 q 85 131 85 153 q 92 112 85 121 q 117 55 110 82 q 125 5 125 28 q 120 -37 125 -17 q 106 -73 115 -56 q 88 -102 98 -89 q 69 -126 78 -116 q 60 -149 60 -135 q 63 -160 60 -154 q 72 -170 65 -166 l 126 -203 q 227 -86 192 -149 q 262 47 262 -23 q 250 124 262 85 q 215 202 239 163 "},"“":{"ha":543,"x_min":68,"x_max":501,"o":"m 115 678 l 219 719 q 244 750 244 728 q 238 769 244 760 q 213 825 220 799 q 205 876 205 852 q 210 917 205 898 q 224 953 216 937 q 243 983 233 969 q 262 1008 253 997 q 268 1017 265 1012 q 271 1029 271 1023 q 268 1041 271 1035 q 258 1051 265 1047 l 205 1083 q 103 967 138 1031 q 68 834 68 903 q 115 678 68 756 m 346 678 l 450 719 q 475 750 475 728 q 469 769 475 760 q 443 825 451 799 q 435 876 435 852 q 441 917 435 898 q 455 953 447 937 q 473 983 463 969 q 492 1008 483 997 q 499 1017 496 1012 q 501 1029 501 1023 q 499 1041 501 1035 q 489 1051 496 1047 l 435 1083 q 334 967 369 1031 q 299 834 299 903 q 346 678 299 756 "},"”":{"ha":543,"x_min":60,"x_max":492,"o":"m 215 1064 l 111 1024 q 85 992 85 1015 q 92 974 85 983 q 117 917 110 944 q 125 867 125 890 q 120 825 125 844 q 106 789 115 806 q 88 759 98 772 q 69 735 78 746 q 60 713 60 726 q 63 702 60 708 q 72 692 65 696 l 126 659 q 227 776 192 713 q 262 908 262 839 q 250 986 262 947 q 215 1064 239 1025 m 445 1064 l 342 1024 q 316 992 316 1015 q 322 974 316 983 q 348 917 340 944 q 356 867 356 890 q 350 825 356 844 q 337 789 345 806 q 318 759 328 772 q 299 735 308 746 q 290 713 290 726 q 293 702 290 708 q 303 692 296 696 l 356 659 q 457 776 422 713 q 492 908 492 839 q 481 986 492 947 q 445 1064 469 1025 "},"„":{"ha":543,"x_min":60,"x_max":492,"o":"m 215 202 l 111 162 q 85 131 85 153 q 92 112 85 121 q 117 55 110 82 q 125 5 125 28 q 120 -37 125 -17 q 106 -73 115 -56 q 88 -103 98 -90 q 69 -126 78 -116 q 60 -149 60 -135 q 63 -160 60 -154 q 72 -170 65 -166 l 126 -203 q 227 -86 192 -149 q 262 47 262 -23 q 250 124 262 85 q 215 202 239 163 m 445 202 l 342 162 q 316 131 316 153 q 322 112 316 121 q 348 55 340 82 q 356 5 356 28 q 350 -37 356 -17 q 337 -73 345 -56 q 318 -103 328 -90 q 299 -126 308 -116 q 290 -149 290 -135 q 293 -160 290 -154 q 303 -170 296 -166 l 356 -203 q 457 -86 422 -149 q 492 47 492 -23 q 481 124 492 85 q 445 202 469 163 "},"†":{"ha":806,"x_min":58,"x_max":751,"o":"m 58 634 l 58 577 l 338 577 l 338 331 l 315 -224 q 404 -247 353 -247 q 452 -241 429 -247 q 493 -224 475 -235 l 471 331 l 471 577 l 751 577 l 751 634 q 746 662 751 649 q 731 685 741 675 q 706 702 722 696 q 670 708 691 708 q 575 697 626 708 q 471 678 523 685 l 493 1017 q 452 1034 475 1028 q 404 1040 429 1040 q 315 1017 353 1040 l 337 678 q 233 697 285 685 q 138 708 182 708 q 102 702 117 708 q 77 685 88 696 q 63 662 67 675 q 58 634 58 649 "},"‡":{"ha":806,"x_min":58,"x_max":751,"o":"m 58 634 l 58 577 l 338 577 l 338 216 l 58 216 l 58 159 q 63 131 58 144 q 77 108 67 118 q 102 91 88 97 q 138 85 117 85 q 233 96 182 85 q 337 115 285 107 l 315 -224 q 404 -247 353 -247 q 452 -241 429 -247 q 493 -224 475 -235 l 471 115 q 575 96 523 107 q 670 85 626 85 q 706 91 691 85 q 731 108 722 97 q 746 131 741 118 q 751 159 751 144 l 751 216 l 471 216 l 471 577 l 751 577 l 751 634 q 746 662 751 649 q 731 685 741 675 q 706 702 722 696 q 670 708 691 708 q 575 697 626 708 q 471 678 523 685 l 493 1017 q 452 1034 475 1028 q 404 1040 429 1040 q 315 1017 353 1040 l 337 678 q 233 697 285 685 q 138 708 182 708 q 102 702 117 708 q 77 685 88 696 q 63 662 67 675 q 58 634 58 649 "},"•":{"ha":806,"x_min":99,"x_max":705,"o":"m 99 412 q 123 295 99 350 q 188 200 147 241 q 284 135 229 159 q 401 112 339 112 q 519 135 464 112 q 616 200 575 159 q 681 295 657 241 q 705 412 705 350 q 681 529 705 474 q 616 625 657 584 q 519 690 575 667 q 401 714 464 714 q 284 690 339 714 q 188 625 229 667 q 123 529 147 584 q 99 412 99 474 "},"…":{"ha":1053,"x_min":51,"x_max":1003,"o":"m 51 94 q 59 53 51 72 q 81 20 67 34 q 115 -2 95 6 q 156 -10 134 -10 q 197 -2 178 -10 q 231 20 217 6 q 253 53 244 34 q 261 94 261 72 q 253 135 261 116 q 231 169 244 155 q 197 191 217 183 q 156 199 178 199 q 115 191 134 199 q 81 169 95 183 q 59 135 67 155 q 51 94 51 116 m 792 94 q 800 53 792 72 q 823 20 808 34 q 856 -2 837 6 q 898 -10 876 -10 q 939 -2 919 -10 q 972 20 958 6 q 994 53 986 34 q 1003 94 1003 72 q 994 135 1003 116 q 972 169 986 155 q 939 191 958 183 q 898 199 919 199 q 856 191 876 199 q 823 169 837 183 q 800 135 808 155 q 792 94 792 116 m 422 94 q 430 53 422 72 q 452 20 438 34 q 485 -2 466 6 q 527 -10 505 -10 q 568 -2 549 -10 q 601 20 588 6 q 624 53 615 34 q 632 94 632 72 q 624 135 632 116 q 601 169 615 155 q 568 191 588 183 q 527 199 549 199 q 485 191 505 199 q 452 169 466 183 q 430 135 438 155 q 422 94 422 116 "},"‰":{"ha":1630,"x_min":42,"x_max":1588,"o":"m 506 761 q 489 867 506 819 q 440 947 472 914 q 366 997 409 979 q 274 1015 324 1015 q 181 997 224 1015 q 108 947 139 979 q 60 867 77 914 q 42 761 42 819 q 60 658 42 704 q 108 580 77 613 q 181 531 139 548 q 274 513 224 513 q 362 531 319 513 q 436 580 404 548 q 487 658 468 613 q 506 761 506 704 m 374 761 q 366 696 374 722 q 345 654 358 670 q 313 631 331 638 q 274 624 294 624 q 235 631 253 624 q 203 654 217 638 q 183 696 190 670 q 176 761 176 722 q 183 828 176 801 q 203 872 190 856 q 235 896 217 889 q 274 903 253 903 q 313 896 294 903 q 345 872 331 889 q 366 828 358 856 q 374 761 374 801 m 840 977 l 94 0 l 222 0 q 253 7 240 0 q 274 26 266 15 l 1020 1004 l 896 1004 q 861 996 874 1004 q 840 977 849 988 m 1073 236 q 1056 342 1073 294 q 1007 422 1038 389 q 933 472 976 454 q 840 490 890 490 q 748 472 790 490 q 675 422 706 454 q 626 342 644 389 q 609 236 609 294 q 626 133 609 179 q 675 55 644 88 q 748 5 706 23 q 840 -12 790 -12 q 928 5 886 -12 q 1003 55 971 23 q 1054 133 1035 88 q 1073 236 1073 179 m 941 236 q 933 171 941 197 q 911 128 925 144 q 880 106 898 113 q 840 99 861 99 q 801 106 819 99 q 770 128 783 113 q 750 171 758 144 q 742 236 742 197 q 750 303 742 276 q 770 347 758 331 q 801 371 783 364 q 840 378 819 378 q 880 371 861 378 q 911 347 898 364 q 933 303 925 331 q 941 236 941 276 m 1588 236 q 1570 342 1588 294 q 1522 422 1553 389 q 1448 472 1490 454 q 1355 490 1405 490 q 1263 472 1305 490 q 1189 422 1220 454 q 1141 342 1158 389 q 1124 236 1124 294 q 1141 133 1124 179 q 1189 55 1158 88 q 1263 5 1220 23 q 1355 -12 1305 -12 q 1443 5 1401 -12 q 1517 55 1485 23 q 1568 133 1549 88 q 1588 236 1588 179 m 1456 236 q 1448 171 1456 197 q 1426 128 1440 144 q 1394 106 1413 113 q 1355 99 1376 99 q 1316 106 1334 99 q 1285 128 1298 113 q 1265 171 1272 144 q 1257 236 1257 197 q 1265 303 1257 276 q 1285 347 1272 331 q 1316 371 1298 364 q 1355 378 1334 378 q 1394 371 1376 378 q 1426 347 1413 364 q 1448 303 1440 331 q 1456 236 1456 276 "},"‹":{"ha":446,"x_min":85,"x_max":346,"o":"m 85 363 l 263 88 l 319 114 q 346 151 346 126 q 337 181 346 165 l 241 344 q 219 374 230 364 q 241 403 231 385 l 337 566 q 346 596 346 581 q 340 617 346 608 q 319 633 333 627 l 263 660 l 85 385 l 85 363 "},"›":{"ha":446,"x_min":100,"x_max":360,"o":"m 183 88 l 360 363 l 360 385 l 183 660 l 126 633 q 100 596 100 621 q 109 566 100 581 l 205 403 q 227 374 215 385 q 205 344 216 364 l 109 181 q 100 151 100 165 q 106 130 100 140 q 126 114 113 120 l 183 88 "},"⁄":{"ha":494,"x_min":-123,"x_max":619,"o":"m 36 49 l 619 1004 l 547 1004 q 494 989 515 1004 q 456 948 472 974 l -123 0 l -49 0 q -2 10 -23 0 q 36 49 18 21 "},"€":{"ha":806,"x_min":26,"x_max":792,"o":"m 26 644 l 26 549 l 106 549 q 106 525 106 537 q 106 502 106 514 q 106 485 106 494 q 106 469 106 477 l 26 469 l 26 374 l 114 374 q 157 216 126 287 q 235 95 188 145 q 348 18 283 45 q 494 -10 413 -10 q 669 30 594 -10 q 792 145 744 70 l 718 213 q 707 223 713 220 q 693 225 701 225 q 665 211 678 225 q 633 181 652 198 q 584 151 614 165 q 503 138 553 138 q 366 196 422 138 q 292 374 311 255 l 531 374 q 565 388 552 374 q 578 417 578 401 l 578 469 l 283 469 q 283 485 283 477 q 283 502 283 494 q 283 525 283 514 q 283 549 283 537 l 596 549 q 631 562 618 549 q 644 592 644 576 l 644 644 l 295 644 q 374 810 317 754 q 512 867 430 867 q 565 861 542 867 q 603 847 587 856 q 631 829 619 839 q 653 811 643 819 q 670 797 663 803 q 688 792 678 792 q 710 798 702 792 q 724 811 717 803 l 785 876 q 669 977 738 940 q 504 1014 601 1014 q 367 988 430 1014 q 253 914 303 962 q 169 798 203 866 q 118 644 134 729 l 26 644 "},"™":{"ha":1008,"x_min":40,"x_max":938,"o":"m 667 809 l 576 986 q 561 1002 569 1000 q 538 1004 553 1004 l 435 1004 l 435 585 l 540 585 l 540 795 l 532 860 l 637 654 q 678 628 649 628 l 694 628 q 735 654 722 628 l 841 864 l 833 795 l 833 585 l 938 585 l 938 1004 l 835 1004 q 813 1002 821 1004 q 797 986 804 999 l 705 809 q 694 785 699 797 q 685 760 689 772 q 677 784 681 772 q 667 809 672 797 m 385 1004 l 40 1004 l 40 907 l 153 907 l 153 585 l 272 585 l 272 907 l 385 907 l 385 1004 "},"Ω":{"ha":1028,"x_min":49,"x_max":978,"o":"m 563 0 l 916 0 q 961 16 944 0 q 978 58 978 33 l 978 153 l 708 153 l 708 250 q 823 301 772 267 q 908 382 874 335 q 960 487 942 429 q 978 611 978 545 q 945 769 978 695 q 850 897 911 842 q 703 984 789 952 q 514 1015 618 1015 q 324 984 410 1015 q 178 897 239 952 q 83 769 117 842 q 49 611 49 695 q 67 487 49 545 q 120 382 85 429 q 205 301 154 335 q 320 250 256 267 l 320 153 l 50 153 l 50 58 q 67 16 50 33 q 113 0 83 0 l 465 0 l 465 345 q 376 372 417 353 q 305 422 335 390 q 258 497 275 453 q 241 601 241 542 q 260 715 241 666 q 315 798 279 765 q 401 849 350 832 q 514 867 451 867 q 627 849 576 867 q 714 798 678 832 q 768 715 749 765 q 788 601 788 666 q 770 497 788 542 q 723 422 753 453 q 652 372 693 390 q 563 345 611 353 l 563 0 "},"∂":{"ha":806,"x_min":47,"x_max":761,"o":"m 213 927 l 250 862 q 269 840 260 845 q 288 834 278 834 q 314 841 299 834 q 350 856 330 848 q 393 872 369 865 q 442 878 416 878 q 509 863 479 878 q 561 816 540 847 q 594 738 583 785 q 606 628 606 691 q 606 602 606 616 q 606 575 606 589 q 525 644 573 619 q 408 668 476 668 q 265 639 331 668 q 150 558 199 610 q 74 437 102 507 q 47 286 47 367 q 68 163 47 218 q 129 70 90 108 q 221 10 167 31 q 338 -10 274 -10 q 523 35 444 -10 q 656 165 603 81 q 735 367 708 249 q 761 629 761 485 q 739 791 761 719 q 678 911 717 862 q 585 988 640 961 q 466 1014 531 1014 q 391 1008 425 1014 q 327 991 357 1002 q 268 964 297 981 q 213 927 240 948 m 358 123 q 259 166 295 123 q 224 288 224 209 q 236 388 224 342 q 274 466 249 433 q 337 517 299 499 q 426 535 375 535 q 488 524 462 535 q 532 494 513 513 q 562 451 550 476 q 581 401 574 427 q 545 273 567 326 q 493 187 522 220 q 430 138 464 153 q 358 123 395 123 "},"∆":{"ha":1019,"x_min":8,"x_max":1010,"o":"m 425 1004 l 8 0 l 1010 0 l 594 1004 l 425 1004 m 257 148 l 477 712 q 493 758 485 732 q 510 814 501 783 q 526 758 518 784 q 542 713 535 733 l 762 148 l 257 148 "},"∏":{"ha":953,"x_min":35,"x_max":917,"o":"m 917 1004 l 35 1004 l 35 860 l 152 860 l 152 -233 l 328 -233 l 328 860 l 624 860 l 624 -233 l 801 -233 l 801 860 l 917 860 l 917 1004 "},"∑":{"ha":953,"x_min":57,"x_max":896,"o":"m 57 1004 l 57 944 q 61 918 57 932 q 75 893 65 905 l 488 388 l 75 -122 q 61 -147 65 -133 q 57 -173 57 -160 l 57 -233 l 896 -233 l 896 -89 l 322 -89 l 679 361 l 679 410 l 322 860 l 896 860 l 896 1004 l 57 1004 "},"−":{"ha":806,"x_min":94,"x_max":710,"o":"m 94 530 l 94 403 l 710 403 l 710 530 l 94 530 "},"√":{"ha":809,"x_min":37,"x_max":876,"o":"m 185 446 l 350 0 l 494 0 l 876 1185 l 763 1185 q 733 1176 746 1185 q 716 1153 720 1167 l 448 300 q 435 251 440 275 q 426 204 430 227 q 417 263 423 234 q 401 322 411 292 l 331 538 q 314 560 326 551 q 281 569 301 569 l 37 569 l 37 515 q 56 461 37 477 q 101 446 75 446 l 185 446 "},"∞":{"ha":953,"x_min":32,"x_max":923,"o":"m 694 161 q 782 180 740 161 q 855 231 824 198 q 905 310 886 264 q 923 411 923 356 q 905 512 923 466 q 855 591 886 558 q 782 642 824 624 q 694 660 740 660 q 625 650 656 660 q 567 622 593 640 q 518 581 540 604 q 478 531 497 557 q 437 581 459 557 q 388 622 415 604 q 330 650 362 640 q 260 660 299 660 q 173 642 215 660 q 100 591 131 624 q 50 512 69 558 q 32 411 32 466 q 50 310 32 356 q 100 231 69 264 q 173 180 131 198 q 260 161 215 161 q 330 172 299 161 q 388 200 362 182 q 437 241 415 217 q 478 291 459 265 q 518 241 497 265 q 567 200 540 217 q 625 172 593 182 q 694 161 656 161 m 267 299 q 229 306 247 299 q 197 325 211 312 q 175 360 183 339 q 167 411 167 381 q 175 461 167 440 q 197 496 183 483 q 229 516 211 510 q 267 522 247 522 q 307 514 288 522 q 341 490 325 505 q 373 454 358 474 q 402 410 388 434 q 373 367 388 388 q 341 332 358 347 q 307 308 325 317 q 267 299 288 299 m 688 299 q 648 308 666 299 q 614 332 630 317 q 583 367 597 347 q 553 410 568 388 q 583 454 568 434 q 614 490 597 474 q 648 514 630 505 q 688 522 666 522 q 726 516 708 522 q 758 496 744 510 q 780 461 772 483 q 788 411 788 440 q 780 360 788 381 q 758 325 772 339 q 726 306 744 312 q 688 299 708 299 "},"∫":{"ha":574,"x_min":-62,"x_max":608,"o":"m 249 760 l 160 34 q 146 -31 156 -4 q 118 -75 136 -58 q 73 -100 100 -92 q 5 -108 45 -108 q -23 -110 -12 -108 q -40 -116 -33 -112 q -49 -127 -46 -120 q -53 -142 -51 -133 l -62 -214 q -9 -232 -37 -227 q 45 -237 20 -237 q 148 -221 101 -237 q 231 -171 195 -205 q 291 -85 267 -137 q 324 40 315 -33 l 413 738 q 426 796 417 771 q 452 838 436 821 q 492 862 468 854 q 549 870 516 870 q 573 874 564 870 q 588 883 583 877 q 596 895 594 888 q 599 909 599 902 l 608 992 q 555 1010 583 1005 q 500 1015 526 1015 q 327 948 390 1015 q 249 760 264 881 "},"≈":{"ha":806,"x_min":109,"x_max":697,"o":"m 550 622 q 487 633 520 622 q 418 657 453 644 q 347 680 383 669 q 273 691 310 691 q 225 687 249 691 q 180 674 201 683 q 140 651 158 665 q 109 617 122 637 l 134 513 q 151 528 139 519 q 181 544 164 537 q 219 557 198 551 q 263 562 240 562 q 326 551 292 562 q 394 527 359 540 q 466 503 429 514 q 539 492 502 492 q 627 509 584 492 q 697 560 670 525 l 676 669 q 659 655 671 663 q 630 639 647 647 q 592 627 613 632 q 550 622 572 622 m 550 375 q 487 386 520 375 q 418 409 453 397 q 347 433 383 422 q 273 444 310 444 q 225 440 249 444 q 180 426 201 435 q 140 403 158 417 q 109 370 122 390 l 134 266 q 151 281 139 272 q 181 297 164 290 q 219 309 198 304 q 263 315 240 315 q 326 304 292 315 q 394 280 359 293 q 466 256 429 267 q 539 245 502 245 q 627 261 584 245 q 697 313 670 278 l 676 422 q 659 407 671 415 q 630 392 647 399 q 592 380 613 385 q 550 375 572 375 "},"≠":{"ha":806,"x_min":94,"x_max":710,"o":"m 94 653 l 94 526 l 379 526 l 321 408 l 94 408 l 94 281 l 257 281 l 176 117 l 298 117 l 379 281 l 710 281 l 710 408 l 443 408 l 502 526 l 710 526 l 710 653 l 565 653 l 642 806 l 519 806 l 443 653 l 94 653 "},"≤":{"ha":806,"x_min":97,"x_max":647,"o":"m 97 583 l 97 514 l 647 249 l 647 365 q 639 391 647 379 q 608 413 631 403 l 365 525 q 327 538 347 533 q 285 549 308 544 q 327 559 308 553 q 365 572 347 564 l 609 681 q 639 703 631 691 q 647 729 647 715 l 647 846 l 97 583 m 97 183 l 97 56 l 647 56 l 647 183 l 97 183 "},"≥":{"ha":806,"x_min":159,"x_max":709,"o":"m 709 583 l 159 846 l 159 729 q 167 703 159 715 q 197 681 174 691 l 441 572 q 478 559 458 564 q 519 549 498 553 q 478 538 497 544 q 441 525 458 533 l 197 413 q 167 391 175 403 q 159 365 159 379 l 159 249 l 709 514 l 709 583 m 709 56 l 709 183 l 159 183 l 159 56 l 709 56 "},"◊":{"ha":806,"x_min":78,"x_max":727,"o":"m 78 500 l 343 -63 l 463 -63 l 727 500 l 463 1063 l 343 1063 l 78 500 m 219 500 l 379 848 q 393 882 388 866 q 403 914 398 899 q 413 882 408 899 q 426 848 418 866 l 590 500 l 426 152 q 413 118 418 134 q 403 86 407 101 q 393 118 399 101 q 379 152 388 134 l 219 500 "},"♩":{"ha":0,"x_min":-1,"x_max":1,"o":"m -1 1032 l -1 -233 l 1 -233 l 1 1032 l -1 1032 "},"ﬁ":{"ha":835,"x_min":16,"x_max":730,"o":"m 122 0 l 294 0 l 294 584 l 558 584 l 558 0 l 730 0 l 730 706 l 288 706 l 288 724 q 300 805 288 770 q 341 864 313 840 q 414 899 369 887 q 527 910 460 910 q 567 914 551 910 q 584 933 583 917 l 590 1022 q 537 1032 567 1028 q 477 1035 506 1035 q 319 1011 386 1035 q 209 947 253 988 q 144 850 165 906 q 122 729 122 794 l 122 706 l 16 706 l 16 636 q 28 607 16 617 q 60 593 40 597 l 122 583 l 122 0 "},"ﬂ":{"ha":857,"x_min":16,"x_max":750,"o":"m 122 0 l 294 0 l 294 584 l 457 584 l 457 706 l 288 706 l 288 736 q 329 859 288 816 q 448 903 370 903 q 507 901 472 903 q 579 897 542 899 l 579 0 l 750 0 l 750 1017 l 653 1017 q 541 1021 597 1017 q 421 1025 484 1025 q 288 1001 344 1025 q 194 937 231 977 q 140 845 158 897 q 122 736 122 793 l 122 706 l 16 706 l 16 636 q 28 607 16 617 q 60 593 40 597 l 122 583 l 122 0 "}}}
